  0
SECTION
  2
HEADER
  9
$ACADVER
  1
AC1015
  9
$ACADMAINTVER
 70
     6
  9
$DWGCODEPAGE
  3
ANSI_1252
  9
$INSBASE
 10
0.0
 20
0.0
 30
0.0
  9
$EXTMIN
 10
-250.0
 20
-250.0
 30
0.0
  9
$EXTMAX
 10
250.0
 20
250.0
 30
0.0
  9
$LIMMIN
 10
0.0
 20
0.0
  9
$LIMMAX
 10
420.0
 20
297.0
  9
$ORTHOMODE
 70
     0
  9
$REGENMODE
 70
     1
  9
$FILLMODE
 70
     1
  9
$QTEXTMODE
 70
     0
  9
$MIRRTEXT
 70
     1
  9
$LTSCALE
 40
1.0
  9
$ATTMODE
 70
     1
  9
$TEXTSIZE
 40
6.35
  9
$TRACEWID
 40
1.0
  9
$TEXTSTYLE
  7
Standard
  9
$CLAYER
  8
0
  9
$CELTYPE
  6
ByLayer
  9
$CECOLOR
 62
   256
  9
$CELTSCALE
 40
1.0
  9
$DISPSILH
 70
     0
  9
$DIMSCALE
 40
1.0
  9
$DIMASZ
 40
6.0
  9
$DIMEXO
 40
0.0
  9
$DIMDLI
 40
3.75
  9
$DIMRND
 40
0.0
  9
$DIMDLE
 40
0.0
  9
$DIMEXE
 40
1.0
  9
$DIMTP
 40
0.0
  9
$DIMTM
 40
0.0
  9
$DIMTXT
 40
6.35
  9
$DIMCEN
 40
2.5
  9
$DIMTSZ
 40
0.0
  9
$DIMTOL
 70
     0
  9
$DIMLIM
 70
     0
  9
$DIMTIH
 70
     1
  9
$DIMTOH
 70
     1
  9
$DIMSE1
 70
     0
  9
$DIMSE2
 70
     0
  9
$DIMTAD
 70
     0
  9
$DIMZIN
 70
     0
  9
$DIMBLK
  1

  9
$DIMASO
 70
     1
  9
$DIMSHO
 70
     1
  9
$DIMPOST
  1

  9
$DIMAPOST
  1

  9
$DIMALT
 70
     0
  9
$DIMALTD
 70
     3
  9
$DIMALTF
 40
0.0393700787
  9
$DIMLFAC
 40
1.0
  9
$DIMTOFL
 70
     1
  9
$DIMTVP
 40
0.0
  9
$DIMTIX
 70
     0
  9
$DIMSOXD
 70
     0
  9
$DIMSAH
 70
     0
  9
$DIMBLK1
  1

  9
$DIMBLK2
  1

  9
$DIMSTYLE
  2
ISO-25
  9
$DIMCLRD
 70
     0
  9
$DIMCLRE
 70
     0
  9
$DIMCLRT
 70
     0
  9
$DIMTFAC
 40
1.0
  9
$DIMGAP
 40
1.524
  9
$DIMJUST
 70
     0
  9
$DIMSD1
 70
     0
  9
$DIMSD2
 70
     0
  9
$DIMTOLJ
 70
     0
  9
$DIMTZIN
 70
     0
  9
$DIMALTZ
 70
     0
  9
$DIMALTTZ
 70
     0
  9
$DIMUPT
 70
     0
  9
$DIMDEC
 70
     3
  9
$DIMTDEC
 70
     2
  9
$DIMALTU
 70
     2
  9
$DIMALTTD
 70
     3
  9
$DIMTXSTY
  7
Standard
  9
$DIMAUNIT
 70
     0
  9
$DIMADEC
 70
     6
  9
$DIMALTRND
 40
0.0
  9
$DIMAZIN
 70
     0
  9
$DIMDSEP
 70
    44
  9
$DIMATFIT
 70
     3
  9
$DIMFRAC
 70
     0
  9
$DIMLDRBLK
  1

  9
$DIMLUNIT
 70
     2
  9
$DIMLWD
 70
    -2
  9
$DIMLWE
 70
    -2
  9
$DIMTMOVE
 70
     0
  9
$LUNITS
 70
     2
  9
$LUPREC
 70
     3
  9
$SKETCHINC
 40
1.0
  9
$FILLETRAD
 40
0.0
  9
$AUNITS
 70
     0
  9
$AUPREC
 70
     6
  9
$MENU
  1
.
  9
$ELEVATION
 40
0.0
  9
$PELEVATION
 40
0.0
  9
$THICKNESS
 40
0.0
  9
$LIMCHECK
 70
     0
  9
$CHAMFERA
 40
0.0
  9
$CHAMFERB
 40
0.0
  9
$CHAMFERC
 40
0.0
  9
$CHAMFERD
 40
0.0
  9
$SKPOLY
 70
     0
  9
$TDCREATE
 40
2460326.585378125
  9
$TDUCREATE
 40
2460326.793711458
  9
$TDUPDATE
 40
2460326.585416181
  9
$TDUUPDATE
 40
2460326.793749514
  9
$TDINDWG
 40
0.0000000116
  9
$TDUSRTIMER
 40
0.0000000116
  9
$USRTIMER
 70
     1
  9
$ANGBASE
 50
0.0
  9
$ANGDIR
 70
     0
  9
$PDMODE
 70
     0
  9
$PDSIZE
 40
-1.0
  9
$PLINEWID
 40
0.0
  9
$SPLFRAME
 70
     0
  9
$SPLINETYPE
 70
     6
  9
$SPLINESEGS
 70
     8
  9
$HANDSEED
  5
2B6
  9
$SURFTAB1
 70
     6
  9
$SURFTAB2
 70
     6
  9
$SURFTYPE
 70
     6
  9
$SURFU
 70
     6
  9
$SURFV
 70
     6
  9
$UCSBASE
  2

  9
$UCSNAME
  2

  9
$UCSORG
 10
0.0
 20
0.0
 30
0.0
  9
$UCSXDIR
 10
1.0
 20
0.0
 30
0.0
  9
$UCSYDIR
 10
0.0
 20
1.0
 30
0.0
  9
$UCSORTHOREF
  2

  9
$UCSORTHOVIEW
 70
     0
  9
$UCSORGTOP
 10
0.0
 20
0.0
 30
0.0
  9
$UCSORGBOTTOM
 10
0.0
 20
0.0
 30
0.0
  9
$UCSORGLEFT
 10
0.0
 20
0.0
 30
0.0
  9
$UCSORGRIGHT
 10
0.0
 20
0.0
 30
0.0
  9
$UCSORGFRONT
 10
0.0
 20
0.0
 30
0.0
  9
$UCSORGBACK
 10
0.0
 20
0.0
 30
0.0
  9
$PUCSBASE
  2

  9
$PUCSNAME
  2

  9
$PUCSORG
 10
0.0
 20
0.0
 30
0.0
  9
$PUCSXDIR
 10
1.0
 20
0.0
 30
0.0
  9
$PUCSYDIR
 10
0.0
 20
1.0
 30
0.0
  9
$PUCSORTHOREF
  2

  9
$PUCSORTHOVIEW
 70
     0
  9
$PUCSORGTOP
 10
0.0
 20
0.0
 30
0.0
  9
$PUCSORGBOTTOM
 10
0.0
 20
0.0
 30
0.0
  9
$PUCSORGLEFT
 10
0.0
 20
0.0
 30
0.0
  9
$PUCSORGRIGHT
 10
0.0
 20
0.0
 30
0.0
  9
$PUCSORGFRONT
 10
0.0
 20
0.0
 30
0.0
  9
$PUCSORGBACK
 10
0.0
 20
0.0
 30
0.0
  9
$USERI1
 70
     0
  9
$USERI2
 70
     0
  9
$USERI3
 70
     0
  9
$USERI4
 70
     0
  9
$USERI5
 70
     0
  9
$USERR1
 40
0.0
  9
$USERR2
 40
0.0
  9
$USERR3
 40
0.0
  9
$USERR4
 40
0.0
  9
$USERR5
 40
0.0
  9
$WORLDVIEW
 70
     1
  9
$SHADEDGE
 70
     3
  9
$SHADEDIF
 70
    70
  9
$TILEMODE
 70
     1
  9
$MAXACTVP
 70
    64
  9
$PINSBASE
 10
0.0
 20
0.0
 30
0.0
  9
$PLIMCHECK
 70
     0
  9
$PEXTMIN
 10
1.0000000000E+20
 20
1.0000000000E+20
 30
1.0000000000E+20
  9
$PEXTMAX
 10
-1.0000000000E+20
 20
-1.0000000000E+20
 30
-1.0000000000E+20
  9
$PLIMMIN
 10
0.0
 20
0.0
  9
$PLIMMAX
 10
420.0
 20
297.0
  9
$UNITMODE
 70
     0
  9
$VISRETAIN
 70
     1
  9
$PLINEGEN
 70
     0
  9
$PSLTSCALE
 70
     1
  9
$TREEDEPTH
 70
  3020
  9
$CMLSTYLE
  2
Standard
  9
$CMLJUST
 70
     0
  9
$CMLSCALE
 40
20.0
  9
$PROXYGRAPHICS
 70
     1
  9
$MEASUREMENT
 70
     1
  9
$CELWEIGHT
370
    -1
  9
$ENDCAPS
280
     0
  9
$JOINSTYLE
280
     0
  9
$LWDISPLAY
290
     1
  9
$INSUNITS
 70
     4
  9
$HYPERLINKBASE
  1

  9
$STYLESHEET
  1

  9
$XEDIT
290
     1
  9
$CEPSNTYPE
380
     0
  9
$PSTYLEMODE
290
     1
  9
$FINGERPRINTGUID
  2
{e8d0a1ac-e495-4ede-8553-7aa8d1b4be6a}
  9
$VERSIONGUID
  2
{FAEB1C32-E019-11D5-929B-00C0DF256EC4}
  9
$EXTNAMES
290
     1
  9
$PSVPSCALE
 40
0.0
  9
$OLESTARTUP
290
     0
  0
ENDSEC
  0
SECTION
  2
CLASSES
  0
CLASS
  1
ACDBDICTIONARYWDFLT
  2
AcDbDictionaryWithDefault
  3
ObjectDBX Classes
 90
        0
280
     0
281
     0
  0
CLASS
  1
VISUALSTYLE
  2
AcDbVisualStyle
  3
ObjectDBX Classes
 90
     4095
280
     0
281
     0
  0
CLASS
  1
MATERIAL
  2
AcDbMaterial
  3
ObjectDBX Classes
 90
     1153
280
     0
281
     0
  0
CLASS
  1
SCALE
  2
AcDbScale
  3
ObjectDBX Classes
 90
     1153
280
     0
281
     0
  0
CLASS
  1
TABLESTYLE
  2
AcDbTableStyle
  3
ObjectDBX Classes
 90
     4095
280
     0
281
     0
  0
CLASS
  1
MLEADERSTYLE
  2
AcDbMLeaderStyle
  3
ACDB_MLEADERSTYLE_CLASS
 90
     4095
280
     0
281
     0
  0
CLASS
  1
SUN
  2
AcDbSun
  3
SCENEOE
 90
     1153
280
     0
281
     0
  0
CLASS
  1
ACDBPLACEHOLDER
  2
AcDbPlaceHolder
  3
ObjectDBX Classes
 90
        0
280
     0
281
     0
  0
CLASS
  1
LAYOUT
  2
AcDbLayout
  3
ObjectDBX Classes
 90
        0
280
     0
281
     0
  0
ENDSEC
  0
SECTION
  2
TABLES
  0
TABLE
  2
VPORT
  5
8
330
0
100
AcDbSymbolTable
 70
     1
  0
VPORT
  5
29
330
8
100
AcDbSymbolTableRecord
100
AcDbViewportTableRecord
  2
*Active
 70
     0
 10
0.0
 20
0.0
 11
1.0
 21
1.0
 12
0.0
 22
0.0
 13
0.0
 23
0.0
 14
10.0
 24
10.0
 15
10.0
 25
10.0
 16
0.0
 26
0.0
 36
1.0
 17
0.0
 27
0.0
 37
0.0
 40
510.0
 41
1.0
 42
50.0
 43
0.0
 44
0.0
 50
0.0
 51
0.0
 71
     0
 72
   100
 73
     1
 74
     3
 75
     0
 76
     0
 77
     0
 78
     0
281
     0
 65
     1
110
0.0
120
0.0
130
0.0
111
1.0
121
0.0
131
0.0
112
0.0
122
1.0
132
0.0
 79
     0
146
0.0
  0
ENDTAB
  0
TABLE
  2
LTYPE
  5
5
330
0
100
AcDbSymbolTable
 70
     6
  0
LTYPE
  5
14
330
5
100
AcDbSymbolTableRecord
100
AcDbLinetypeTableRecord
  2
ByBlock
 70
     0
  3

 72
    65
 73
     0
 40
0.0
  0
LTYPE
  5
15
330
5
100
AcDbSymbolTableRecord
100
AcDbLinetypeTableRecord
  2
ByLayer
 70
     0
  3

 72
    65
 73
     0
 40
0.0
  0
LTYPE
  5
16
330
5
100
AcDbSymbolTableRecord
100
AcDbLinetypeTableRecord
  2
Continuous
 70
     0
  3
Solid line
 72
    65
 73
     0
 40
0.0
  0
LTYPE
  5
5E
330
5
100
AcDbSymbolTableRecord
100
AcDbLinetypeTableRecord
  2
HIDDEN
 70
     0
  3
Hidden __ __ __ __ __ __ __ __ __ __ __ __ __ __
 72
    65
 73
     2
 40
1.905
 49
1.27
 74
     0
 49
-0.635
 74
     0
  0
LTYPE
  5
5F
330
5
100
AcDbSymbolTableRecord
100
AcDbLinetypeTableRecord
  2
PHANTOM
 70
     0
  3
Phantom ______  __  __  ______  __  __  ______
 72
    65
 73
     6
 40
12.7
 49
6.35
 74
     0
 49
-1.27
 74
     0
 49
1.27
 74
     0
 49
-1.27
 74
     0
 49
1.27
 74
     0
 49
-1.27
 74
     0
  0
LTYPE
  5
60
330
5
100
AcDbSymbolTableRecord
100
AcDbLinetypeTableRecord
  2
CENTER
 70
     0
  3
Center ____ _ ____ _ ____ _ ____ _ ____ _ ____
 72
    65
 73
     4
 40
10.16
 49
6.35
 74
     0
 49
-1.27
 74
     0
 49
1.27
 74
     0
 49
-1.27
 74
     0
  0
LTYPE
  5
61
330
5
100
AcDbSymbolTableRecord
100
AcDbLinetypeTableRecord
  2
CENTERX2
 70
     0
  3
Center (2x) ________  __  ________  __  _____
 72
    65
 73
     4
 40
20.32
 49
12.7
 74
     0
 49
-2.54
 74
     0
 49
2.54
 74
     0
 49
-2.54
 74
     0
  0
LTYPE
  5
62
330
5
100
AcDbSymbolTableRecord
100
AcDbLinetypeTableRecord
  2
DOT2
 70
     0
  3
Dot (.5x) ........................................
 72
    65
 73
     2
 40
0.635
 49
0.0
 74
     0
 49
-0.635
 74
     0
  0
ENDTAB
  0
TABLE
  2
LAYER
  5
2
330
0
100
AcDbSymbolTable
 70
     1
  0
LAYER
  5
10
330
2
100
AcDbSymbolTableRecord
100
AcDbLayerTableRecord
  2
0
 70
     0
 62
     7
  6
Continuous
370
    -3
390
F
  0
ENDTAB
  0
TABLE
  2
STYLE
  5
3
330
0
100
AcDbSymbolTable
 70
     2
  0
STYLE
  5
11
330
3
100
AcDbSymbolTableRecord
100
AcDbTextStyleTableRecord
  2
Standard
 70
     0
 40
0.0
 41
1.0
 50
0.0
 71
     0
 42
6.35
  3
txt
  4

  0
STYLE
  5
2B2
330
3
100
AcDbSymbolTableRecord
100
AcDbTextStyleTableRecord
  2
SLDTEXTSTYLE0
 70
     0
 40
0.0
 41
0.7
 50
0.0
 71
     0
 42
6.35
  3
TXT
  4

  0
ENDTAB
  0
TABLE
  2
VIEW
  5
6
330
0
100
AcDbSymbolTable
 70
     0
  0
ENDTAB
  0
TABLE
  2
UCS
  5
7
330
0
100
AcDbSymbolTable
 70
     0
  0
ENDTAB
  0
TABLE
  2
APPID
  5
9
330
0
100
AcDbSymbolTable
 70
     1
  0
APPID
  5
12
330
9
100
AcDbSymbolTableRecord
100
AcDbRegAppTableRecord
  2
ACAD
 70
     0
  0
ENDTAB
  0
TABLE
  2
DIMSTYLE
  5
A
330
0
100
AcDbSymbolTable
 70
     1
100
AcDbDimStyleTable
  0
DIMSTYLE
105
27
330
A
100
AcDbSymbolTableRecord
100
AcDbDimStyleTableRecord
  2
ISO-25
 70
     0
 41
2.5
 42
0.625
 43
3.75
 44
1.25
 73
     0
 74
     0
 77
     1
 78
     8
140
2.5
141
2.5
143
0.0393700787
147
0.625
171
     3
172
     1
178
     0
271
     2
272
     2
274
     3
278
    44
283
     0
284
     8
340
11
  0
ENDTAB
  0
TABLE
  2
BLOCK_RECORD
  5
1
330
0
100
AcDbSymbolTable
 70
     1
  0
BLOCK_RECORD
  5
1F
330
1
100
AcDbSymbolTableRecord
100
AcDbBlockTableRecord
  2
*Model_Space
340
22
  0
BLOCK_RECORD
  5
1B
330
1
100
AcDbSymbolTableRecord
100
AcDbBlockTableRecord
  2
*Paper_Space
340
1E
  0
BLOCK_RECORD
  5
23
330
1
100
AcDbSymbolTableRecord
100
AcDbBlockTableRecord
  2
*Paper_Space0
340
26
  0
ENDTAB
  0
ENDSEC
  0
SECTION
  2
BLOCKS
  0
BLOCK
  5
20
330
1F
100
AcDbEntity
  8
0
100
AcDbBlockBegin
  2
*Model_Space
 70
     0
 10
0.0
 20
0.0
 30
0.0
  3
*Model_Space
  1

  0
ENDBLK
  5
21
330
1F
100
AcDbEntity
  8
0
100
AcDbBlockEnd
  0
BLOCK
  5
1C
330
1B
100
AcDbEntity
 67
     1
  8
0
100
AcDbBlockBegin
  2
*Paper_Space
 70
     0
 10
0.0
 20
0.0
 30
0.0
  3
*Paper_Space
  1

  0
ENDBLK
  5
1D
330
1B
100
AcDbEntity
 67
     1
  8
0
100
AcDbBlockEnd
  0
BLOCK
  5
24
330
23
100
AcDbEntity
  8
0
100
AcDbBlockBegin
  2
*Paper_Space0
 70
     0
 10
0.0
 20
0.0
 30
0.0
  3
*Paper_Space0
  1

  0
ENDBLK
  5
25
330
23
100
AcDbEntity
  8
0
100
AcDbBlockEnd
  0
ENDSEC
  0
SECTION
  2
ENTITIES
  0
ARC
  5
63
330
1F
100
AcDbEntity
  8
0
  6
Continuous
 62
     7
370
    25
100
AcDbCircle
 10
199.8753403765
 20
57.7778071218
 30
0.0
 40
5.000000000000017
100
AcDbArc
 50
107.5
 51
196.1229536857
  0
LINE
  5
64
330
1F
100
AcDbEntity
  8
0
  6
Continuous
 62
     7
370
    25
100
AcDbLine
 10
207.9116096398
 20
65.5542787133
 30
0.0
 11
198.371811379
 21
62.5463918755
 31
0.0
  0
ARC
  5
65
330
1F
100
AcDbEntity
  8
0
  6
Continuous
 62
     7
370
    25
100
AcDbCircle
 10
209.4151386373
 20
60.7856939596
 30
0.0
 40
5.000000000000002
100
AcDbArc
 50
16.1861152788
 51
107.5
  0
ARC
  5
66
330
1F
100
AcDbEntity
  8
0
  6
Continuous
 62
     7
370
    25
100
AcDbCircle
 10
0.0
 20
0.0
 30
0.0
 40
223.0587097105433
100
AcDbArc
 50
343.8138847212
 51
16.1861152788
  0
ARC
  5
67
330
1F
100
AcDbEntity
  8
0
  6
Continuous
 62
     7
370
    25
100
AcDbCircle
 10
209.4151386373
 20
-60.7856939596
 30
0.0
 40
4.999999999999973
100
AcDbArc
 50
252.5
 51
343.8138847212
  0
LINE
  5
68
330
1F
100
AcDbEntity
  8
0
  6
Continuous
 62
     7
370
    25
100
AcDbLine
 10
207.9116096398
 20
-65.5542787133
 30
0.0
 11
198.371811379
 21
-62.5463918755
 31
0.0
  0
ARC
  5
69
330
1F
100
AcDbEntity
  8
0
  6
Continuous
 62
     7
370
    25
100
AcDbCircle
 10
199.8753403765
 20
-57.7778071218
 30
0.0
 40
5.000000000000027
100
AcDbArc
 50
163.8770463143
 51
252.5
  0
ARC
  5
6A
330
1F
100
AcDbEntity
  8
0
  6
Continuous
 62
     7
370
    25
100
AcDbCircle
 10
0.0
 20
0.0
 30
0.0
 40
203.0587097105432
100
AcDbArc
 50
343.8770463143
 51
16.1229536857
  0
ARC
  5
6B
330
1F
100
AcDbEntity
  8
0
  6
Continuous
 62
     7
370
    25
100
AcDbCircle
 10
182.1882877901
 20
-100.4781293543
 30
0.0
 40
5.000000000000016
100
AcDbArc
 50
62.5
 51
151.1229536857
  0
LINE
  5
6C
330
1F
100
AcDbEntity
  8
0
  6
Continuous
 62
     7
370
    25
100
AcDbLine
 10
193.3695840777
 20
-100.6618340497
 30
0.0
 11
184.4970308563
 21
-96.0430751884
 31
0.0
  0
ARC
  5
6D
330
1F
100
AcDbEntity
  8
0
  6
Continuous
 62
     7
370
    25
100
AcDbCircle
 10
191.0608410115
 20
-105.0968882156
 30
0.0
 40
4.999999999999971
100
AcDbArc
 50
331.1861152788
 51
62.5
  0
ARC
  5
6E
330
1F
100
AcDbEntity
  8
0
  6
Continuous
 62
     7
370
    25
100
AcDbCircle
 10
0.0
 20
0.0
 30
0.0
 40
223.0587097105433
100
AcDbArc
 50
298.8138847212
 51
331.1861152788
  0
ARC
  5
6F
330
1F
100
AcDbEntity
  8
0
  6
Continuous
 62
     7
370
    25
100
AcDbCircle
 10
105.0968882156
 20
-191.0608410115
 30
0.0
 40
4.999999999999981
100
AcDbArc
 50
207.5
 51
298.8138847212
  0
LINE
  5
70
330
1F
100
AcDbEntity
  8
0
  6
Continuous
 62
     7
370
    25
100
AcDbLine
 10
100.6618340497
 20
-193.3695840777
 30
0.0
 11
96.0430751884
 21
-184.4970308563
 31
0.0
  0
ARC
  5
71
330
1F
100
AcDbEntity
  8
0
  6
Continuous
 62
     7
370
    25
100
AcDbCircle
 10
100.4781293543
 20
-182.1882877901
 30
0.0
 40
5.000000000000009
100
AcDbArc
 50
118.8770463143
 51
207.5
  0
ARC
  5
72
330
1F
100
AcDbEntity
  8
0
  6
Continuous
 62
     7
370
    25
100
AcDbCircle
 10
0.0
 20
0.0
 30
0.0
 40
203.0587097105432
100
AcDbArc
 50
298.8770463143
 51
331.1229536857
  0
ARC
  5
73
330
1F
100
AcDbEntity
  8
0
  6
Continuous
 62
     7
370
    25
100
AcDbCircle
 10
57.7778071218
 20
-199.8753403765
 30
0.0
 40
5.000000000000025
100
AcDbArc
 50
17.5
 51
106.1229536857
  0
LINE
  5
74
330
1F
100
AcDbEntity
  8
0
  6
Continuous
 62
     7
370
    25
100
AcDbLine
 10
65.5542787133
 20
-207.9116096398
 30
0.0
 11
62.5463918755
 21
-198.371811379
 31
0.0
  0
ARC
  5
75
330
1F
100
AcDbEntity
  8
0
  6
Continuous
 62
     7
370
    25
100
AcDbCircle
 10
60.7856939596
 20
-209.4151386373
 30
0.0
 40
4.999999999999996
100
AcDbArc
 50
286.1861152788
 51
17.5
  0
ARC
  5
76
330
1F
100
AcDbEntity
  8
0
  6
Continuous
 62
     7
370
    25
100
AcDbCircle
 10
0.0
 20
0.0
 30
0.0
 40
223.0587097105432
100
AcDbArc
 50
253.8138847212
 51
286.1861152788
  0
ARC
  5
77
330
1F
100
AcDbEntity
  8
0
  6
Continuous
 62
     7
370
    25
100
AcDbCircle
 10
-60.7856939596
 20
-209.4151386373
 30
0.0
 40
4.99999999999998
100
AcDbArc
 50
162.5
 51
253.8138847212
  0
LINE
  5
78
330
1F
100
AcDbEntity
  8
0
  6
Continuous
 62
     7
370
    25
100
AcDbLine
 10
-65.5542787133
 20
-207.9116096398
 30
0.0
 11
-62.5463918755
 21
-198.371811379
 31
0.0
  0
ARC
  5
79
330
1F
100
AcDbEntity
  8
0
  6
Continuous
 62
     7
370
    25
100
AcDbCircle
 10
-57.7778071218
 20
-199.8753403765
 30
0.0
 40
5.000000000000019
100
AcDbArc
 50
73.8770463143
 51
162.5
  0
ARC
  5
7A
330
1F
100
AcDbEntity
  8
0
  6
Continuous
 62
     7
370
    25
100
AcDbCircle
 10
0.0
 20
0.0
 30
0.0
 40
203.0587097105432
100
AcDbArc
 50
253.8770463143
 51
286.1229536857
  0
ARC
  5
7B
330
1F
100
AcDbEntity
  8
0
  6
Continuous
 62
     7
370
    25
100
AcDbCircle
 10
-100.4781293543
 20
-182.1882877901
 30
0.0
 40
5.000000000000004
100
AcDbArc
 50
332.5
 51
61.1229536857
  0
LINE
  5
7C
330
1F
100
AcDbEntity
  8
0
  6
Continuous
 62
     7
370
    25
100
AcDbLine
 10
-100.6618340497
 20
-193.3695840777
 30
0.0
 11
-96.0430751884
 21
-184.4970308563
 31
0.0
  0
ARC
  5
7D
330
1F
100
AcDbEntity
  8
0
  6
Continuous
 62
     7
370
    25
100
AcDbCircle
 10
-105.0968882156
 20
-191.0608410115
 30
0.0
 40
5.000000000000007
100
AcDbArc
 50
241.1861152788
 51
332.5
  0
ARC
  5
7E
330
1F
100
AcDbEntity
  8
0
  6
Continuous
 62
     7
370
    25
100
AcDbCircle
 10
0.0
 20
0.0
 30
0.0
 40
223.0587097105432
100
AcDbArc
 50
208.8138847212
 51
241.1861152788
  0
ARC
  5
7F
330
1F
100
AcDbEntity
  8
0
  6
Continuous
 62
     7
370
    25
100
AcDbCircle
 10
-191.0608410115
 20
-105.0968882156
 30
0.0
 40
4.999999999999968
100
AcDbArc
 50
117.5
 51
208.8138847212
  0
LINE
  5
80
330
1F
100
AcDbEntity
  8
0
  6
Continuous
 62
     7
370
    25
100
AcDbLine
 10
-193.3695840777
 20
-100.6618340497
 30
0.0
 11
-184.4970308563
 21
-96.0430751884
 31
0.0
  0
ARC
  5
81
330
1F
100
AcDbEntity
  8
0
  6
Continuous
 62
     7
370
    25
100
AcDbCircle
 10
-182.1882877901
 20
-100.4781293543
 30
0.0
 40
4.999999999999995
100
AcDbArc
 50
28.8770463143
 51
117.5
  0
ARC
  5
82
330
1F
100
AcDbEntity
  8
0
  6
Continuous
 62
     7
370
    25
100
AcDbCircle
 10
0.0
 20
0.0
 30
0.0
 40
203.0587097105432
100
AcDbArc
 50
208.8770463143
 51
241.1229536857
  0
ARC
  5
83
330
1F
100
AcDbEntity
  8
0
  6
Continuous
 62
     7
370
    25
100
AcDbCircle
 10
-199.8753403765
 20
-57.7778071218
 30
0.0
 40
5.000000000000064
100
AcDbArc
 50
287.5
 51
16.1229536857
  0
LINE
  5
84
330
1F
100
AcDbEntity
  8
0
  6
Continuous
 62
     7
370
    25
100
AcDbLine
 10
-207.9116096398
 20
-65.5542787133
 30
0.0
 11
-198.371811379
 21
-62.5463918755
 31
0.0
  0
ARC
  5
85
330
1F
100
AcDbEntity
  8
0
  6
Continuous
 62
     7
370
    25
100
AcDbCircle
 10
-209.4151386373
 20
-60.7856939596
 30
0.0
 40
4.999999999999977
100
AcDbArc
 50
196.1861152788
 51
287.5
  0
ARC
  5
86
330
1F
100
AcDbEntity
  8
0
  6
Continuous
 62
     7
370
    25
100
AcDbCircle
 10
0.0
 20
0.0
 30
0.0
 40
223.0587097105432
100
AcDbArc
 50
163.8138847212
 51
196.1861152788
  0
ARC
  5
87
330
1F
100
AcDbEntity
  8
0
  6
Continuous
 62
     7
370
    25
100
AcDbCircle
 10
-209.4151386373
 20
60.7856939596
 30
0.0
 40
4.999999999999987
100
AcDbArc
 50
72.5
 51
163.8138847212
  0
LINE
  5
88
330
1F
100
AcDbEntity
  8
0
  6
Continuous
 62
     7
370
    25
100
AcDbLine
 10
-207.9116096398
 20
65.5542787133
 30
0.0
 11
-198.371811379
 21
62.5463918755
 31
0.0
  0
ARC
  5
89
330
1F
100
AcDbEntity
  8
0
  6
Continuous
 62
     7
370
    25
100
AcDbCircle
 10
-199.8753403765
 20
57.7778071218
 30
0.0
 40
5.000000000000007
100
AcDbArc
 50
343.8770463143
 51
72.5
  0
ARC
  5
8A
330
1F
100
AcDbEntity
  8
0
  6
Continuous
 62
     7
370
    25
100
AcDbCircle
 10
0.0
 20
0.0
 30
0.0
 40
203.0587097105432
100
AcDbArc
 50
163.8770463143
 51
196.1229536857
  0
ARC
  5
8B
330
1F
100
AcDbEntity
  8
0
  6
Continuous
 62
     7
370
    25
100
AcDbCircle
 10
-182.1882877901
 20
100.4781293543
 30
0.0
 40
5.000000000000075
100
AcDbArc
 50
242.5
 51
331.1229536857
  0
LINE
  5
8C
330
1F
100
AcDbEntity
  8
0
  6
Continuous
 62
     7
370
    25
100
AcDbLine
 10
-193.3695840777
 20
100.6618340497
 30
0.0
 11
-184.4970308563
 21
96.0430751884
 31
0.0
  0
ARC
  5
8D
330
1F
100
AcDbEntity
  8
0
  6
Continuous
 62
     7
370
    25
100
AcDbCircle
 10
-191.0608410115
 20
105.0968882156
 30
0.0
 40
4.999999999999982
100
AcDbArc
 50
151.1861152788
 51
242.5
  0
ARC
  5
8E
330
1F
100
AcDbEntity
  8
0
  6
Continuous
 62
     7
370
    25
100
AcDbCircle
 10
0.0
 20
0.0
 30
0.0
 40
223.0587097105432
100
AcDbArc
 50
118.8138847212
 51
151.1861152788
  0
ARC
  5
8F
330
1F
100
AcDbEntity
  8
0
  6
Continuous
 62
     7
370
    25
100
AcDbCircle
 10
-105.0968882156
 20
191.0608410115
 30
0.0
 40
4.99999999999998
100
AcDbArc
 50
27.5
 51
118.8138847212
  0
LINE
  5
90
330
1F
100
AcDbEntity
  8
0
  6
Continuous
 62
     7
370
    25
100
AcDbLine
 10
-100.6618340497
 20
193.3695840777
 30
0.0
 11
-96.0430751884
 21
184.4970308563
 31
0.0
  0
ARC
  5
91
330
1F
100
AcDbEntity
  8
0
  6
Continuous
 62
     7
370
    25
100
AcDbCircle
 10
-100.4781293543
 20
182.1882877901
 30
0.0
 40
5.000000000000032
100
AcDbArc
 50
298.8770463143
 51
27.5
  0
ARC
  5
92
330
1F
100
AcDbEntity
  8
0
  6
Continuous
 62
     7
370
    25
100
AcDbCircle
 10
0.0
 20
0.0
 30
0.0
 40
203.0587097105432
100
AcDbArc
 50
118.8770463143
 51
151.1229536857
  0
ARC
  5
93
330
1F
100
AcDbEntity
  8
0
  6
Continuous
 62
     7
370
    25
100
AcDbCircle
 10
100.4781293543
 20
182.1882877901
 30
0.0
 40
5.000000000000073
100
AcDbArc
 50
152.5
 51
241.1229536857
  0
LINE
  5
94
330
1F
100
AcDbEntity
  8
0
  6
Continuous
 62
     7
370
    25
100
AcDbLine
 10
100.6618340497
 20
193.3695840777
 30
0.0
 11
96.0430751884
 21
184.4970308563
 31
0.0
  0
ARC
  5
95
330
1F
100
AcDbEntity
  8
0
  6
Continuous
 62
     7
370
    25
100
AcDbCircle
 10
105.0968882156
 20
191.0608410115
 30
0.0
 40
4.999999999999968
100
AcDbArc
 50
61.1861152788
 51
152.5
  0
ARC
  5
96
330
1F
100
AcDbEntity
  8
0
  6
Continuous
 62
     7
370
    25
100
AcDbCircle
 10
0.0
 20
0.0
 30
0.0
 40
223.0587097105432
100
AcDbArc
 50
28.8138847212
 51
61.1861152788
  0
ARC
  5
97
330
1F
100
AcDbEntity
  8
0
  6
Continuous
 62
     7
370
    25
100
AcDbCircle
 10
191.0608410115
 20
105.0968882156
 30
0.0
 40
4.999999999999968
100
AcDbArc
 50
297.5
 51
28.8138847212
  0
LINE
  5
98
330
1F
100
AcDbEntity
  8
0
  6
Continuous
 62
     7
370
    25
100
AcDbLine
 10
193.3695840777
 20
100.6618340497
 30
0.0
 11
184.4970308563
 21
96.0430751884
 31
0.0
  0
ARC
  5
99
330
1F
100
AcDbEntity
  8
0
  6
Continuous
 62
     7
370
    25
100
AcDbCircle
 10
182.1882877901
 20
100.4781293543
 30
0.0
 40
5.000000000000059
100
AcDbArc
 50
208.8770463143
 51
297.5
  0
ARC
  5
9A
330
1F
100
AcDbEntity
  8
0
  6
Continuous
 62
     7
370
    25
100
AcDbCircle
 10
0.0
 20
0.0
 30
0.0
 40
203.0587097105432
100
AcDbArc
 50
28.8770463143
 51
61.1229536857
  0
CIRCLE
  5
9B
330
1F
100
AcDbEntity
  8
0
  6
Continuous
 62
     7
370
    25
100
AcDbCircle
 10
-63.4492553054
 20
221.5179270425
 30
0.0
 40
1.25
  0
CIRCLE
  5
9C
330
1F
100
AcDbEntity
  8
0
  6
Continuous
 62
     7
370
    25
100
AcDbCircle
 10
-36.1129671061
 20
227.5782362327
 30
0.0
 40
1.25
  0
CIRCLE
  5
9D
330
1F
100
AcDbEntity
  8
0
  6
Continuous
 62
     7
370
    25
100
AcDbCircle
 10
36.1129671061
 20
227.5782362327
 30
0.0
 40
1.25
  0
CIRCLE
  5
9E
330
1F
100
AcDbEntity
  8
0
  6
Continuous
 62
     7
370
    25
100
AcDbCircle
 10
0.0
 20
196.0
 30
0.0
 40
2.099999999999991
  0
CIRCLE
  5
9F
330
1F
100
AcDbEntity
  8
0
  6
Continuous
 62
     7
370
    25
100
AcDbCircle
 10
-169.7409791418
 20
98.0
 30
0.0
 40
2.099999999999994
  0
CIRCLE
  5
A0
330
1F
100
AcDbEntity
  8
0
  6
Continuous
 62
     7
370
    25
100
AcDbCircle
 10
-169.7409791417
 20
-98.0
 30
0.0
 40
2.099999999999994
  0
CIRCLE
  5
A1
330
1F
100
AcDbEntity
  8
0
  6
Continuous
 62
     7
370
    25
100
AcDbCircle
 10
0.0
 20
-196.0
 30
0.0
 40
2.099999999999991
  0
CIRCLE
  5
A2
330
1F
100
AcDbEntity
  8
0
  6
Continuous
 62
     7
370
    25
100
AcDbCircle
 10
169.7409791418
 20
-98.0
 30
0.0
 40
2.099999999999994
  0
CIRCLE
  5
A3
330
1F
100
AcDbEntity
  8
0
  6
Continuous
 62
     7
370
    25
100
AcDbCircle
 10
0.0
 20
230.0
 30
0.0
 40
2.500000000000002
  0
CIRCLE
  5
A4
330
1F
100
AcDbEntity
  8
0
  6
Continuous
 62
     7
370
    25
100
AcDbCircle
 10
-162.6345596729
 20
162.6345596729
 30
0.0
 40
2.5
  0
CIRCLE
  5
A5
330
1F
100
AcDbEntity
  8
0
  6
Continuous
 62
     7
370
    25
100
AcDbCircle
 10
162.6345596729
 20
162.6345596729
 30
0.0
 40
2.5
  0
CIRCLE
  5
A6
330
1F
100
AcDbEntity
  8
0
  6
Continuous
 62
     7
370
    25
100
AcDbCircle
 10
-230.0
 20
0.0
 30
0.0
 40
2.5
  0
CIRCLE
  5
A7
330
1F
100
AcDbEntity
  8
0
  6
Continuous
 62
     7
370
    25
100
AcDbCircle
 10
230.0
 20
0.0
 30
0.0
 40
2.5
  0
CIRCLE
  5
A8
330
1F
100
AcDbEntity
  8
0
  6
Continuous
 62
     7
370
    25
100
AcDbCircle
 10
-162.6345596729
 20
-162.6345596729
 30
0.0
 40
2.5
  0
CIRCLE
  5
A9
330
1F
100
AcDbEntity
  8
0
  6
Continuous
 62
     7
370
    25
100
AcDbCircle
 10
0.0
 20
-230.0
 30
0.0
 40
2.500000000000002
  0
ARC
  5
AA
330
1F
100
AcDbEntity
  8
0
  6
Continuous
 62
     7
370
    25
100
AcDbCircle
 10
-57.7778071218
 20
199.8753403765
 30
0.0
 40
5.000000000000025
100
AcDbArc
 50
197.5
 51
286.1229536857
  0
LINE
  5
AB
330
1F
100
AcDbEntity
  8
0
  6
Continuous
 62
     7
370
    25
100
AcDbLine
 10
-65.5542787133
 20
207.9116096398
 30
0.0
 11
-62.5463918755
 21
198.371811379
 31
0.0
  0
ARC
  5
AC
330
1F
100
AcDbEntity
  8
0
  6
Continuous
 62
     7
370
    25
100
AcDbCircle
 10
-60.7856939596
 20
209.4151386373
 30
0.0
 40
4.999999999999996
100
AcDbArc
 50
106.1861152788
 51
197.5
  0
ARC
  5
AD
330
1F
100
AcDbEntity
  8
0
  6
Continuous
 62
     7
370
    25
100
AcDbCircle
 10
0.0
 20
0.0
 30
0.0
 40
223.0587097105432
100
AcDbArc
 50
73.8138847212
 51
106.1861152788
  0
ARC
  5
AE
330
1F
100
AcDbEntity
  8
0
  6
Continuous
 62
     7
370
    25
100
AcDbCircle
 10
60.7856939596
 20
209.4151386373
 30
0.0
 40
4.99999999999998
100
AcDbArc
 50
342.5
 51
73.8138847212
  0
LINE
  5
AF
330
1F
100
AcDbEntity
  8
0
  6
Continuous
 62
     7
370
    25
100
AcDbLine
 10
65.5542787133
 20
207.9116096398
 30
0.0
 11
62.5463918755
 21
198.371811379
 31
0.0
  0
ARC
  5
B0
330
1F
100
AcDbEntity
  8
0
  6
Continuous
 62
     7
370
    25
100
AcDbCircle
 10
57.7778071218
 20
199.8753403765
 30
0.0
 40
5.000000000000019
100
AcDbArc
 50
253.8770463143
 51
342.5
  0
ARC
  5
B1
330
1F
100
AcDbEntity
  8
0
  6
Continuous
 62
     7
370
    25
100
AcDbCircle
 10
0.0
 20
0.0
 30
0.0
 40
203.0587097105432
100
AcDbArc
 50
73.8770463143
 51
106.1229536857
  0
CIRCLE
  5
B2
330
1F
100
AcDbEntity
  8
0
  6
Continuous
 62
     7
370
    25
100
AcDbCircle
 10
0.0
 20
0.0
 30
0.0
 40
250.0
  0
ARC
  5
B3
330
1F
100
AcDbEntity
  8
0
  6
Continuous
 62
     7
370
    25
100
AcDbCircle
 10
90.025300696
 20
145.6157857749
 30
0.0
 40
90.00000000000016
100
AcDbArc
 50
155.0654350265
 51
159.6524203427
  0
ARC
  5
B4
330
1F
100
AcDbEntity
  8
0
  6
Continuous
 62
     7
370
    25
100
AcDbCircle
 10
0.0
 20
0.0
 30
0.0
 40
183.7510000000002
100
AcDbArc
 50
86.62457131
 51
87.37542869
  0
ARC
  5
B5
330
1F
100
AcDbEntity
  8
0
  6
Continuous
 62
     7
370
    25
100
AcDbCircle
 10
-74.3111383647
 20
154.2282936014
 30
0.0
 40
90.00000000000016
100
AcDbArc
 50
14.3475796573
 51
18.9345649735
  0
ARC
  5
B6
330
1F
100
AcDbEntity
  8
0
  6
Continuous
 62
     7
370
    25
100
AcDbCircle
 10
0.0
 20
0.0
 30
0.0
 40
177.0000000000002
100
AcDbArc
 50
85.1735884456
 51
85.8264115544
  0
ARC
  5
B7
330
1F
100
AcDbEntity
  8
0
  6
Continuous
 62
     7
370
    25
100
AcDbCircle
 10
97.5228655428
 20
140.7046642033
 30
0.0
 40
90.00000000000016
100
AcDbArc
 50
152.0654350265
 51
156.6524203427
  0
ARC
  5
B8
330
1F
100
AcDbEntity
  8
0
  6
Continuous
 62
     7
370
    25
100
AcDbCircle
 10
0.0
 20
0.0
 30
0.0
 40
183.7510000000002
100
AcDbArc
 50
83.62457131
 51
84.37542869
  0
ARC
  5
B9
330
1F
100
AcDbEntity
  8
0
  6
Continuous
 62
     7
370
    25
100
AcDbCircle
 10
-66.1376123069
 20
157.9060735709
 30
0.0
 40
90.00000000000014
100
AcDbArc
 50
11.3475796573
 51
15.9345649735
  0
ARC
  5
BA
330
1F
100
AcDbEntity
  8
0
  6
Continuous
 62
     7
370
    25
100
AcDbCircle
 10
0.0
 20
0.0
 30
0.0
 40
177.0000000000002
100
AcDbArc
 50
82.1735884456
 51
82.8264115544
  0
ARC
  5
BB
330
1F
100
AcDbEntity
  8
0
  6
Continuous
 62
     7
370
    25
100
AcDbCircle
 10
104.7531269938
 20
135.4078809275
 30
0.0
 40
90.00000000000014
100
AcDbArc
 50
149.0654350265
 51
153.6524203427
  0
ARC
  5
BC
330
1F
100
AcDbEntity
  8
0
  6
Continuous
 62
     7
370
    25
100
AcDbCircle
 10
0.0
 20
0.0
 30
0.0
 40
183.7510000000002
100
AcDbArc
 50
80.62457131
 51
81.37542869
  0
ARC
  5
BD
330
1F
100
AcDbEntity
  8
0
  6
Continuous
 62
     7
370
    25
100
AcDbCircle
 10
-57.7828076509
 20
161.1510439688
 30
0.0
 40
90.00000000000014
100
AcDbArc
 50
8.3475796573
 51
12.9345649735
  0
ARC
  5
BE
330
1F
100
AcDbEntity
  8
0
  6
Continuous
 62
     7
370
    25
100
AcDbCircle
 10
0.0
 20
0.0
 30
0.0
 40
177.0000000000002
100
AcDbArc
 50
79.1735884456
 51
79.8264115544
  0
ARC
  5
BF
330
1F
100
AcDbEntity
  8
0
  6
Continuous
 62
     7
370
    25
100
AcDbCircle
 10
111.6962674051
 20
129.739954062
 30
0.0
 40
90.00000000000014
100
AcDbArc
 50
146.0654350265
 51
150.6524203427
  0
ARC
  5
C0
330
1F
100
AcDbEntity
  8
0
  6
Continuous
 62
     7
370
    25
100
AcDbCircle
 10
0.0
 20
0.0
 30
0.0
 40
183.7510000000002
100
AcDbArc
 50
77.62457131
 51
78.37542869
  0
ARC
  5
C1
330
1F
100
AcDbEntity
  8
0
  6
Continuous
 62
     7
370
    25
100
AcDbCircle
 10
-49.2696243356
 20
163.9543105566
 30
0.0
 40
90.00000000000014
100
AcDbArc
 50
5.3475796573
 51
9.9345649735
  0
ARC
  5
C2
330
1F
100
AcDbEntity
  8
0
  6
Continuous
 62
     7
370
    25
100
AcDbCircle
 10
0.0
 20
0.0
 30
0.0
 40
177.0000000000002
100
AcDbArc
 50
76.1735884456
 51
76.8264115544
  0
ARC
  5
C3
330
1F
100
AcDbEntity
  8
0
  6
Continuous
 62
     7
370
    25
100
AcDbCircle
 10
118.3332561113
 20
123.7164190006
 30
0.0
 40
90.00000000000014
100
AcDbArc
 50
143.0654350265
 51
147.6524203427
  0
ARC
  5
C4
330
1F
100
AcDbEntity
  8
0
  6
Continuous
 62
     7
370
    25
100
AcDbCircle
 10
0.0
 20
0.0
 30
0.0
 40
183.7510000000002
100
AcDbArc
 50
74.62457131
 51
75.37542869
  0
ARC
  5
C5
330
1F
100
AcDbEntity
  8
0
  6
Continuous
 62
     7
370
    25
100
AcDbCircle
 10
-40.6213964046
 20
166.3081897754
 30
0.0
 40
90.00000000000014
100
AcDbArc
 50
2.3475796573
 51
6.9345649735
  0
ARC
  5
C6
330
1F
100
AcDbEntity
  8
0
  6
Continuous
 62
     7
370
    25
100
AcDbCircle
 10
0.0
 20
0.0
 30
0.0
 40
177.0000000000003
100
AcDbArc
 50
73.1735884456
 51
73.8264115544
  0
ARC
  5
C7
330
1F
100
AcDbEntity
  8
0
  6
Continuous
 62
     7
370
    25
100
AcDbCircle
 10
124.6459015878
 20
117.3537858342
 30
0.0
 40
90.00000000000016
100
AcDbArc
 50
140.0654350265
 51
144.6524203427
  0
ARC
  5
C8
330
1F
100
AcDbEntity
  8
0
  6
Continuous
 62
     7
370
    25
100
AcDbCircle
 10
0.0
 20
0.0
 30
0.0
 40
183.7510000000002
100
AcDbArc
 50
71.62457131
 51
72.37542869
  0
ARC
  5
C9
330
1F
100
AcDbEntity
  8
0
  6
Continuous
 62
     7
370
    25
100
AcDbCircle
 10
-31.8618280497
 20
168.2062298061
 30
0.0
 40
90.00000000000014
100
AcDbArc
 50
359.3475796573
 51
3.9345649735
  0
ARC
  5
CA
330
1F
100
AcDbEntity
  8
0
  6
Continuous
 62
     7
370
    25
100
AcDbCircle
 10
0.0
 20
0.0
 30
0.0
 40
177.0000000000002
100
AcDbArc
 50
70.1735884456
 51
70.8264115544
  0
ARC
  5
CB
330
1F
100
AcDbEntity
  8
0
  6
Continuous
 62
     7
370
    25
100
AcDbCircle
 10
130.6169013121
 20
110.6694940979
 30
0.0
 40
90.00000000000013
100
AcDbArc
 50
137.0654350265
 51
141.6524203427
  0
ARC
  5
CC
330
1F
100
AcDbEntity
  8
0
  6
Continuous
 62
     7
370
    25
100
AcDbCircle
 10
0.0
 20
0.0
 30
0.0
 40
183.7510000000002
100
AcDbArc
 50
68.62457131
 51
69.37542869
  0
ARC
  5
CD
330
1F
100
AcDbEntity
  8
0
  6
Continuous
 62
     7
370
    25
100
AcDbCircle
 10
-23.0149286388
 20
169.6432282527
 30
0.0
 40
90.00000000000016
100
AcDbArc
 50
356.3475796573
 51
0.9345649735
  0
ARC
  5
CE
330
1F
100
AcDbEntity
  8
0
  6
Continuous
 62
     7
370
    25
100
AcDbCircle
 10
0.0
 20
0.0
 30
0.0
 40
177.0000000000002
100
AcDbArc
 50
67.1735884456
 51
67.8264115544
  0
ARC
  5
CF
330
1F
100
AcDbEntity
  8
0
  6
Continuous
 62
     7
370
    25
100
AcDbCircle
 10
136.2298891889
 20
103.6818649709
 30
0.0
 40
90.00000000000014
100
AcDbArc
 50
134.0654350265
 51
138.6524203427
  0
ARC
  5
D0
330
1F
100
AcDbEntity
  8
0
  6
Continuous
 62
     7
370
    25
100
AcDbCircle
 10
0.0
 20
0.0
 30
0.0
 40
183.7510000000003
100
AcDbArc
 50
65.62457131
 51
66.37542869
  0
ARC
  5
D1
330
1F
100
AcDbEntity
  8
0
  6
Continuous
 62
     7
370
    25
100
AcDbCircle
 10
-14.1049469082
 20
170.6152464024
 30
0.0
 40
90.00000000000017
100
AcDbArc
 50
353.3475796573
 51
357.9345649735
  0
ARC
  5
D2
330
1F
100
AcDbEntity
  8
0
  6
Continuous
 62
     7
370
    25
100
AcDbCircle
 10
0.0
 20
0.0
 30
0.0
 40
177.0000000000002
100
AcDbArc
 50
64.1735884456
 51
64.8264115544
  0
ARC
  5
D3
330
1F
100
AcDbEntity
  8
0
  6
Continuous
 62
     7
370
    25
100
AcDbCircle
 10
141.4694804087
 20
96.4100510588
 30
0.0
 40
90.00000000000016
100
AcDbArc
 50
131.0654350265
 51
135.6524203427
  0
ARC
  5
D4
330
1F
100
AcDbEntity
  8
0
  6
Continuous
 62
     7
370
    25
100
AcDbCircle
 10
0.0
 20
0.0
 30
0.0
 40
183.7510000000002
100
AcDbArc
 50
62.62457131
 51
63.37542869
  0
ARC
  5
D5
330
1F
100
AcDbEntity
  8
0
  6
Continuous
 62
     7
370
    25
100
AcDbCircle
 10
-5.1563044986
 20
171.1196200211
 30
0.0
 40
90.00000000000016
100
AcDbArc
 50
350.3475796573
 51
354.9345649735
  0
ARC
  5
D6
330
1F
100
AcDbEntity
  8
0
  6
Continuous
 62
     7
370
    25
100
AcDbCircle
 10
0.0
 20
0.0
 30
0.0
 40
177.0000000000002
100
AcDbArc
 50
61.1735884456
 51
61.8264115544
  0
ARC
  5
D7
330
1F
100
AcDbEntity
  8
0
  6
Continuous
 62
     7
370
    25
100
AcDbCircle
 10
146.3213136161
 20
88.8739838981
 30
0.0
 40
90.00000000000014
100
AcDbArc
 50
128.0654350265
 51
132.6524203427
  0
ARC
  5
D8
330
1F
100
AcDbEntity
  8
0
  6
Continuous
 62
     7
370
    25
100
AcDbCircle
 10
0.0
 20
0.0
 30
0.0
 40
183.7510000000002
100
AcDbArc
 50
59.62457131
 51
60.37542869
  0
ARC
  5
D9
330
1F
100
AcDbEntity
  8
0
  6
Continuous
 62
     7
370
    25
100
AcDbCircle
 10
3.8064709832
 20
171.1549666557
 30
0.0
 40
90.00000000000013
100
AcDbArc
 50
347.3475796573
 51
351.9345649735
  0
ARC
  5
DA
330
1F
100
AcDbEntity
  8
0
  6
Continuous
 62
     7
370
    25
100
AcDbCircle
 10
0.0
 20
0.0
 30
0.0
 40
177.0000000000002
100
AcDbArc
 50
58.1735884456
 51
58.8264115544
  0
ARC
  5
DB
330
1F
100
AcDbEntity
  8
0
  6
Continuous
 62
     7
370
    25
100
AcDbCircle
 10
150.7720902735
 20
81.0943193251
 30
0.0
 40
90.00000000000014
100
AcDbArc
 50
125.0654350265
 51
129.6524203427
  0
ARC
  5
DC
330
1F
100
AcDbEntity
  8
0
  6
Continuous
 62
     7
370
    25
100
AcDbCircle
 10
0.0
 20
0.0
 30
0.0
 40
183.7510000000002
100
AcDbArc
 50
56.62457131
 51
57.37542869
  0
ARC
  5
DD
330
1F
100
AcDbEntity
  8
0
  6
Continuous
 62
     7
370
    25
100
AcDbCircle
 10
12.7588131927
 20
170.7211894235
 30
0.0
 40
90.00000000000014
100
AcDbArc
 50
344.3475796573
 51
348.9345649735
  0
ARC
  5
DE
330
1F
100
AcDbEntity
  8
0
  6
Continuous
 62
     7
370
    25
100
AcDbCircle
 10
0.0
 20
0.0
 30
0.0
 40
177.0000000000003
100
AcDbArc
 50
55.1735884456
 51
55.8264115544
  0
ARC
  5
DF
330
1F
100
AcDbEntity
  8
0
  6
Continuous
 62
     7
370
    25
100
AcDbCircle
 10
154.8096111116
 20
73.0923808597
 30
0.0
 40
90.00000000000014
100
AcDbArc
 50
122.0654350265
 51
126.6524203427
  0
ARC
  5
E0
330
1F
100
AcDbEntity
  8
0
  6
Continuous
 62
     7
370
    25
100
AcDbCircle
 10
0.0
 20
0.0
 30
0.0
 40
183.7510000000002
100
AcDbArc
 50
53.62457131
 51
54.37542869
  0
ARC
  5
E1
330
1F
100
AcDbEntity
  8
0
  6
Continuous
 62
     7
370
    25
100
AcDbCircle
 10
21.6761843821
 20
169.8194772777
 30
0.0
 40
90.00000000000014
100
AcDbArc
 50
341.3475796573
 51
345.9345649735
  0
ARC
  5
E2
330
1F
100
AcDbEntity
  8
0
  6
Continuous
 62
     7
370
    25
100
AcDbCircle
 10
0.0
 20
0.0
 30
0.0
 40
177.0000000000003
100
AcDbArc
 50
52.1735884456
 51
52.8264115544
  0
ARC
  5
E3
330
1F
100
AcDbEntity
  8
0
  6
Continuous
 62
     7
370
    25
100
AcDbCircle
 10
158.4228095662
 20
64.8901012589
 30
0.0
 40
90.00000000000016
100
AcDbArc
 50
119.0654350265
 51
123.6524203427
  0
ARC
  5
E4
330
1F
100
AcDbEntity
  8
0
  6
Continuous
 62
     7
370
    25
100
AcDbCircle
 10
0.0
 20
0.0
 30
0.0
 40
183.7510000000002
100
AcDbArc
 50
50.62457131
 51
51.37542869
  0
ARC
  5
E5
330
1F
100
AcDbEntity
  8
0
  6
Continuous
 62
     7
370
    25
100
AcDbCircle
 10
30.5341426567
 20
168.4523017488
 30
0.0
 40
90.00000000000017
100
AcDbArc
 50
338.3475796573
 51
342.9345649735
  0
ARC
  5
E6
330
1F
100
AcDbEntity
  8
0
  6
Continuous
 62
     7
370
    25
100
AcDbCircle
 10
0.0
 20
0.0
 30
0.0
 40
177.0000000000002
100
AcDbArc
 50
49.1735884456
 51
49.8264115544
  0
ARC
  5
E7
330
1F
100
AcDbEntity
  8
0
  6
Continuous
 62
     7
370
    25
100
AcDbCircle
 10
161.6017821117
 20
56.509962401
 30
0.0
 40
90.00000000000014
100
AcDbArc
 50
116.0654350265
 51
120.6524203427
  0
ARC
  5
E8
330
1F
100
AcDbEntity
  8
0
  6
Continuous
 62
     7
370
    25
100
AcDbCircle
 10
0.0
 20
0.0
 30
0.0
 40
183.7510000000002
100
AcDbArc
 50
47.62457131
 51
48.37542869
  0
ARC
  5
E9
330
1F
100
AcDbEntity
  8
0
  6
Continuous
 62
     7
370
    25
100
AcDbCircle
 10
39.3084089688
 20
166.6234101697
 30
0.0
 40
90.00000000000014
100
AcDbArc
 50
335.3475796573
 51
339.9345649735
  0
ARC
  5
EA
330
1F
100
AcDbEntity
  8
0
  6
Continuous
 62
     7
370
    25
100
AcDbCircle
 10
0.0
 20
0.0
 30
0.0
 40
177.0000000000002
100
AcDbArc
 50
46.1735884456
 51
46.8264115544
  0
ARC
  5
EB
330
1F
100
AcDbEntity
  8
0
  6
Continuous
 62
     7
370
    25
100
AcDbCircle
 10
164.3378154053
 20
47.9749336641
 30
0.0
 40
90.00000000000013
100
AcDbArc
 50
113.0654350265
 51
117.6524203427
  0
ARC
  5
EC
330
1F
100
AcDbEntity
  8
0
  6
Continuous
 62
     7
370
    25
100
AcDbCircle
 10
0.0
 20
0.0
 30
0.0
 40
183.7510000000002
100
AcDbArc
 50
44.62457131
 51
45.37542869
  0
ARC
  5
ED
330
1F
100
AcDbEntity
  8
0
  6
Continuous
 62
     7
370
    25
100
AcDbCircle
 10
47.9749336641
 20
164.3378154053
 30
0.0
 40
90.00000000000014
100
AcDbArc
 50
332.3475796573
 51
336.9345649735
  0
ARC
  5
EE
330
1F
100
AcDbEntity
  8
0
  6
Continuous
 62
     7
370
    25
100
AcDbCircle
 10
0.0
 20
0.0
 30
0.0
 40
177.0000000000002
100
AcDbArc
 50
43.1735884456
 51
43.8264115544
  0
ARC
  5
EF
330
1F
100
AcDbEntity
  8
0
  6
Continuous
 62
     7
370
    25
100
AcDbCircle
 10
166.6234101697
 20
39.3084089688
 30
0.0
 40
90.00000000000014
100
AcDbArc
 50
110.0654350265
 51
114.6524203427
  0
ARC
  5
F0
330
1F
100
AcDbEntity
  8
0
  6
Continuous
 62
     7
370
    25
100
AcDbCircle
 10
0.0
 20
0.0
 30
0.0
 40
183.7510000000002
100
AcDbArc
 50
41.62457131
 51
42.37542869
  0
ARC
  5
F1
330
1F
100
AcDbEntity
  8
0
  6
Continuous
 62
     7
370
    25
100
AcDbCircle
 10
56.509962401
 20
161.6017821117
 30
0.0
 40
90.00000000000013
100
AcDbArc
 50
329.3475796573
 51
333.9345649735
  0
ARC
  5
F2
330
1F
100
AcDbEntity
  8
0
  6
Continuous
 62
     7
370
    25
100
AcDbCircle
 10
0.0
 20
0.0
 30
0.0
 40
177.0000000000002
100
AcDbArc
 50
40.1735884456
 51
40.8264115544
  0
ARC
  5
F3
330
1F
100
AcDbEntity
  8
0
  6
Continuous
 62
     7
370
    25
100
AcDbCircle
 10
168.4523017488
 20
30.5341426567
 30
0.0
 40
90.00000000000013
100
AcDbArc
 50
107.0654350265
 51
111.6524203427
  0
ARC
  5
F4
330
1F
100
AcDbEntity
  8
0
  6
Continuous
 62
     7
370
    25
100
AcDbCircle
 10
0.0
 20
0.0
 30
0.0
 40
183.7510000000002
100
AcDbArc
 50
38.62457131
 51
39.37542869
  0
ARC
  5
F5
330
1F
100
AcDbEntity
  8
0
  6
Continuous
 62
     7
370
    25
100
AcDbCircle
 10
64.8901012589
 20
158.4228095662
 30
0.0
 40
90.00000000000014
100
AcDbArc
 50
326.3475796573
 51
330.9345649735
  0
ARC
  5
F6
330
1F
100
AcDbEntity
  8
0
  6
Continuous
 62
     7
370
    25
100
AcDbCircle
 10
0.0
 20
0.0
 30
0.0
 40
177.0000000000003
100
AcDbArc
 50
37.1735884456
 51
37.8264115544
  0
ARC
  5
F7
330
1F
100
AcDbEntity
  8
0
  6
Continuous
 62
     7
370
    25
100
AcDbCircle
 10
169.8194772777
 20
21.6761843821
 30
0.0
 40
90.00000000000014
100
AcDbArc
 50
104.0654350265
 51
108.6524203427
  0
ARC
  5
F8
330
1F
100
AcDbEntity
  8
0
  6
Continuous
 62
     7
370
    25
100
AcDbCircle
 10
0.0
 20
0.0
 30
0.0
 40
183.7510000000002
100
AcDbArc
 50
35.62457131
 51
36.37542869
  0
ARC
  5
F9
330
1F
100
AcDbEntity
  8
0
  6
Continuous
 62
     7
370
    25
100
AcDbCircle
 10
73.0923808597
 20
154.8096111116
 30
0.0
 40
90.00000000000014
100
AcDbArc
 50
323.3475796573
 51
327.9345649735
  0
ARC
  5
FA
330
1F
100
AcDbEntity
  8
0
  6
Continuous
 62
     7
370
    25
100
AcDbCircle
 10
0.0
 20
0.0
 30
0.0
 40
177.0000000000002
100
AcDbArc
 50
34.1735884456
 51
34.8264115544
  0
ARC
  5
FB
330
1F
100
AcDbEntity
  8
0
  6
Continuous
 62
     7
370
    25
100
AcDbCircle
 10
170.7211894235
 20
12.7588131927
 30
0.0
 40
90.00000000000014
100
AcDbArc
 50
101.0654350265
 51
105.6524203427
  0
ARC
  5
FC
330
1F
100
AcDbEntity
  8
0
  6
Continuous
 62
     7
370
    25
100
AcDbCircle
 10
0.0
 20
0.0
 30
0.0
 40
183.7510000000002
100
AcDbArc
 50
32.62457131
 51
33.37542869
  0
ARC
  5
FD
330
1F
100
AcDbEntity
  8
0
  6
Continuous
 62
     7
370
    25
100
AcDbCircle
 10
81.0943193251
 20
150.7720902735
 30
0.0
 40
90.00000000000013
100
AcDbArc
 50
320.3475796573
 51
324.9345649735
  0
ARC
  5
FE
330
1F
100
AcDbEntity
  8
0
  6
Continuous
 62
     7
370
    25
100
AcDbCircle
 10
0.0
 20
0.0
 30
0.0
 40
177.0000000000002
100
AcDbArc
 50
31.1735884456
 51
31.8264115544
  0
ARC
  5
FF
330
1F
100
AcDbEntity
  8
0
  6
Continuous
 62
     7
370
    25
100
AcDbCircle
 10
171.1549666557
 20
3.8064709832
 30
0.0
 40
90.00000000000014
100
AcDbArc
 50
98.0654350265
 51
102.6524203427
  0
ARC
  5
100
330
1F
100
AcDbEntity
  8
0
  6
Continuous
 62
     7
370
    25
100
AcDbCircle
 10
0.0
 20
0.0
 30
0.0
 40
183.7510000000002
100
AcDbArc
 50
29.62457131
 51
30.37542869
  0
ARC
  5
101
330
1F
100
AcDbEntity
  8
0
  6
Continuous
 62
     7
370
    25
100
AcDbCircle
 10
88.8739838981
 20
146.3213136161
 30
0.0
 40
90.00000000000014
100
AcDbArc
 50
317.3475796573
 51
321.9345649735
  0
ARC
  5
102
330
1F
100
AcDbEntity
  8
0
  6
Continuous
 62
     7
370
    25
100
AcDbCircle
 10
0.0
 20
0.0
 30
0.0
 40
177.0000000000002
100
AcDbArc
 50
28.1735884456
 51
28.8264115544
  0
ARC
  5
103
330
1F
100
AcDbEntity
  8
0
  6
Continuous
 62
     7
370
    25
100
AcDbCircle
 10
171.1196200211
 20
-5.1563044986
 30
0.0
 40
90.00000000000014
100
AcDbArc
 50
95.0654350265
 51
99.6524203427
  0
ARC
  5
104
330
1F
100
AcDbEntity
  8
0
  6
Continuous
 62
     7
370
    25
100
AcDbCircle
 10
0.0
 20
0.0
 30
0.0
 40
183.7510000000002
100
AcDbArc
 50
26.62457131
 51
27.37542869
  0
ARC
  5
105
330
1F
100
AcDbEntity
  8
0
  6
Continuous
 62
     7
370
    25
100
AcDbCircle
 10
96.4100510588
 20
141.4694804087
 30
0.0
 40
90.00000000000016
100
AcDbArc
 50
314.3475796573
 51
318.9345649735
  0
ARC
  5
106
330
1F
100
AcDbEntity
  8
0
  6
Continuous
 62
     7
370
    25
100
AcDbCircle
 10
0.0
 20
0.0
 30
0.0
 40
177.0000000000002
100
AcDbArc
 50
25.1735884456
 51
25.8264115544
  0
ARC
  5
107
330
1F
100
AcDbEntity
  8
0
  6
Continuous
 62
     7
370
    25
100
AcDbCircle
 10
170.6152464024
 20
-14.1049469082
 30
0.0
 40
90.00000000000013
100
AcDbArc
 50
92.0654350265
 51
96.6524203427
  0
ARC
  5
108
330
1F
100
AcDbEntity
  8
0
  6
Continuous
 62
     7
370
    25
100
AcDbCircle
 10
0.0
 20
0.0
 30
0.0
 40
183.7510000000002
100
AcDbArc
 50
23.62457131
 51
24.37542869
  0
ARC
  5
109
330
1F
100
AcDbEntity
  8
0
  6
Continuous
 62
     7
370
    25
100
AcDbCircle
 10
103.6818649709
 20
136.2298891889
 30
0.0
 40
90.00000000000014
100
AcDbArc
 50
311.3475796573
 51
315.9345649735
  0
ARC
  5
10A
330
1F
100
AcDbEntity
  8
0
  6
Continuous
 62
     7
370
    25
100
AcDbCircle
 10
0.0
 20
0.0
 30
0.0
 40
177.0000000000002
100
AcDbArc
 50
22.1735884456
 51
22.8264115544
  0
ARC
  5
10B
330
1F
100
AcDbEntity
  8
0
  6
Continuous
 62
     7
370
    25
100
AcDbCircle
 10
169.6432282527
 20
-23.0149286388
 30
0.0
 40
90.00000000000014
100
AcDbArc
 50
89.0654350265
 51
93.6524203427
  0
ARC
  5
10C
330
1F
100
AcDbEntity
  8
0
  6
Continuous
 62
     7
370
    25
100
AcDbCircle
 10
0.0
 20
0.0
 30
0.0
 40
183.7510000000002
100
AcDbArc
 50
20.62457131
 51
21.37542869
  0
ARC
  5
10D
330
1F
100
AcDbEntity
  8
0
  6
Continuous
 62
     7
370
    25
100
AcDbCircle
 10
110.6694940979
 20
130.6169013121
 30
0.0
 40
90.00000000000014
100
AcDbArc
 50
308.3475796573
 51
312.9345649735
  0
ARC
  5
10E
330
1F
100
AcDbEntity
  8
0
  6
Continuous
 62
     7
370
    25
100
AcDbCircle
 10
0.0
 20
0.0
 30
0.0
 40
177.0000000000002
100
AcDbArc
 50
19.1735884456
 51
19.8264115544
  0
ARC
  5
10F
330
1F
100
AcDbEntity
  8
0
  6
Continuous
 62
     7
370
    25
100
AcDbCircle
 10
168.2062298061
 20
-31.8618280497
 30
0.0
 40
90.00000000000013
100
AcDbArc
 50
86.0654350265
 51
90.6524203427
  0
ARC
  5
110
330
1F
100
AcDbEntity
  8
0
  6
Continuous
 62
     7
370
    25
100
AcDbCircle
 10
0.0
 20
0.0
 30
0.0
 40
183.7510000000002
100
AcDbArc
 50
17.62457131
 51
18.37542869
  0
ARC
  5
111
330
1F
100
AcDbEntity
  8
0
  6
Continuous
 62
     7
370
    25
100
AcDbCircle
 10
117.3537858342
 20
124.6459015878
 30
0.0
 40
90.00000000000016
100
AcDbArc
 50
305.3475796573
 51
309.9345649735
  0
ARC
  5
112
330
1F
100
AcDbEntity
  8
0
  6
Continuous
 62
     7
370
    25
100
AcDbCircle
 10
0.0
 20
0.0
 30
0.0
 40
177.0000000000003
100
AcDbArc
 50
16.1735884456
 51
16.8264115544
  0
ARC
  5
113
330
1F
100
AcDbEntity
  8
0
  6
Continuous
 62
     7
370
    25
100
AcDbCircle
 10
166.3081897754
 20
-40.6213964046
 30
0.0
 40
90.00000000000013
100
AcDbArc
 50
83.0654350265
 51
87.6524203427
  0
ARC
  5
114
330
1F
100
AcDbEntity
  8
0
  6
Continuous
 62
     7
370
    25
100
AcDbCircle
 10
0.0
 20
0.0
 30
0.0
 40
183.7510000000002
100
AcDbArc
 50
14.62457131
 51
15.37542869
  0
ARC
  5
115
330
1F
100
AcDbEntity
  8
0
  6
Continuous
 62
     7
370
    25
100
AcDbCircle
 10
123.7164190006
 20
118.3332561113
 30
0.0
 40
90.00000000000014
100
AcDbArc
 50
302.3475796573
 51
306.9345649735
  0
ARC
  5
116
330
1F
100
AcDbEntity
  8
0
  6
Continuous
 62
     7
370
    25
100
AcDbCircle
 10
0.0
 20
0.0
 30
0.0
 40
177.0000000000002
100
AcDbArc
 50
13.1735884456
 51
13.8264115544
  0
ARC
  5
117
330
1F
100
AcDbEntity
  8
0
  6
Continuous
 62
     7
370
    25
100
AcDbCircle
 10
163.9543105566
 20
-49.2696243356
 30
0.0
 40
90.00000000000016
100
AcDbArc
 50
80.0654350265
 51
84.6524203427
  0
ARC
  5
118
330
1F
100
AcDbEntity
  8
0
  6
Continuous
 62
     7
370
    25
100
AcDbCircle
 10
0.0
 20
0.0
 30
0.0
 40
183.7510000000003
100
AcDbArc
 50
11.62457131
 51
12.37542869
  0
ARC
  5
119
330
1F
100
AcDbEntity
  8
0
  6
Continuous
 62
     7
370
    25
100
AcDbCircle
 10
129.739954062
 20
111.6962674051
 30
0.0
 40
90.00000000000016
100
AcDbArc
 50
299.3475796573
 51
303.9345649735
  0
ARC
  5
11A
330
1F
100
AcDbEntity
  8
0
  6
Continuous
 62
     7
370
    25
100
AcDbCircle
 10
0.0
 20
0.0
 30
0.0
 40
177.0000000000002
100
AcDbArc
 50
10.1735884456
 51
10.8264115544
  0
ARC
  5
11B
330
1F
100
AcDbEntity
  8
0
  6
Continuous
 62
     7
370
    25
100
AcDbCircle
 10
161.1510439688
 20
-57.7828076509
 30
0.0
 40
90.00000000000014
100
AcDbArc
 50
77.0654350265
 51
81.6524203427
  0
ARC
  5
11C
330
1F
100
AcDbEntity
  8
0
  6
Continuous
 62
     7
370
    25
100
AcDbCircle
 10
0.0
 20
0.0
 30
0.0
 40
183.7510000000002
100
AcDbArc
 50
8.62457131
 51
9.37542869
  0
ARC
  5
11D
330
1F
100
AcDbEntity
  8
0
  6
Continuous
 62
     7
370
    25
100
AcDbCircle
 10
135.4078809274
 20
104.7531269938
 30
0.0
 40
90.00000000000016
100
AcDbArc
 50
296.3475796573
 51
300.9345649735
  0
ARC
  5
11E
330
1F
100
AcDbEntity
  8
0
  6
Continuous
 62
     7
370
    25
100
AcDbCircle
 10
0.0
 20
0.0
 30
0.0
 40
177.0000000000002
100
AcDbArc
 50
7.1735884456
 51
7.8264115544
  0
ARC
  5
11F
330
1F
100
AcDbEntity
  8
0
  6
Continuous
 62
     7
370
    25
100
AcDbCircle
 10
157.9060735709
 20
-66.1376123069
 30
0.0
 40
90.00000000000013
100
AcDbArc
 50
74.0654350265
 51
78.6524203427
  0
ARC
  5
120
330
1F
100
AcDbEntity
  8
0
  6
Continuous
 62
     7
370
    25
100
AcDbCircle
 10
0.0
 20
0.0
 30
0.0
 40
183.7510000000002
100
AcDbArc
 50
5.62457131
 51
6.37542869
  0
ARC
  5
121
330
1F
100
AcDbEntity
  8
0
  6
Continuous
 62
     7
370
    25
100
AcDbCircle
 10
140.7046642033
 20
97.5228655428
 30
0.0
 40
90.00000000000013
100
AcDbArc
 50
293.3475796573
 51
297.9345649735
  0
ARC
  5
122
330
1F
100
AcDbEntity
  8
0
  6
Continuous
 62
     7
370
    25
100
AcDbCircle
 10
0.0
 20
0.0
 30
0.0
 40
177.0000000000002
100
AcDbArc
 50
4.1735884456
 51
4.8264115544
  0
ARC
  5
123
330
1F
100
AcDbEntity
  8
0
  6
Continuous
 62
     7
370
    25
100
AcDbCircle
 10
154.2282936014
 20
-74.3111383647
 30
0.0
 40
90.00000000000016
100
AcDbArc
 50
71.0654350265
 51
75.6524203427
  0
ARC
  5
124
330
1F
100
AcDbEntity
  8
0
  6
Continuous
 62
     7
370
    25
100
AcDbCircle
 10
0.0
 20
0.0
 30
0.0
 40
183.7510000000002
100
AcDbArc
 50
2.62457131
 51
3.37542869
  0
ARC
  5
125
330
1F
100
AcDbEntity
  8
0
  6
Continuous
 62
     7
370
    25
100
AcDbCircle
 10
145.6157857749
 20
90.025300696
 30
0.0
 40
90.00000000000014
100
AcDbArc
 50
290.3475796573
 51
294.9345649735
  0
ARC
  5
126
330
1F
100
AcDbEntity
  8
0
  6
Continuous
 62
     7
370
    25
100
AcDbCircle
 10
0.0
 20
0.0
 30
0.0
 40
177.0000000000002
100
AcDbArc
 50
1.1735884456
 51
1.8264115544
  0
ARC
  5
127
330
1F
100
AcDbEntity
  8
0
  6
Continuous
 62
     7
370
    25
100
AcDbCircle
 10
150.1277845993
 20
-82.2809827576
 30
0.0
 40
90.00000000000014
100
AcDbArc
 50
68.0654350265
 51
72.6524203427
  0
ARC
  5
128
330
1F
100
AcDbEntity
  8
0
  6
Continuous
 62
     7
370
    25
100
AcDbCircle
 10
0.0
 20
0.0
 30
0.0
 40
183.7510000000002
100
AcDbArc
 50
359.62457131
 51
0.37542869
  0
ARC
  5
129
330
1F
100
AcDbEntity
  8
0
  6
Continuous
 62
     7
370
    25
100
AcDbCircle
 10
150.1277845993
 20
82.2809827576
 30
0.0
 40
90.00000000000013
100
AcDbArc
 50
287.3475796573
 51
291.9345649735
  0
ARC
  5
12A
330
1F
100
AcDbEntity
  8
0
  6
Continuous
 62
     7
370
    25
100
AcDbCircle
 10
0.0
 20
0.0
 30
0.0
 40
177.0000000000002
100
AcDbArc
 50
358.1735884456
 51
358.8264115544
  0
ARC
  5
12B
330
1F
100
AcDbEntity
  8
0
  6
Continuous
 62
     7
370
    25
100
AcDbCircle
 10
145.6157857749
 20
-90.025300696
 30
0.0
 40
90.00000000000016
100
AcDbArc
 50
65.0654350265
 51
69.6524203427
  0
ARC
  5
12C
330
1F
100
AcDbEntity
  8
0
  6
Continuous
 62
     7
370
    25
100
AcDbCircle
 10
0.0
 20
0.0
 30
0.0
 40
183.7510000000003
100
AcDbArc
 50
356.62457131
 51
357.37542869
  0
ARC
  5
12D
330
1F
100
AcDbEntity
  8
0
  6
Continuous
 62
     7
370
    25
100
AcDbCircle
 10
154.2282936014
 20
74.3111383647
 30
0.0
 40
90.00000000000017
100
AcDbArc
 50
284.3475796573
 51
288.9345649735
  0
ARC
  5
12E
330
1F
100
AcDbEntity
  8
0
  6
Continuous
 62
     7
370
    25
100
AcDbCircle
 10
0.0
 20
0.0
 30
0.0
 40
177.0000000000002
100
AcDbArc
 50
355.1735884456
 51
355.8264115544
  0
ARC
  5
12F
330
1F
100
AcDbEntity
  8
0
  6
Continuous
 62
     7
370
    25
100
AcDbCircle
 10
140.7046642033
 20
-97.5228655428
 30
0.0
 40
90.00000000000016
100
AcDbArc
 50
62.0654350265
 51
66.6524203427
  0
ARC
  5
130
330
1F
100
AcDbEntity
  8
0
  6
Continuous
 62
     7
370
    25
100
AcDbCircle
 10
0.0
 20
0.0
 30
0.0
 40
183.7510000000002
100
AcDbArc
 50
353.62457131
 51
354.37542869
  0
ARC
  5
131
330
1F
100
AcDbEntity
  8
0
  6
Continuous
 62
     7
370
    25
100
AcDbCircle
 10
157.9060735709
 20
66.1376123069
 30
0.0
 40
90.00000000000016
100
AcDbArc
 50
281.3475796573
 51
285.9345649735
  0
ARC
  5
132
330
1F
100
AcDbEntity
  8
0
  6
Continuous
 62
     7
370
    25
100
AcDbCircle
 10
0.0
 20
0.0
 30
0.0
 40
177.0000000000003
100
AcDbArc
 50
352.1735884456
 51
352.8264115544
  0
ARC
  5
133
330
1F
100
AcDbEntity
  8
0
  6
Continuous
 62
     7
370
    25
100
AcDbCircle
 10
135.4078809275
 20
-104.7531269938
 30
0.0
 40
90.00000000000013
100
AcDbArc
 50
59.0654350265
 51
63.6524203427
  0
ARC
  5
134
330
1F
100
AcDbEntity
  8
0
  6
Continuous
 62
     7
370
    25
100
AcDbCircle
 10
0.0
 20
0.0
 30
0.0
 40
183.7510000000002
100
AcDbArc
 50
350.62457131
 51
351.37542869
  0
ARC
  5
135
330
1F
100
AcDbEntity
  8
0
  6
Continuous
 62
     7
370
    25
100
AcDbCircle
 10
161.1510439688
 20
57.7828076509
 30
0.0
 40
90.00000000000014
100
AcDbArc
 50
278.3475796573
 51
282.9345649735
  0
ARC
  5
136
330
1F
100
AcDbEntity
  8
0
  6
Continuous
 62
     7
370
    25
100
AcDbCircle
 10
0.0
 20
0.0
 30
0.0
 40
177.0000000000002
100
AcDbArc
 50
349.1735884456
 51
349.8264115544
  0
ARC
  5
137
330
1F
100
AcDbEntity
  8
0
  6
Continuous
 62
     7
370
    25
100
AcDbCircle
 10
129.739954062
 20
-111.6962674051
 30
0.0
 40
90.00000000000014
100
AcDbArc
 50
56.0654350265
 51
60.6524203427
  0
ARC
  5
138
330
1F
100
AcDbEntity
  8
0
  6
Continuous
 62
     7
370
    25
100
AcDbCircle
 10
0.0
 20
0.0
 30
0.0
 40
183.7510000000002
100
AcDbArc
 50
347.62457131
 51
348.37542869
  0
ARC
  5
139
330
1F
100
AcDbEntity
  8
0
  6
Continuous
 62
     7
370
    25
100
AcDbCircle
 10
163.9543105566
 20
49.2696243356
 30
0.0
 40
90.00000000000016
100
AcDbArc
 50
275.3475796573
 51
279.9345649735
  0
ARC
  5
13A
330
1F
100
AcDbEntity
  8
0
  6
Continuous
 62
     7
370
    25
100
AcDbCircle
 10
0.0
 20
0.0
 30
0.0
 40
177.0000000000003
100
AcDbArc
 50
346.1735884456
 51
346.8264115544
  0
ARC
  5
13B
330
1F
100
AcDbEntity
  8
0
  6
Continuous
 62
     7
370
    25
100
AcDbCircle
 10
123.7164190006
 20
-118.3332561113
 30
0.0
 40
90.00000000000014
100
AcDbArc
 50
53.0654350265
 51
57.6524203427
  0
ARC
  5
13C
330
1F
100
AcDbEntity
  8
0
  6
Continuous
 62
     7
370
    25
100
AcDbCircle
 10
0.0
 20
0.0
 30
0.0
 40
183.7510000000002
100
AcDbArc
 50
344.62457131
 51
345.37542869
  0
ARC
  5
13D
330
1F
100
AcDbEntity
  8
0
  6
Continuous
 62
     7
370
    25
100
AcDbCircle
 10
166.3081897754
 20
40.6213964046
 30
0.0
 40
90.00000000000014
100
AcDbArc
 50
272.3475796573
 51
276.9345649735
  0
ARC
  5
13E
330
1F
100
AcDbEntity
  8
0
  6
Continuous
 62
     7
370
    25
100
AcDbCircle
 10
0.0
 20
0.0
 30
0.0
 40
177.0000000000002
100
AcDbArc
 50
343.1735884456
 51
343.8264115544
  0
ARC
  5
13F
330
1F
100
AcDbEntity
  8
0
  6
Continuous
 62
     7
370
    25
100
AcDbCircle
 10
117.3537858342
 20
-124.6459015878
 30
0.0
 40
90.00000000000014
100
AcDbArc
 50
50.0654350265
 51
54.6524203427
  0
ARC
  5
140
330
1F
100
AcDbEntity
  8
0
  6
Continuous
 62
     7
370
    25
100
AcDbCircle
 10
0.0
 20
0.0
 30
0.0
 40
183.7510000000002
100
AcDbArc
 50
341.62457131
 51
342.37542869
  0
ARC
  5
141
330
1F
100
AcDbEntity
  8
0
  6
Continuous
 62
     7
370
    25
100
AcDbCircle
 10
168.2062298061
 20
31.8618280497
 30
0.0
 40
90.00000000000013
100
AcDbArc
 50
269.3475796573
 51
273.9345649735
  0
ARC
  5
142
330
1F
100
AcDbEntity
  8
0
  6
Continuous
 62
     7
370
    25
100
AcDbCircle
 10
0.0
 20
0.0
 30
0.0
 40
177.0000000000002
100
AcDbArc
 50
340.1735884456
 51
340.8264115544
  0
ARC
  5
143
330
1F
100
AcDbEntity
  8
0
  6
Continuous
 62
     7
370
    25
100
AcDbCircle
 10
110.6694940979
 20
-130.6169013121
 30
0.0
 40
90.00000000000014
100
AcDbArc
 50
47.0654350265
 51
51.6524203427
  0
ARC
  5
144
330
1F
100
AcDbEntity
  8
0
  6
Continuous
 62
     7
370
    25
100
AcDbCircle
 10
0.0
 20
0.0
 30
0.0
 40
183.7510000000002
100
AcDbArc
 50
338.62457131
 51
339.37542869
  0
ARC
  5
145
330
1F
100
AcDbEntity
  8
0
  6
Continuous
 62
     7
370
    25
100
AcDbCircle
 10
169.6432282527
 20
23.0149286388
 30
0.0
 40
90.00000000000014
100
AcDbArc
 50
266.3475796573
 51
270.9345649735
  0
ARC
  5
146
330
1F
100
AcDbEntity
  8
0
  6
Continuous
 62
     7
370
    25
100
AcDbCircle
 10
0.0
 20
0.0
 30
0.0
 40
177.0000000000002
100
AcDbArc
 50
337.1735884456
 51
337.8264115544
  0
ARC
  5
147
330
1F
100
AcDbEntity
  8
0
  6
Continuous
 62
     7
370
    25
100
AcDbCircle
 10
103.6818649709
 20
-136.2298891889
 30
0.0
 40
90.00000000000014
100
AcDbArc
 50
44.0654350265
 51
48.6524203427
  0
ARC
  5
148
330
1F
100
AcDbEntity
  8
0
  6
Continuous
 62
     7
370
    25
100
AcDbCircle
 10
0.0
 20
0.0
 30
0.0
 40
183.7510000000002
100
AcDbArc
 50
335.62457131
 51
336.37542869
  0
ARC
  5
149
330
1F
100
AcDbEntity
  8
0
  6
Continuous
 62
     7
370
    25
100
AcDbCircle
 10
170.6152464024
 20
14.1049469082
 30
0.0
 40
90.00000000000016
100
AcDbArc
 50
263.3475796573
 51
267.9345649735
  0
ARC
  5
14A
330
1F
100
AcDbEntity
  8
0
  6
Continuous
 62
     7
370
    25
100
AcDbCircle
 10
0.0
 20
0.0
 30
0.0
 40
177.0000000000002
100
AcDbArc
 50
334.1735884456
 51
334.8264115544
  0
ARC
  5
14B
330
1F
100
AcDbEntity
  8
0
  6
Continuous
 62
     7
370
    25
100
AcDbCircle
 10
96.4100510588
 20
-141.4694804087
 30
0.0
 40
90.00000000000013
100
AcDbArc
 50
41.0654350265
 51
45.6524203427
  0
ARC
  5
14C
330
1F
100
AcDbEntity
  8
0
  6
Continuous
 62
     7
370
    25
100
AcDbCircle
 10
0.0
 20
0.0
 30
0.0
 40
183.7510000000002
100
AcDbArc
 50
332.62457131
 51
333.37542869
  0
ARC
  5
14D
330
1F
100
AcDbEntity
  8
0
  6
Continuous
 62
     7
370
    25
100
AcDbCircle
 10
171.1196200211
 20
5.1563044986
 30
0.0
 40
90.00000000000016
100
AcDbArc
 50
260.3475796573
 51
264.9345649735
  0
ARC
  5
14E
330
1F
100
AcDbEntity
  8
0
  6
Continuous
 62
     7
370
    25
100
AcDbCircle
 10
0.0
 20
0.0
 30
0.0
 40
177.0000000000002
100
AcDbArc
 50
331.1735884456
 51
331.8264115544
  0
ARC
  5
14F
330
1F
100
AcDbEntity
  8
0
  6
Continuous
 62
     7
370
    25
100
AcDbCircle
 10
88.8739838981
 20
-146.3213136161
 30
0.0
 40
90.00000000000013
100
AcDbArc
 50
38.0654350265
 51
42.6524203427
  0
ARC
  5
150
330
1F
100
AcDbEntity
  8
0
  6
Continuous
 62
     7
370
    25
100
AcDbCircle
 10
0.0
 20
0.0
 30
0.0
 40
183.7510000000002
100
AcDbArc
 50
329.62457131
 51
330.37542869
  0
ARC
  5
151
330
1F
100
AcDbEntity
  8
0
  6
Continuous
 62
     7
370
    25
100
AcDbCircle
 10
171.1549666557
 20
-3.8064709832
 30
0.0
 40
90.00000000000013
100
AcDbArc
 50
257.3475796573
 51
261.9345649735
  0
ARC
  5
152
330
1F
100
AcDbEntity
  8
0
  6
Continuous
 62
     7
370
    25
100
AcDbCircle
 10
0.0
 20
0.0
 30
0.0
 40
177.0000000000002
100
AcDbArc
 50
328.1735884456
 51
328.8264115544
  0
ARC
  5
153
330
1F
100
AcDbEntity
  8
0
  6
Continuous
 62
     7
370
    25
100
AcDbCircle
 10
81.0943193251
 20
-150.7720902735
 30
0.0
 40
90.00000000000018
100
AcDbArc
 50
35.0654350265
 51
39.6524203427
  0
ARC
  5
154
330
1F
100
AcDbEntity
  8
0
  6
Continuous
 62
     7
370
    25
100
AcDbCircle
 10
0.0
 20
0.0
 30
0.0
 40
183.7510000000002
100
AcDbArc
 50
326.62457131
 51
327.37542869
  0
ARC
  5
155
330
1F
100
AcDbEntity
  8
0
  6
Continuous
 62
     7
370
    25
100
AcDbCircle
 10
170.7211894235
 20
-12.7588131927
 30
0.0
 40
90.00000000000013
100
AcDbArc
 50
254.3475796573
 51
258.9345649735
  0
ARC
  5
156
330
1F
100
AcDbEntity
  8
0
  6
Continuous
 62
     7
370
    25
100
AcDbCircle
 10
0.0
 20
0.0
 30
0.0
 40
177.0000000000002
100
AcDbArc
 50
325.1735884456
 51
325.8264115544
  0
ARC
  5
157
330
1F
100
AcDbEntity
  8
0
  6
Continuous
 62
     7
370
    25
100
AcDbCircle
 10
73.0923808597
 20
-154.8096111116
 30
0.0
 40
90.00000000000013
100
AcDbArc
 50
32.0654350265
 51
36.6524203427
  0
ARC
  5
158
330
1F
100
AcDbEntity
  8
0
  6
Continuous
 62
     7
370
    25
100
AcDbCircle
 10
0.0
 20
0.0
 30
0.0
 40
183.7510000000002
100
AcDbArc
 50
323.62457131
 51
324.37542869
  0
ARC
  5
159
330
1F
100
AcDbEntity
  8
0
  6
Continuous
 62
     7
370
    25
100
AcDbCircle
 10
169.8194772777
 20
-21.6761843821
 30
0.0
 40
90.00000000000013
100
AcDbArc
 50
251.3475796573
 51
255.9345649735
  0
ARC
  5
15A
330
1F
100
AcDbEntity
  8
0
  6
Continuous
 62
     7
370
    25
100
AcDbCircle
 10
0.0
 20
0.0
 30
0.0
 40
177.0000000000002
100
AcDbArc
 50
322.1735884456
 51
322.8264115544
  0
ARC
  5
15B
330
1F
100
AcDbEntity
  8
0
  6
Continuous
 62
     7
370
    25
100
AcDbCircle
 10
64.8901012589
 20
-158.4228095662
 30
0.0
 40
90.00000000000017
100
AcDbArc
 50
29.0654350265
 51
33.6524203427
  0
ARC
  5
15C
330
1F
100
AcDbEntity
  8
0
  6
Continuous
 62
     7
370
    25
100
AcDbCircle
 10
0.0
 20
0.0
 30
0.0
 40
183.7510000000002
100
AcDbArc
 50
320.62457131
 51
321.37542869
  0
ARC
  5
15D
330
1F
100
AcDbEntity
  8
0
  6
Continuous
 62
     7
370
    25
100
AcDbCircle
 10
168.4523017488
 20
-30.5341426567
 30
0.0
 40
90.00000000000014
100
AcDbArc
 50
248.3475796573
 51
252.9345649735
  0
ARC
  5
15E
330
1F
100
AcDbEntity
  8
0
  6
Continuous
 62
     7
370
    25
100
AcDbCircle
 10
0.0
 20
0.0
 30
0.0
 40
177.0000000000002
100
AcDbArc
 50
319.1735884456
 51
319.8264115544
  0
ARC
  5
15F
330
1F
100
AcDbEntity
  8
0
  6
Continuous
 62
     7
370
    25
100
AcDbCircle
 10
56.509962401
 20
-161.6017821117
 30
0.0
 40
90.00000000000017
100
AcDbArc
 50
26.0654350265
 51
30.6524203427
  0
ARC
  5
160
330
1F
100
AcDbEntity
  8
0
  6
Continuous
 62
     7
370
    25
100
AcDbCircle
 10
0.0
 20
0.0
 30
0.0
 40
183.7510000000002
100
AcDbArc
 50
317.62457131
 51
318.37542869
  0
ARC
  5
161
330
1F
100
AcDbEntity
  8
0
  6
Continuous
 62
     7
370
    25
100
AcDbCircle
 10
166.6234101697
 20
-39.3084089688
 30
0.0
 40
90.00000000000014
100
AcDbArc
 50
245.3475796573
 51
249.9345649735
  0
ARC
  5
162
330
1F
100
AcDbEntity
  8
0
  6
Continuous
 62
     7
370
    25
100
AcDbCircle
 10
0.0
 20
0.0
 30
0.0
 40
177.0000000000002
100
AcDbArc
 50
316.1735884456
 51
316.8264115544
  0
ARC
  5
163
330
1F
100
AcDbEntity
  8
0
  6
Continuous
 62
     7
370
    25
100
AcDbCircle
 10
47.9749336641
 20
-164.3378154053
 30
0.0
 40
90.00000000000014
100
AcDbArc
 50
23.0654350265
 51
27.6524203427
  0
ARC
  5
164
330
1F
100
AcDbEntity
  8
0
  6
Continuous
 62
     7
370
    25
100
AcDbCircle
 10
0.0
 20
0.0
 30
0.0
 40
183.7510000000002
100
AcDbArc
 50
314.62457131
 51
315.37542869
  0
ARC
  5
165
330
1F
100
AcDbEntity
  8
0
  6
Continuous
 62
     7
370
    25
100
AcDbCircle
 10
164.3378154053
 20
-47.9749336641
 30
0.0
 40
90.00000000000016
100
AcDbArc
 50
242.3475796573
 51
246.9345649735
  0
ARC
  5
166
330
1F
100
AcDbEntity
  8
0
  6
Continuous
 62
     7
370
    25
100
AcDbCircle
 10
0.0
 20
0.0
 30
0.0
 40
177.0000000000002
100
AcDbArc
 50
313.1735884456
 51
313.8264115544
  0
ARC
  5
167
330
1F
100
AcDbEntity
  8
0
  6
Continuous
 62
     7
370
    25
100
AcDbCircle
 10
39.3084089688
 20
-166.6234101697
 30
0.0
 40
90.00000000000014
100
AcDbArc
 50
20.0654350265
 51
24.6524203427
  0
ARC
  5
168
330
1F
100
AcDbEntity
  8
0
  6
Continuous
 62
     7
370
    25
100
AcDbCircle
 10
0.0
 20
0.0
 30
0.0
 40
183.7510000000002
100
AcDbArc
 50
311.62457131
 51
312.37542869
  0
ARC
  5
169
330
1F
100
AcDbEntity
  8
0
  6
Continuous
 62
     7
370
    25
100
AcDbCircle
 10
161.6017821117
 20
-56.509962401
 30
0.0
 40
90.00000000000013
100
AcDbArc
 50
239.3475796573
 51
243.9345649735
  0
ARC
  5
16A
330
1F
100
AcDbEntity
  8
0
  6
Continuous
 62
     7
370
    25
100
AcDbCircle
 10
0.0
 20
0.0
 30
0.0
 40
177.0000000000002
100
AcDbArc
 50
310.1735884456
 51
310.8264115544
  0
ARC
  5
16B
330
1F
100
AcDbEntity
  8
0
  6
Continuous
 62
     7
370
    25
100
AcDbCircle
 10
30.5341426567
 20
-168.4523017488
 30
0.0
 40
90.00000000000013
100
AcDbArc
 50
17.0654350265
 51
21.6524203427
  0
ARC
  5
16C
330
1F
100
AcDbEntity
  8
0
  6
Continuous
 62
     7
370
    25
100
AcDbCircle
 10
0.0
 20
0.0
 30
0.0
 40
183.7510000000002
100
AcDbArc
 50
308.62457131
 51
309.37542869
  0
ARC
  5
16D
330
1F
100
AcDbEntity
  8
0
  6
Continuous
 62
     7
370
    25
100
AcDbCircle
 10
158.4228095662
 20
-64.8901012589
 30
0.0
 40
90.00000000000016
100
AcDbArc
 50
236.3475796573
 51
240.9345649735
  0
ARC
  5
16E
330
1F
100
AcDbEntity
  8
0
  6
Continuous
 62
     7
370
    25
100
AcDbCircle
 10
0.0
 20
0.0
 30
0.0
 40
177.0000000000002
100
AcDbArc
 50
307.1735884456
 51
307.8264115544
  0
ARC
  5
16F
330
1F
100
AcDbEntity
  8
0
  6
Continuous
 62
     7
370
    25
100
AcDbCircle
 10
21.6761843821
 20
-169.8194772777
 30
0.0
 40
90.00000000000014
100
AcDbArc
 50
14.0654350265
 51
18.6524203427
  0
ARC
  5
170
330
1F
100
AcDbEntity
  8
0
  6
Continuous
 62
     7
370
    25
100
AcDbCircle
 10
0.0
 20
0.0
 30
0.0
 40
183.7510000000002
100
AcDbArc
 50
305.62457131
 51
306.37542869
  0
ARC
  5
171
330
1F
100
AcDbEntity
  8
0
  6
Continuous
 62
     7
370
    25
100
AcDbCircle
 10
154.8096111116
 20
-73.0923808597
 30
0.0
 40
90.00000000000013
100
AcDbArc
 50
233.3475796573
 51
237.9345649735
  0
ARC
  5
172
330
1F
100
AcDbEntity
  8
0
  6
Continuous
 62
     7
370
    25
100
AcDbCircle
 10
0.0
 20
0.0
 30
0.0
 40
177.0000000000002
100
AcDbArc
 50
304.1735884456
 51
304.8264115544
  0
ARC
  5
173
330
1F
100
AcDbEntity
  8
0
  6
Continuous
 62
     7
370
    25
100
AcDbCircle
 10
12.7588131927
 20
-170.7211894235
 30
0.0
 40
90.00000000000014
100
AcDbArc
 50
11.0654350265
 51
15.6524203427
  0
ARC
  5
174
330
1F
100
AcDbEntity
  8
0
  6
Continuous
 62
     7
370
    25
100
AcDbCircle
 10
0.0
 20
0.0
 30
0.0
 40
183.7510000000002
100
AcDbArc
 50
302.62457131
 51
303.37542869
  0
ARC
  5
175
330
1F
100
AcDbEntity
  8
0
  6
Continuous
 62
     7
370
    25
100
AcDbCircle
 10
150.7720902735
 20
-81.0943193251
 30
0.0
 40
90.00000000000013
100
AcDbArc
 50
230.3475796573
 51
234.9345649735
  0
ARC
  5
176
330
1F
100
AcDbEntity
  8
0
  6
Continuous
 62
     7
370
    25
100
AcDbCircle
 10
0.0
 20
0.0
 30
0.0
 40
177.0000000000002
100
AcDbArc
 50
301.1735884456
 51
301.8264115544
  0
ARC
  5
177
330
1F
100
AcDbEntity
  8
0
  6
Continuous
 62
     7
370
    25
100
AcDbCircle
 10
3.8064709832
 20
-171.1549666557
 30
0.0
 40
90.00000000000014
100
AcDbArc
 50
8.0654350265
 51
12.6524203427
  0
ARC
  5
178
330
1F
100
AcDbEntity
  8
0
  6
Continuous
 62
     7
370
    25
100
AcDbCircle
 10
0.0
 20
0.0
 30
0.0
 40
183.7510000000002
100
AcDbArc
 50
299.62457131
 51
300.37542869
  0
ARC
  5
179
330
1F
100
AcDbEntity
  8
0
  6
Continuous
 62
     7
370
    25
100
AcDbCircle
 10
146.3213136161
 20
-88.8739838981
 30
0.0
 40
90.00000000000014
100
AcDbArc
 50
227.3475796573
 51
231.9345649735
  0
ARC
  5
17A
330
1F
100
AcDbEntity
  8
0
  6
Continuous
 62
     7
370
    25
100
AcDbCircle
 10
0.0
 20
0.0
 30
0.0
 40
177.0000000000002
100
AcDbArc
 50
298.1735884456
 51
298.8264115544
  0
ARC
  5
17B
330
1F
100
AcDbEntity
  8
0
  6
Continuous
 62
     7
370
    25
100
AcDbCircle
 10
-5.1563044986
 20
-171.1196200211
 30
0.0
 40
90.00000000000014
100
AcDbArc
 50
5.0654350265
 51
9.6524203427
  0
ARC
  5
17C
330
1F
100
AcDbEntity
  8
0
  6
Continuous
 62
     7
370
    25
100
AcDbCircle
 10
0.0
 20
0.0
 30
0.0
 40
183.7510000000002
100
AcDbArc
 50
296.62457131
 51
297.37542869
  0
ARC
  5
17D
330
1F
100
AcDbEntity
  8
0
  6
Continuous
 62
     7
370
    25
100
AcDbCircle
 10
141.4694804087
 20
-96.4100510588
 30
0.0
 40
90.00000000000014
100
AcDbArc
 50
224.3475796573
 51
228.9345649735
  0
ARC
  5
17E
330
1F
100
AcDbEntity
  8
0
  6
Continuous
 62
     7
370
    25
100
AcDbCircle
 10
0.0
 20
0.0
 30
0.0
 40
177.0000000000002
100
AcDbArc
 50
295.1735884456
 51
295.8264115544
  0
ARC
  5
17F
330
1F
100
AcDbEntity
  8
0
  6
Continuous
 62
     7
370
    25
100
AcDbCircle
 10
-14.1049469082
 20
-170.6152464024
 30
0.0
 40
90.00000000000014
100
AcDbArc
 50
2.0654350265
 51
6.6524203427
  0
ARC
  5
180
330
1F
100
AcDbEntity
  8
0
  6
Continuous
 62
     7
370
    25
100
AcDbCircle
 10
0.0
 20
0.0
 30
0.0
 40
183.7510000000002
100
AcDbArc
 50
293.62457131
 51
294.37542869
  0
ARC
  5
181
330
1F
100
AcDbEntity
  8
0
  6
Continuous
 62
     7
370
    25
100
AcDbCircle
 10
136.2298891889
 20
-103.6818649709
 30
0.0
 40
90.00000000000016
100
AcDbArc
 50
221.3475796573
 51
225.9345649735
  0
ARC
  5
182
330
1F
100
AcDbEntity
  8
0
  6
Continuous
 62
     7
370
    25
100
AcDbCircle
 10
0.0
 20
0.0
 30
0.0
 40
177.0000000000003
100
AcDbArc
 50
292.1735884456
 51
292.8264115544
  0
ARC
  5
183
330
1F
100
AcDbEntity
  8
0
  6
Continuous
 62
     7
370
    25
100
AcDbCircle
 10
-23.0149286388
 20
-169.6432282527
 30
0.0
 40
90.00000000000016
100
AcDbArc
 50
359.0654350265
 51
3.6524203427
  0
ARC
  5
184
330
1F
100
AcDbEntity
  8
0
  6
Continuous
 62
     7
370
    25
100
AcDbCircle
 10
0.0
 20
0.0
 30
0.0
 40
183.7510000000002
100
AcDbArc
 50
290.62457131
 51
291.37542869
  0
ARC
  5
185
330
1F
100
AcDbEntity
  8
0
  6
Continuous
 62
     7
370
    25
100
AcDbCircle
 10
130.6169013121
 20
-110.6694940979
 30
0.0
 40
90.00000000000016
100
AcDbArc
 50
218.3475796573
 51
222.9345649735
  0
ARC
  5
186
330
1F
100
AcDbEntity
  8
0
  6
Continuous
 62
     7
370
    25
100
AcDbCircle
 10
0.0
 20
0.0
 30
0.0
 40
177.0000000000002
100
AcDbArc
 50
289.1735884456
 51
289.8264115544
  0
ARC
  5
187
330
1F
100
AcDbEntity
  8
0
  6
Continuous
 62
     7
370
    25
100
AcDbCircle
 10
-31.8618280497
 20
-168.2062298061
 30
0.0
 40
90.00000000000014
100
AcDbArc
 50
356.0654350265
 51
0.6524203427
  0
ARC
  5
188
330
1F
100
AcDbEntity
  8
0
  6
Continuous
 62
     7
370
    25
100
AcDbCircle
 10
0.0
 20
0.0
 30
0.0
 40
183.7510000000002
100
AcDbArc
 50
287.62457131
 51
288.37542869
  0
ARC
  5
189
330
1F
100
AcDbEntity
  8
0
  6
Continuous
 62
     7
370
    25
100
AcDbCircle
 10
124.6459015878
 20
-117.3537858342
 30
0.0
 40
90.00000000000014
100
AcDbArc
 50
215.3475796573
 51
219.9345649735
  0
ARC
  5
18A
330
1F
100
AcDbEntity
  8
0
  6
Continuous
 62
     7
370
    25
100
AcDbCircle
 10
0.0
 20
0.0
 30
0.0
 40
177.0000000000002
100
AcDbArc
 50
286.1735884456
 51
286.8264115544
  0
ARC
  5
18B
330
1F
100
AcDbEntity
  8
0
  6
Continuous
 62
     7
370
    25
100
AcDbCircle
 10
-40.6213964046
 20
-166.3081897754
 30
0.0
 40
90.00000000000014
100
AcDbArc
 50
353.0654350265
 51
357.6524203427
  0
ARC
  5
18C
330
1F
100
AcDbEntity
  8
0
  6
Continuous
 62
     7
370
    25
100
AcDbCircle
 10
0.0
 20
0.0
 30
0.0
 40
183.7510000000002
100
AcDbArc
 50
284.62457131
 51
285.37542869
  0
ARC
  5
18D
330
1F
100
AcDbEntity
  8
0
  6
Continuous
 62
     7
370
    25
100
AcDbCircle
 10
118.3332561113
 20
-123.7164190006
 30
0.0
 40
90.00000000000013
100
AcDbArc
 50
212.3475796573
 51
216.9345649735
  0
ARC
  5
18E
330
1F
100
AcDbEntity
  8
0
  6
Continuous
 62
     7
370
    25
100
AcDbCircle
 10
0.0
 20
0.0
 30
0.0
 40
177.0000000000002
100
AcDbArc
 50
283.1735884456
 51
283.8264115544
  0
ARC
  5
18F
330
1F
100
AcDbEntity
  8
0
  6
Continuous
 62
     7
370
    25
100
AcDbCircle
 10
-49.2696243356
 20
-163.9543105566
 30
0.0
 40
90.00000000000014
100
AcDbArc
 50
350.0654350265
 51
354.6524203427
  0
ARC
  5
190
330
1F
100
AcDbEntity
  8
0
  6
Continuous
 62
     7
370
    25
100
AcDbCircle
 10
0.0
 20
0.0
 30
0.0
 40
183.7510000000002
100
AcDbArc
 50
281.62457131
 51
282.37542869
  0
ARC
  5
191
330
1F
100
AcDbEntity
  8
0
  6
Continuous
 62
     7
370
    25
100
AcDbCircle
 10
111.6962674051
 20
-129.739954062
 30
0.0
 40
90.00000000000014
100
AcDbArc
 50
209.3475796573
 51
213.9345649735
  0
ARC
  5
192
330
1F
100
AcDbEntity
  8
0
  6
Continuous
 62
     7
370
    25
100
AcDbCircle
 10
0.0
 20
0.0
 30
0.0
 40
177.0000000000002
100
AcDbArc
 50
280.1735884456
 51
280.8264115544
  0
ARC
  5
193
330
1F
100
AcDbEntity
  8
0
  6
Continuous
 62
     7
370
    25
100
AcDbCircle
 10
-57.7828076509
 20
-161.1510439688
 30
0.0
 40
90.00000000000014
100
AcDbArc
 50
347.0654350265
 51
351.6524203427
  0
ARC
  5
194
330
1F
100
AcDbEntity
  8
0
  6
Continuous
 62
     7
370
    25
100
AcDbCircle
 10
0.0
 20
0.0
 30
0.0
 40
183.7510000000002
100
AcDbArc
 50
278.62457131
 51
279.37542869
  0
ARC
  5
195
330
1F
100
AcDbEntity
  8
0
  6
Continuous
 62
     7
370
    25
100
AcDbCircle
 10
104.7531269938
 20
-135.4078809274
 30
0.0
 40
90.00000000000014
100
AcDbArc
 50
206.3475796573
 51
210.9345649735
  0
ARC
  5
196
330
1F
100
AcDbEntity
  8
0
  6
Continuous
 62
     7
370
    25
100
AcDbCircle
 10
0.0
 20
0.0
 30
0.0
 40
177.0000000000002
100
AcDbArc
 50
277.1735884456
 51
277.8264115544
  0
ARC
  5
197
330
1F
100
AcDbEntity
  8
0
  6
Continuous
 62
     7
370
    25
100
AcDbCircle
 10
-66.1376123069
 20
-157.9060735709
 30
0.0
 40
90.00000000000016
100
AcDbArc
 50
344.0654350265
 51
348.6524203427
  0
ARC
  5
198
330
1F
100
AcDbEntity
  8
0
  6
Continuous
 62
     7
370
    25
100
AcDbCircle
 10
0.0
 20
0.0
 30
0.0
 40
183.7510000000002
100
AcDbArc
 50
275.62457131
 51
276.37542869
  0
ARC
  5
199
330
1F
100
AcDbEntity
  8
0
  6
Continuous
 62
     7
370
    25
100
AcDbCircle
 10
97.5228655428
 20
-140.7046642033
 30
0.0
 40
90.00000000000014
100
AcDbArc
 50
203.3475796573
 51
207.9345649735
  0
ARC
  5
19A
330
1F
100
AcDbEntity
  8
0
  6
Continuous
 62
     7
370
    25
100
AcDbCircle
 10
0.0
 20
0.0
 30
0.0
 40
177.0000000000002
100
AcDbArc
 50
274.1735884456
 51
274.8264115544
  0
ARC
  5
19B
330
1F
100
AcDbEntity
  8
0
  6
Continuous
 62
     7
370
    25
100
AcDbCircle
 10
-74.3111383647
 20
-154.2282936014
 30
0.0
 40
90.00000000000016
100
AcDbArc
 50
341.0654350265
 51
345.6524203427
  0
ARC
  5
19C
330
1F
100
AcDbEntity
  8
0
  6
Continuous
 62
     7
370
    25
100
AcDbCircle
 10
0.0
 20
0.0
 30
0.0
 40
183.7510000000003
100
AcDbArc
 50
272.62457131
 51
273.37542869
  0
ARC
  5
19D
330
1F
100
AcDbEntity
  8
0
  6
Continuous
 62
     7
370
    25
100
AcDbCircle
 10
90.025300696
 20
-145.6157857749
 30
0.0
 40
90.00000000000016
100
AcDbArc
 50
200.3475796573
 51
204.9345649735
  0
ARC
  5
19E
330
1F
100
AcDbEntity
  8
0
  6
Continuous
 62
     7
370
    25
100
AcDbCircle
 10
0.0
 20
0.0
 30
0.0
 40
177.0000000000002
100
AcDbArc
 50
271.1735884456
 51
271.8264115544
  0
ARC
  5
19F
330
1F
100
AcDbEntity
  8
0
  6
Continuous
 62
     7
370
    25
100
AcDbCircle
 10
-82.2809827576
 20
-150.1277845993
 30
0.0
 40
90.00000000000014
100
AcDbArc
 50
338.0654350265
 51
342.6524203427
  0
ARC
  5
1A0
330
1F
100
AcDbEntity
  8
0
  6
Continuous
 62
     7
370
    25
100
AcDbCircle
 10
0.0
 20
0.0
 30
0.0
 40
183.7510000000002
100
AcDbArc
 50
269.62457131
 51
270.37542869
  0
ARC
  5
1A1
330
1F
100
AcDbEntity
  8
0
  6
Continuous
 62
     7
370
    25
100
AcDbCircle
 10
82.2809827576
 20
-150.1277845993
 30
0.0
 40
90.00000000000016
100
AcDbArc
 50
197.3475796573
 51
201.9345649735
  0
ARC
  5
1A2
330
1F
100
AcDbEntity
  8
0
  6
Continuous
 62
     7
370
    25
100
AcDbCircle
 10
0.0
 20
0.0
 30
0.0
 40
177.0000000000002
100
AcDbArc
 50
268.1735884456
 51
268.8264115544
  0
ARC
  5
1A3
330
1F
100
AcDbEntity
  8
0
  6
Continuous
 62
     7
370
    25
100
AcDbCircle
 10
-90.025300696
 20
-145.6157857749
 30
0.0
 40
90.00000000000016
100
AcDbArc
 50
335.0654350265
 51
339.6524203427
  0
ARC
  5
1A4
330
1F
100
AcDbEntity
  8
0
  6
Continuous
 62
     7
370
    25
100
AcDbCircle
 10
0.0
 20
0.0
 30
0.0
 40
183.7510000000002
100
AcDbArc
 50
266.62457131
 51
267.37542869
  0
ARC
  5
1A5
330
1F
100
AcDbEntity
  8
0
  6
Continuous
 62
     7
370
    25
100
AcDbCircle
 10
74.3111383647
 20
-154.2282936014
 30
0.0
 40
90.00000000000014
100
AcDbArc
 50
194.3475796573
 51
198.9345649735
  0
ARC
  5
1A6
330
1F
100
AcDbEntity
  8
0
  6
Continuous
 62
     7
370
    25
100
AcDbCircle
 10
0.0
 20
0.0
 30
0.0
 40
177.0000000000002
100
AcDbArc
 50
265.1735884456
 51
265.8264115544
  0
ARC
  5
1A7
330
1F
100
AcDbEntity
  8
0
  6
Continuous
 62
     7
370
    25
100
AcDbCircle
 10
-97.5228655428
 20
-140.7046642033
 30
0.0
 40
90.00000000000016
100
AcDbArc
 50
332.0654350265
 51
336.6524203427
  0
ARC
  5
1A8
330
1F
100
AcDbEntity
  8
0
  6
Continuous
 62
     7
370
    25
100
AcDbCircle
 10
0.0
 20
0.0
 30
0.0
 40
183.7510000000002
100
AcDbArc
 50
263.62457131
 51
264.37542869
  0
ARC
  5
1A9
330
1F
100
AcDbEntity
  8
0
  6
Continuous
 62
     7
370
    25
100
AcDbCircle
 10
66.1376123069
 20
-157.9060735709
 30
0.0
 40
90.00000000000016
100
AcDbArc
 50
191.3475796573
 51
195.9345649735
  0
ARC
  5
1AA
330
1F
100
AcDbEntity
  8
0
  6
Continuous
 62
     7
370
    25
100
AcDbCircle
 10
0.0
 20
0.0
 30
0.0
 40
177.0000000000002
100
AcDbArc
 50
262.1735884456
 51
262.8264115544
  0
ARC
  5
1AB
330
1F
100
AcDbEntity
  8
0
  6
Continuous
 62
     7
370
    25
100
AcDbCircle
 10
-104.7531269938
 20
-135.4078809275
 30
0.0
 40
90.00000000000013
100
AcDbArc
 50
329.0654350265
 51
333.6524203427
  0
ARC
  5
1AC
330
1F
100
AcDbEntity
  8
0
  6
Continuous
 62
     7
370
    25
100
AcDbCircle
 10
0.0
 20
0.0
 30
0.0
 40
183.7510000000002
100
AcDbArc
 50
260.62457131
 51
261.37542869
  0
ARC
  5
1AD
330
1F
100
AcDbEntity
  8
0
  6
Continuous
 62
     7
370
    25
100
AcDbCircle
 10
57.7828076509
 20
-161.1510439688
 30
0.0
 40
90.00000000000014
100
AcDbArc
 50
188.3475796573
 51
192.9345649735
  0
ARC
  5
1AE
330
1F
100
AcDbEntity
  8
0
  6
Continuous
 62
     7
370
    25
100
AcDbCircle
 10
0.0
 20
0.0
 30
0.0
 40
177.0000000000002
100
AcDbArc
 50
259.1735884456
 51
259.8264115544
  0
ARC
  5
1AF
330
1F
100
AcDbEntity
  8
0
  6
Continuous
 62
     7
370
    25
100
AcDbCircle
 10
-111.6962674051
 20
-129.739954062
 30
0.0
 40
90.00000000000013
100
AcDbArc
 50
326.0654350265
 51
330.6524203427
  0
ARC
  5
1B0
330
1F
100
AcDbEntity
  8
0
  6
Continuous
 62
     7
370
    25
100
AcDbCircle
 10
0.0
 20
0.0
 30
0.0
 40
183.7510000000002
100
AcDbArc
 50
257.62457131
 51
258.37542869
  0
ARC
  5
1B1
330
1F
100
AcDbEntity
  8
0
  6
Continuous
 62
     7
370
    25
100
AcDbCircle
 10
49.2696243356
 20
-163.9543105566
 30
0.0
 40
90.00000000000013
100
AcDbArc
 50
185.3475796573
 51
189.9345649735
  0
ARC
  5
1B2
330
1F
100
AcDbEntity
  8
0
  6
Continuous
 62
     7
370
    25
100
AcDbCircle
 10
0.0
 20
0.0
 30
0.0
 40
177.0000000000002
100
AcDbArc
 50
256.1735884456
 51
256.8264115544
  0
ARC
  5
1B3
330
1F
100
AcDbEntity
  8
0
  6
Continuous
 62
     7
370
    25
100
AcDbCircle
 10
-118.3332561113
 20
-123.7164190006
 30
0.0
 40
90.00000000000014
100
AcDbArc
 50
323.0654350265
 51
327.6524203427
  0
ARC
  5
1B4
330
1F
100
AcDbEntity
  8
0
  6
Continuous
 62
     7
370
    25
100
AcDbCircle
 10
0.0
 20
0.0
 30
0.0
 40
183.7510000000002
100
AcDbArc
 50
254.62457131
 51
255.37542869
  0
ARC
  5
1B5
330
1F
100
AcDbEntity
  8
0
  6
Continuous
 62
     7
370
    25
100
AcDbCircle
 10
40.6213964046
 20
-166.3081897754
 30
0.0
 40
90.00000000000014
100
AcDbArc
 50
182.3475796573
 51
186.9345649735
  0
ARC
  5
1B6
330
1F
100
AcDbEntity
  8
0
  6
Continuous
 62
     7
370
    25
100
AcDbCircle
 10
0.0
 20
0.0
 30
0.0
 40
177.0000000000002
100
AcDbArc
 50
253.1735884456
 51
253.8264115544
  0
ARC
  5
1B7
330
1F
100
AcDbEntity
  8
0
  6
Continuous
 62
     7
370
    25
100
AcDbCircle
 10
-124.6459015878
 20
-117.3537858342
 30
0.0
 40
90.00000000000016
100
AcDbArc
 50
320.0654350265
 51
324.6524203427
  0
ARC
  5
1B8
330
1F
100
AcDbEntity
  8
0
  6
Continuous
 62
     7
370
    25
100
AcDbCircle
 10
0.0
 20
0.0
 30
0.0
 40
183.7510000000002
100
AcDbArc
 50
251.62457131
 51
252.37542869
  0
ARC
  5
1B9
330
1F
100
AcDbEntity
  8
0
  6
Continuous
 62
     7
370
    25
100
AcDbCircle
 10
31.8618280497
 20
-168.2062298061
 30
0.0
 40
90.00000000000014
100
AcDbArc
 50
179.3475796573
 51
183.9345649735
  0
ARC
  5
1BA
330
1F
100
AcDbEntity
  8
0
  6
Continuous
 62
     7
370
    25
100
AcDbCircle
 10
0.0
 20
0.0
 30
0.0
 40
177.0000000000002
100
AcDbArc
 50
250.1735884456
 51
250.8264115544
  0
ARC
  5
1BB
330
1F
100
AcDbEntity
  8
0
  6
Continuous
 62
     7
370
    25
100
AcDbCircle
 10
-130.6169013121
 20
-110.6694940979
 30
0.0
 40
90.00000000000014
100
AcDbArc
 50
317.0654350265
 51
321.6524203427
  0
ARC
  5
1BC
330
1F
100
AcDbEntity
  8
0
  6
Continuous
 62
     7
370
    25
100
AcDbCircle
 10
0.0
 20
0.0
 30
0.0
 40
183.7510000000002
100
AcDbArc
 50
248.62457131
 51
249.37542869
  0
ARC
  5
1BD
330
1F
100
AcDbEntity
  8
0
  6
Continuous
 62
     7
370
    25
100
AcDbCircle
 10
23.0149286388
 20
-169.6432282527
 30
0.0
 40
90.00000000000014
100
AcDbArc
 50
176.3475796573
 51
180.9345649735
  0
ARC
  5
1BE
330
1F
100
AcDbEntity
  8
0
  6
Continuous
 62
     7
370
    25
100
AcDbCircle
 10
0.0
 20
0.0
 30
0.0
 40
177.0000000000002
100
AcDbArc
 50
247.1735884456
 51
247.8264115544
  0
ARC
  5
1BF
330
1F
100
AcDbEntity
  8
0
  6
Continuous
 62
     7
370
    25
100
AcDbCircle
 10
-136.2298891889
 20
-103.6818649709
 30
0.0
 40
90.00000000000014
100
AcDbArc
 50
314.0654350265
 51
318.6524203427
  0
ARC
  5
1C0
330
1F
100
AcDbEntity
  8
0
  6
Continuous
 62
     7
370
    25
100
AcDbCircle
 10
0.0
 20
0.0
 30
0.0
 40
183.7510000000002
100
AcDbArc
 50
245.62457131
 51
246.37542869
  0
ARC
  5
1C1
330
1F
100
AcDbEntity
  8
0
  6
Continuous
 62
     7
370
    25
100
AcDbCircle
 10
14.1049469082
 20
-170.6152464024
 30
0.0
 40
90.00000000000014
100
AcDbArc
 50
173.3475796573
 51
177.9345649735
  0
ARC
  5
1C2
330
1F
100
AcDbEntity
  8
0
  6
Continuous
 62
     7
370
    25
100
AcDbCircle
 10
0.0
 20
0.0
 30
0.0
 40
177.0000000000002
100
AcDbArc
 50
244.1735884456
 51
244.8264115544
  0
ARC
  5
1C3
330
1F
100
AcDbEntity
  8
0
  6
Continuous
 62
     7
370
    25
100
AcDbCircle
 10
-141.4694804087
 20
-96.4100510588
 30
0.0
 40
90.00000000000017
100
AcDbArc
 50
311.0654350265
 51
315.6524203427
  0
ARC
  5
1C4
330
1F
100
AcDbEntity
  8
0
  6
Continuous
 62
     7
370
    25
100
AcDbCircle
 10
0.0
 20
0.0
 30
0.0
 40
183.7510000000002
100
AcDbArc
 50
242.62457131
 51
243.37542869
  0
ARC
  5
1C5
330
1F
100
AcDbEntity
  8
0
  6
Continuous
 62
     7
370
    25
100
AcDbCircle
 10
5.1563044986
 20
-171.1196200211
 30
0.0
 40
90.00000000000014
100
AcDbArc
 50
170.3475796573
 51
174.9345649735
  0
ARC
  5
1C6
330
1F
100
AcDbEntity
  8
0
  6
Continuous
 62
     7
370
    25
100
AcDbCircle
 10
0.0
 20
0.0
 30
0.0
 40
177.0000000000003
100
AcDbArc
 50
241.1735884456
 51
241.8264115544
  0
ARC
  5
1C7
330
1F
100
AcDbEntity
  8
0
  6
Continuous
 62
     7
370
    25
100
AcDbCircle
 10
-146.3213136161
 20
-88.8739838981
 30
0.0
 40
90.00000000000016
100
AcDbArc
 50
308.0654350265
 51
312.6524203427
  0
ARC
  5
1C8
330
1F
100
AcDbEntity
  8
0
  6
Continuous
 62
     7
370
    25
100
AcDbCircle
 10
0.0
 20
0.0
 30
0.0
 40
183.7510000000002
100
AcDbArc
 50
239.62457131
 51
240.37542869
  0
ARC
  5
1C9
330
1F
100
AcDbEntity
  8
0
  6
Continuous
 62
     7
370
    25
100
AcDbCircle
 10
-3.8064709832
 20
-171.1549666557
 30
0.0
 40
90.00000000000014
100
AcDbArc
 50
167.3475796573
 51
171.9345649735
  0
ARC
  5
1CA
330
1F
100
AcDbEntity
  8
0
  6
Continuous
 62
     7
370
    25
100
AcDbCircle
 10
0.0
 20
0.0
 30
0.0
 40
177.0000000000002
100
AcDbArc
 50
238.1735884456
 51
238.8264115544
  0
ARC
  5
1CB
330
1F
100
AcDbEntity
  8
0
  6
Continuous
 62
     7
370
    25
100
AcDbCircle
 10
-150.7720902735
 20
-81.0943193251
 30
0.0
 40
90.00000000000014
100
AcDbArc
 50
305.0654350265
 51
309.6524203427
  0
ARC
  5
1CC
330
1F
100
AcDbEntity
  8
0
  6
Continuous
 62
     7
370
    25
100
AcDbCircle
 10
0.0
 20
0.0
 30
0.0
 40
183.7510000000002
100
AcDbArc
 50
236.62457131
 51
237.37542869
  0
ARC
  5
1CD
330
1F
100
AcDbEntity
  8
0
  6
Continuous
 62
     7
370
    25
100
AcDbCircle
 10
-12.7588131927
 20
-170.7211894235
 30
0.0
 40
90.00000000000013
100
AcDbArc
 50
164.3475796573
 51
168.9345649735
  0
ARC
  5
1CE
330
1F
100
AcDbEntity
  8
0
  6
Continuous
 62
     7
370
    25
100
AcDbCircle
 10
0.0
 20
0.0
 30
0.0
 40
177.0000000000002
100
AcDbArc
 50
235.1735884456
 51
235.8264115544
  0
ARC
  5
1CF
330
1F
100
AcDbEntity
  8
0
  6
Continuous
 62
     7
370
    25
100
AcDbCircle
 10
-154.8096111116
 20
-73.0923808597
 30
0.0
 40
90.00000000000016
100
AcDbArc
 50
302.0654350265
 51
306.6524203427
  0
ARC
  5
1D0
330
1F
100
AcDbEntity
  8
0
  6
Continuous
 62
     7
370
    25
100
AcDbCircle
 10
0.0
 20
0.0
 30
0.0
 40
183.7510000000002
100
AcDbArc
 50
233.62457131
 51
234.37542869
  0
ARC
  5
1D1
330
1F
100
AcDbEntity
  8
0
  6
Continuous
 62
     7
370
    25
100
AcDbCircle
 10
-21.6761843821
 20
-169.8194772777
 30
0.0
 40
90.00000000000014
100
AcDbArc
 50
161.3475796573
 51
165.9345649735
  0
ARC
  5
1D2
330
1F
100
AcDbEntity
  8
0
  6
Continuous
 62
     7
370
    25
100
AcDbCircle
 10
0.0
 20
0.0
 30
0.0
 40
177.0000000000002
100
AcDbArc
 50
232.1735884456
 51
232.8264115544
  0
ARC
  5
1D3
330
1F
100
AcDbEntity
  8
0
  6
Continuous
 62
     7
370
    25
100
AcDbCircle
 10
-158.4228095662
 20
-64.8901012589
 30
0.0
 40
90.00000000000016
100
AcDbArc
 50
299.0654350265
 51
303.6524203427
  0
ARC
  5
1D4
330
1F
100
AcDbEntity
  8
0
  6
Continuous
 62
     7
370
    25
100
AcDbCircle
 10
0.0
 20
0.0
 30
0.0
 40
183.7510000000002
100
AcDbArc
 50
230.62457131
 51
231.37542869
  0
ARC
  5
1D5
330
1F
100
AcDbEntity
  8
0
  6
Continuous
 62
     7
370
    25
100
AcDbCircle
 10
-30.5341426567
 20
-168.4523017488
 30
0.0
 40
90.00000000000014
100
AcDbArc
 50
158.3475796573
 51
162.9345649735
  0
ARC
  5
1D6
330
1F
100
AcDbEntity
  8
0
  6
Continuous
 62
     7
370
    25
100
AcDbCircle
 10
0.0
 20
0.0
 30
0.0
 40
177.0000000000003
100
AcDbArc
 50
229.1735884456
 51
229.8264115544
  0
ARC
  5
1D7
330
1F
100
AcDbEntity
  8
0
  6
Continuous
 62
     7
370
    25
100
AcDbCircle
 10
-161.6017821117
 20
-56.509962401
 30
0.0
 40
90.00000000000016
100
AcDbArc
 50
296.0654350265
 51
300.6524203427
  0
ARC
  5
1D8
330
1F
100
AcDbEntity
  8
0
  6
Continuous
 62
     7
370
    25
100
AcDbCircle
 10
0.0
 20
0.0
 30
0.0
 40
183.7510000000002
100
AcDbArc
 50
227.62457131
 51
228.37542869
  0
ARC
  5
1D9
330
1F
100
AcDbEntity
  8
0
  6
Continuous
 62
     7
370
    25
100
AcDbCircle
 10
-39.3084089688
 20
-166.6234101697
 30
0.0
 40
90.00000000000017
100
AcDbArc
 50
155.3475796573
 51
159.9345649735
  0
ARC
  5
1DA
330
1F
100
AcDbEntity
  8
0
  6
Continuous
 62
     7
370
    25
100
AcDbCircle
 10
0.0
 20
0.0
 30
0.0
 40
177.0000000000002
100
AcDbArc
 50
226.1735884456
 51
226.8264115544
  0
ARC
  5
1DB
330
1F
100
AcDbEntity
  8
0
  6
Continuous
 62
     7
370
    25
100
AcDbCircle
 10
-164.3378154053
 20
-47.9749336641
 30
0.0
 40
90.00000000000016
100
AcDbArc
 50
293.0654350265
 51
297.6524203427
  0
ARC
  5
1DC
330
1F
100
AcDbEntity
  8
0
  6
Continuous
 62
     7
370
    25
100
AcDbCircle
 10
0.0
 20
0.0
 30
0.0
 40
183.7510000000002
100
AcDbArc
 50
224.62457131
 51
225.37542869
  0
ARC
  5
1DD
330
1F
100
AcDbEntity
  8
0
  6
Continuous
 62
     7
370
    25
100
AcDbCircle
 10
-47.9749336641
 20
-164.3378154053
 30
0.0
 40
90.00000000000016
100
AcDbArc
 50
152.3475796573
 51
156.9345649735
  0
ARC
  5
1DE
330
1F
100
AcDbEntity
  8
0
  6
Continuous
 62
     7
370
    25
100
AcDbCircle
 10
0.0
 20
0.0
 30
0.0
 40
177.0000000000002
100
AcDbArc
 50
223.1735884456
 51
223.8264115544
  0
ARC
  5
1DF
330
1F
100
AcDbEntity
  8
0
  6
Continuous
 62
     7
370
    25
100
AcDbCircle
 10
-166.6234101697
 20
-39.3084089688
 30
0.0
 40
90.00000000000014
100
AcDbArc
 50
290.0654350265
 51
294.6524203427
  0
ARC
  5
1E0
330
1F
100
AcDbEntity
  8
0
  6
Continuous
 62
     7
370
    25
100
AcDbCircle
 10
0.0
 20
0.0
 30
0.0
 40
183.7510000000002
100
AcDbArc
 50
221.62457131
 51
222.37542869
  0
ARC
  5
1E1
330
1F
100
AcDbEntity
  8
0
  6
Continuous
 62
     7
370
    25
100
AcDbCircle
 10
-56.509962401
 20
-161.6017821117
 30
0.0
 40
90.00000000000014
100
AcDbArc
 50
149.3475796573
 51
153.9345649735
  0
ARC
  5
1E2
330
1F
100
AcDbEntity
  8
0
  6
Continuous
 62
     7
370
    25
100
AcDbCircle
 10
0.0
 20
0.0
 30
0.0
 40
177.0000000000002
100
AcDbArc
 50
220.1735884456
 51
220.8264115544
  0
ARC
  5
1E3
330
1F
100
AcDbEntity
  8
0
  6
Continuous
 62
     7
370
    25
100
AcDbCircle
 10
-168.4523017488
 20
-30.5341426567
 30
0.0
 40
90.00000000000016
100
AcDbArc
 50
287.0654350265
 51
291.6524203427
  0
ARC
  5
1E4
330
1F
100
AcDbEntity
  8
0
  6
Continuous
 62
     7
370
    25
100
AcDbCircle
 10
0.0
 20
0.0
 30
0.0
 40
183.7510000000002
100
AcDbArc
 50
218.62457131
 51
219.37542869
  0
ARC
  5
1E5
330
1F
100
AcDbEntity
  8
0
  6
Continuous
 62
     7
370
    25
100
AcDbCircle
 10
-64.8901012589
 20
-158.4228095662
 30
0.0
 40
90.00000000000014
100
AcDbArc
 50
146.3475796573
 51
150.9345649735
  0
ARC
  5
1E6
330
1F
100
AcDbEntity
  8
0
  6
Continuous
 62
     7
370
    25
100
AcDbCircle
 10
0.0
 20
0.0
 30
0.0
 40
177.0000000000002
100
AcDbArc
 50
217.1735884456
 51
217.8264115544
  0
ARC
  5
1E7
330
1F
100
AcDbEntity
  8
0
  6
Continuous
 62
     7
370
    25
100
AcDbCircle
 10
-169.8194772777
 20
-21.6761843821
 30
0.0
 40
90.00000000000014
100
AcDbArc
 50
284.0654350265
 51
288.6524203427
  0
ARC
  5
1E8
330
1F
100
AcDbEntity
  8
0
  6
Continuous
 62
     7
370
    25
100
AcDbCircle
 10
0.0
 20
0.0
 30
0.0
 40
183.7510000000002
100
AcDbArc
 50
215.62457131
 51
216.37542869
  0
ARC
  5
1E9
330
1F
100
AcDbEntity
  8
0
  6
Continuous
 62
     7
370
    25
100
AcDbCircle
 10
-73.0923808597
 20
-154.8096111116
 30
0.0
 40
90.00000000000013
100
AcDbArc
 50
143.3475796573
 51
147.9345649735
  0
ARC
  5
1EA
330
1F
100
AcDbEntity
  8
0
  6
Continuous
 62
     7
370
    25
100
AcDbCircle
 10
0.0
 20
0.0
 30
0.0
 40
177.0000000000002
100
AcDbArc
 50
214.1735884456
 51
214.8264115544
  0
ARC
  5
1EB
330
1F
100
AcDbEntity
  8
0
  6
Continuous
 62
     7
370
    25
100
AcDbCircle
 10
-170.7211894235
 20
-12.7588131927
 30
0.0
 40
90.00000000000014
100
AcDbArc
 50
281.0654350265
 51
285.6524203427
  0
ARC
  5
1EC
330
1F
100
AcDbEntity
  8
0
  6
Continuous
 62
     7
370
    25
100
AcDbCircle
 10
0.0
 20
0.0
 30
0.0
 40
183.7510000000002
100
AcDbArc
 50
212.62457131
 51
213.37542869
  0
ARC
  5
1ED
330
1F
100
AcDbEntity
  8
0
  6
Continuous
 62
     7
370
    25
100
AcDbCircle
 10
-81.0943193251
 20
-150.7720902735
 30
0.0
 40
90.00000000000014
100
AcDbArc
 50
140.3475796573
 51
144.9345649735
  0
ARC
  5
1EE
330
1F
100
AcDbEntity
  8
0
  6
Continuous
 62
     7
370
    25
100
AcDbCircle
 10
0.0
 20
0.0
 30
0.0
 40
177.0000000000002
100
AcDbArc
 50
211.1735884456
 51
211.8264115544
  0
ARC
  5
1EF
330
1F
100
AcDbEntity
  8
0
  6
Continuous
 62
     7
370
    25
100
AcDbCircle
 10
-171.1549666557
 20
-3.8064709832
 30
0.0
 40
90.00000000000017
100
AcDbArc
 50
278.0654350265
 51
282.6524203427
  0
ARC
  5
1F0
330
1F
100
AcDbEntity
  8
0
  6
Continuous
 62
     7
370
    25
100
AcDbCircle
 10
0.0
 20
0.0
 30
0.0
 40
183.7510000000002
100
AcDbArc
 50
209.62457131
 51
210.37542869
  0
ARC
  5
1F1
330
1F
100
AcDbEntity
  8
0
  6
Continuous
 62
     7
370
    25
100
AcDbCircle
 10
-88.8739838981
 20
-146.3213136161
 30
0.0
 40
90.00000000000017
100
AcDbArc
 50
137.3475796573
 51
141.9345649735
  0
ARC
  5
1F2
330
1F
100
AcDbEntity
  8
0
  6
Continuous
 62
     7
370
    25
100
AcDbCircle
 10
0.0
 20
0.0
 30
0.0
 40
177.0000000000002
100
AcDbArc
 50
208.1735884456
 51
208.8264115544
  0
ARC
  5
1F3
330
1F
100
AcDbEntity
  8
0
  6
Continuous
 62
     7
370
    25
100
AcDbCircle
 10
-171.1196200211
 20
5.1563044986
 30
0.0
 40
90.00000000000013
100
AcDbArc
 50
275.0654350265
 51
279.6524203427
  0
ARC
  5
1F4
330
1F
100
AcDbEntity
  8
0
  6
Continuous
 62
     7
370
    25
100
AcDbCircle
 10
0.0
 20
0.0
 30
0.0
 40
183.7510000000002
100
AcDbArc
 50
206.62457131
 51
207.37542869
  0
ARC
  5
1F5
330
1F
100
AcDbEntity
  8
0
  6
Continuous
 62
     7
370
    25
100
AcDbCircle
 10
-96.4100510588
 20
-141.4694804087
 30
0.0
 40
90.00000000000014
100
AcDbArc
 50
134.3475796573
 51
138.9345649735
  0
ARC
  5
1F6
330
1F
100
AcDbEntity
  8
0
  6
Continuous
 62
     7
370
    25
100
AcDbCircle
 10
0.0
 20
0.0
 30
0.0
 40
177.0000000000002
100
AcDbArc
 50
205.1735884456
 51
205.8264115544
  0
ARC
  5
1F7
330
1F
100
AcDbEntity
  8
0
  6
Continuous
 62
     7
370
    25
100
AcDbCircle
 10
-170.6152464024
 20
14.1049469082
 30
0.0
 40
90.00000000000014
100
AcDbArc
 50
272.0654350265
 51
276.6524203427
  0
ARC
  5
1F8
330
1F
100
AcDbEntity
  8
0
  6
Continuous
 62
     7
370
    25
100
AcDbCircle
 10
0.0
 20
0.0
 30
0.0
 40
183.7510000000002
100
AcDbArc
 50
203.62457131
 51
204.37542869
  0
ARC
  5
1F9
330
1F
100
AcDbEntity
  8
0
  6
Continuous
 62
     7
370
    25
100
AcDbCircle
 10
-103.6818649709
 20
-136.2298891889
 30
0.0
 40
90.00000000000016
100
AcDbArc
 50
131.3475796573
 51
135.9345649735
  0
ARC
  5
1FA
330
1F
100
AcDbEntity
  8
0
  6
Continuous
 62
     7
370
    25
100
AcDbCircle
 10
0.0
 20
0.0
 30
0.0
 40
177.0000000000003
100
AcDbArc
 50
202.1735884456
 51
202.8264115544
  0
ARC
  5
1FB
330
1F
100
AcDbEntity
  8
0
  6
Continuous
 62
     7
370
    25
100
AcDbCircle
 10
-169.6432282527
 20
23.0149286388
 30
0.0
 40
90.00000000000014
100
AcDbArc
 50
269.0654350265
 51
273.6524203427
  0
ARC
  5
1FC
330
1F
100
AcDbEntity
  8
0
  6
Continuous
 62
     7
370
    25
100
AcDbCircle
 10
0.0
 20
0.0
 30
0.0
 40
183.7510000000002
100
AcDbArc
 50
200.62457131
 51
201.37542869
  0
ARC
  5
1FD
330
1F
100
AcDbEntity
  8
0
  6
Continuous
 62
     7
370
    25
100
AcDbCircle
 10
-110.6694940979
 20
-130.6169013121
 30
0.0
 40
90.00000000000016
100
AcDbArc
 50
128.3475796573
 51
132.9345649735
  0
ARC
  5
1FE
330
1F
100
AcDbEntity
  8
0
  6
Continuous
 62
     7
370
    25
100
AcDbCircle
 10
0.0
 20
0.0
 30
0.0
 40
177.0000000000002
100
AcDbArc
 50
199.1735884456
 51
199.8264115544
  0
ARC
  5
1FF
330
1F
100
AcDbEntity
  8
0
  6
Continuous
 62
     7
370
    25
100
AcDbCircle
 10
-168.2062298061
 20
31.8618280497
 30
0.0
 40
90.00000000000014
100
AcDbArc
 50
266.0654350265
 51
270.6524203427
  0
ARC
  5
200
330
1F
100
AcDbEntity
  8
0
  6
Continuous
 62
     7
370
    25
100
AcDbCircle
 10
0.0
 20
0.0
 30
0.0
 40
183.7510000000002
100
AcDbArc
 50
197.62457131
 51
198.37542869
  0
ARC
  5
201
330
1F
100
AcDbEntity
  8
0
  6
Continuous
 62
     7
370
    25
100
AcDbCircle
 10
-117.3537858342
 20
-124.6459015878
 30
0.0
 40
90.00000000000013
100
AcDbArc
 50
125.3475796573
 51
129.9345649735
  0
ARC
  5
202
330
1F
100
AcDbEntity
  8
0
  6
Continuous
 62
     7
370
    25
100
AcDbCircle
 10
0.0
 20
0.0
 30
0.0
 40
177.0000000000002
100
AcDbArc
 50
196.1735884456
 51
196.8264115544
  0
ARC
  5
203
330
1F
100
AcDbEntity
  8
0
  6
Continuous
 62
     7
370
    25
100
AcDbCircle
 10
-166.3081897754
 20
40.6213964046
 30
0.0
 40
90.00000000000016
100
AcDbArc
 50
263.0654350265
 51
267.6524203427
  0
ARC
  5
204
330
1F
100
AcDbEntity
  8
0
  6
Continuous
 62
     7
370
    25
100
AcDbCircle
 10
0.0
 20
0.0
 30
0.0
 40
183.7510000000003
100
AcDbArc
 50
194.62457131
 51
195.37542869
  0
ARC
  5
205
330
1F
100
AcDbEntity
  8
0
  6
Continuous
 62
     7
370
    25
100
AcDbCircle
 10
-123.7164190006
 20
-118.3332561113
 30
0.0
 40
90.00000000000016
100
AcDbArc
 50
122.3475796573
 51
126.9345649735
  0
ARC
  5
206
330
1F
100
AcDbEntity
  8
0
  6
Continuous
 62
     7
370
    25
100
AcDbCircle
 10
0.0
 20
0.0
 30
0.0
 40
177.0000000000002
100
AcDbArc
 50
193.1735884456
 51
193.8264115544
  0
ARC
  5
207
330
1F
100
AcDbEntity
  8
0
  6
Continuous
 62
     7
370
    25
100
AcDbCircle
 10
-163.9543105566
 20
49.2696243356
 30
0.0
 40
90.00000000000017
100
AcDbArc
 50
260.0654350265
 51
264.6524203427
  0
ARC
  5
208
330
1F
100
AcDbEntity
  8
0
  6
Continuous
 62
     7
370
    25
100
AcDbCircle
 10
0.0
 20
0.0
 30
0.0
 40
183.7510000000002
100
AcDbArc
 50
191.62457131
 51
192.37542869
  0
ARC
  5
209
330
1F
100
AcDbEntity
  8
0
  6
Continuous
 62
     7
370
    25
100
AcDbCircle
 10
-129.739954062
 20
-111.6962674051
 30
0.0
 40
90.00000000000016
100
AcDbArc
 50
119.3475796573
 51
123.9345649735
  0
ARC
  5
20A
330
1F
100
AcDbEntity
  8
0
  6
Continuous
 62
     7
370
    25
100
AcDbCircle
 10
0.0
 20
0.0
 30
0.0
 40
177.0000000000002
100
AcDbArc
 50
190.1735884456
 51
190.8264115544
  0
ARC
  5
20B
330
1F
100
AcDbEntity
  8
0
  6
Continuous
 62
     7
370
    25
100
AcDbCircle
 10
-161.1510439688
 20
57.7828076509
 30
0.0
 40
90.00000000000014
100
AcDbArc
 50
257.0654350265
 51
261.6524203427
  0
ARC
  5
20C
330
1F
100
AcDbEntity
  8
0
  6
Continuous
 62
     7
370
    25
100
AcDbCircle
 10
0.0
 20
0.0
 30
0.0
 40
183.7510000000002
100
AcDbArc
 50
188.62457131
 51
189.37542869
  0
ARC
  5
20D
330
1F
100
AcDbEntity
  8
0
  6
Continuous
 62
     7
370
    25
100
AcDbCircle
 10
-135.4078809274
 20
-104.7531269938
 30
0.0
 40
90.00000000000013
100
AcDbArc
 50
116.3475796573
 51
120.9345649735
  0
ARC
  5
20E
330
1F
100
AcDbEntity
  8
0
  6
Continuous
 62
     7
370
    25
100
AcDbCircle
 10
0.0
 20
0.0
 30
0.0
 40
177.0000000000002
100
AcDbArc
 50
187.1735884456
 51
187.8264115544
  0
ARC
  5
20F
330
1F
100
AcDbEntity
  8
0
  6
Continuous
 62
     7
370
    25
100
AcDbCircle
 10
-157.9060735709
 20
66.1376123069
 30
0.0
 40
90.00000000000016
100
AcDbArc
 50
254.0654350265
 51
258.6524203427
  0
ARC
  5
210
330
1F
100
AcDbEntity
  8
0
  6
Continuous
 62
     7
370
    25
100
AcDbCircle
 10
0.0
 20
0.0
 30
0.0
 40
183.7510000000002
100
AcDbArc
 50
185.62457131
 51
186.37542869
  0
ARC
  5
211
330
1F
100
AcDbEntity
  8
0
  6
Continuous
 62
     7
370
    25
100
AcDbCircle
 10
-140.7046642033
 20
-97.5228655428
 30
0.0
 40
90.00000000000013
100
AcDbArc
 50
113.3475796573
 51
117.9345649735
  0
ARC
  5
212
330
1F
100
AcDbEntity
  8
0
  6
Continuous
 62
     7
370
    25
100
AcDbCircle
 10
0.0
 20
0.0
 30
0.0
 40
177.0000000000002
100
AcDbArc
 50
184.1735884456
 51
184.8264115544
  0
ARC
  5
213
330
1F
100
AcDbEntity
  8
0
  6
Continuous
 62
     7
370
    25
100
AcDbCircle
 10
-154.2282936014
 20
74.3111383647
 30
0.0
 40
90.00000000000013
100
AcDbArc
 50
251.0654350265
 51
255.6524203427
  0
ARC
  5
214
330
1F
100
AcDbEntity
  8
0
  6
Continuous
 62
     7
370
    25
100
AcDbCircle
 10
0.0
 20
0.0
 30
0.0
 40
183.7510000000002
100
AcDbArc
 50
182.62457131
 51
183.37542869
  0
ARC
  5
215
330
1F
100
AcDbEntity
  8
0
  6
Continuous
 62
     7
370
    25
100
AcDbCircle
 10
-145.6157857749
 20
-90.025300696
 30
0.0
 40
90.00000000000014
100
AcDbArc
 50
110.3475796573
 51
114.9345649735
  0
ARC
  5
216
330
1F
100
AcDbEntity
  8
0
  6
Continuous
 62
     7
370
    25
100
AcDbCircle
 10
0.0
 20
0.0
 30
0.0
 40
177.0000000000002
100
AcDbArc
 50
181.1735884456
 51
181.8264115544
  0
ARC
  5
217
330
1F
100
AcDbEntity
  8
0
  6
Continuous
 62
     7
370
    25
100
AcDbCircle
 10
-150.1277845993
 20
82.2809827576
 30
0.0
 40
90.00000000000014
100
AcDbArc
 50
248.0654350265
 51
252.6524203427
  0
ARC
  5
218
330
1F
100
AcDbEntity
  8
0
  6
Continuous
 62
     7
370
    25
100
AcDbCircle
 10
0.0
 20
0.0
 30
0.0
 40
183.7510000000002
100
AcDbArc
 50
179.62457131
 51
180.37542869
  0
ARC
  5
219
330
1F
100
AcDbEntity
  8
0
  6
Continuous
 62
     7
370
    25
100
AcDbCircle
 10
-150.1277845993
 20
-82.2809827576
 30
0.0
 40
90.00000000000014
100
AcDbArc
 50
107.3475796573
 51
111.9345649735
  0
ARC
  5
21A
330
1F
100
AcDbEntity
  8
0
  6
Continuous
 62
     7
370
    25
100
AcDbCircle
 10
0.0
 20
0.0
 30
0.0
 40
177.0000000000002
100
AcDbArc
 50
178.1735884456
 51
178.8264115544
  0
ARC
  5
21B
330
1F
100
AcDbEntity
  8
0
  6
Continuous
 62
     7
370
    25
100
AcDbCircle
 10
-145.6157857749
 20
90.025300696
 30
0.0
 40
90.00000000000014
100
AcDbArc
 50
245.0654350265
 51
249.6524203427
  0
ARC
  5
21C
330
1F
100
AcDbEntity
  8
0
  6
Continuous
 62
     7
370
    25
100
AcDbCircle
 10
0.0
 20
0.0
 30
0.0
 40
183.7510000000002
100
AcDbArc
 50
176.62457131
 51
177.37542869
  0
ARC
  5
21D
330
1F
100
AcDbEntity
  8
0
  6
Continuous
 62
     7
370
    25
100
AcDbCircle
 10
-154.2282936014
 20
-74.3111383647
 30
0.0
 40
90.00000000000014
100
AcDbArc
 50
104.3475796573
 51
108.9345649735
  0
ARC
  5
21E
330
1F
100
AcDbEntity
  8
0
  6
Continuous
 62
     7
370
    25
100
AcDbCircle
 10
0.0
 20
0.0
 30
0.0
 40
177.0000000000002
100
AcDbArc
 50
175.1735884456
 51
175.8264115544
  0
ARC
  5
21F
330
1F
100
AcDbEntity
  8
0
  6
Continuous
 62
     7
370
    25
100
AcDbCircle
 10
-140.7046642033
 20
97.5228655428
 30
0.0
 40
90.00000000000017
100
AcDbArc
 50
242.0654350265
 51
246.6524203427
  0
ARC
  5
220
330
1F
100
AcDbEntity
  8
0
  6
Continuous
 62
     7
370
    25
100
AcDbCircle
 10
0.0
 20
0.0
 30
0.0
 40
183.7510000000002
100
AcDbArc
 50
173.62457131
 51
174.37542869
  0
ARC
  5
221
330
1F
100
AcDbEntity
  8
0
  6
Continuous
 62
     7
370
    25
100
AcDbCircle
 10
-157.9060735709
 20
-66.1376123069
 30
0.0
 40
90.00000000000016
100
AcDbArc
 50
101.3475796573
 51
105.9345649735
  0
ARC
  5
222
330
1F
100
AcDbEntity
  8
0
  6
Continuous
 62
     7
370
    25
100
AcDbCircle
 10
0.0
 20
0.0
 30
0.0
 40
177.0000000000002
100
AcDbArc
 50
172.1735884456
 51
172.8264115544
  0
ARC
  5
223
330
1F
100
AcDbEntity
  8
0
  6
Continuous
 62
     7
370
    25
100
AcDbCircle
 10
-135.4078809275
 20
104.7531269938
 30
0.0
 40
90.00000000000014
100
AcDbArc
 50
239.0654350265
 51
243.6524203427
  0
ARC
  5
224
330
1F
100
AcDbEntity
  8
0
  6
Continuous
 62
     7
370
    25
100
AcDbCircle
 10
0.0
 20
0.0
 30
0.0
 40
183.7510000000002
100
AcDbArc
 50
170.62457131
 51
171.37542869
  0
ARC
  5
225
330
1F
100
AcDbEntity
  8
0
  6
Continuous
 62
     7
370
    25
100
AcDbCircle
 10
-161.1510439688
 20
-57.7828076509
 30
0.0
 40
90.00000000000013
100
AcDbArc
 50
98.3475796573
 51
102.9345649735
  0
ARC
  5
226
330
1F
100
AcDbEntity
  8
0
  6
Continuous
 62
     7
370
    25
100
AcDbCircle
 10
0.0
 20
0.0
 30
0.0
 40
177.0000000000002
100
AcDbArc
 50
169.1735884456
 51
169.8264115544
  0
ARC
  5
227
330
1F
100
AcDbEntity
  8
0
  6
Continuous
 62
     7
370
    25
100
AcDbCircle
 10
-129.739954062
 20
111.6962674051
 30
0.0
 40
90.00000000000013
100
AcDbArc
 50
236.0654350265
 51
240.6524203427
  0
ARC
  5
228
330
1F
100
AcDbEntity
  8
0
  6
Continuous
 62
     7
370
    25
100
AcDbCircle
 10
0.0
 20
0.0
 30
0.0
 40
183.7510000000002
100
AcDbArc
 50
167.62457131
 51
168.37542869
  0
ARC
  5
229
330
1F
100
AcDbEntity
  8
0
  6
Continuous
 62
     7
370
    25
100
AcDbCircle
 10
-163.9543105566
 20
-49.2696243356
 30
0.0
 40
90.00000000000014
100
AcDbArc
 50
95.3475796573
 51
99.9345649735
  0
ARC
  5
22A
330
1F
100
AcDbEntity
  8
0
  6
Continuous
 62
     7
370
    25
100
AcDbCircle
 10
0.0
 20
0.0
 30
0.0
 40
177.0000000000002
100
AcDbArc
 50
166.1735884456
 51
166.8264115544
  0
ARC
  5
22B
330
1F
100
AcDbEntity
  8
0
  6
Continuous
 62
     7
370
    25
100
AcDbCircle
 10
-123.7164190006
 20
118.3332561113
 30
0.0
 40
90.00000000000016
100
AcDbArc
 50
233.0654350265
 51
237.6524203427
  0
ARC
  5
22C
330
1F
100
AcDbEntity
  8
0
  6
Continuous
 62
     7
370
    25
100
AcDbCircle
 10
0.0
 20
0.0
 30
0.0
 40
183.7510000000002
100
AcDbArc
 50
164.62457131
 51
165.37542869
  0
ARC
  5
22D
330
1F
100
AcDbEntity
  8
0
  6
Continuous
 62
     7
370
    25
100
AcDbCircle
 10
-166.3081897754
 20
-40.6213964046
 30
0.0
 40
90.00000000000016
100
AcDbArc
 50
92.3475796573
 51
96.9345649735
  0
ARC
  5
22E
330
1F
100
AcDbEntity
  8
0
  6
Continuous
 62
     7
370
    25
100
AcDbCircle
 10
0.0
 20
0.0
 30
0.0
 40
177.0000000000002
100
AcDbArc
 50
163.1735884456
 51
163.8264115544
  0
ARC
  5
22F
330
1F
100
AcDbEntity
  8
0
  6
Continuous
 62
     7
370
    25
100
AcDbCircle
 10
-117.3537858342
 20
124.6459015878
 30
0.0
 40
90.00000000000016
100
AcDbArc
 50
230.0654350265
 51
234.6524203427
  0
ARC
  5
230
330
1F
100
AcDbEntity
  8
0
  6
Continuous
 62
     7
370
    25
100
AcDbCircle
 10
0.0
 20
0.0
 30
0.0
 40
183.7510000000002
100
AcDbArc
 50
161.62457131
 51
162.37542869
  0
ARC
  5
231
330
1F
100
AcDbEntity
  8
0
  6
Continuous
 62
     7
370
    25
100
AcDbCircle
 10
-168.2062298061
 20
-31.8618280497
 30
0.0
 40
90.00000000000014
100
AcDbArc
 50
89.3475796573
 51
93.9345649735
  0
ARC
  5
232
330
1F
100
AcDbEntity
  8
0
  6
Continuous
 62
     7
370
    25
100
AcDbCircle
 10
0.0
 20
0.0
 30
0.0
 40
177.0000000000002
100
AcDbArc
 50
160.1735884456
 51
160.8264115544
  0
ARC
  5
233
330
1F
100
AcDbEntity
  8
0
  6
Continuous
 62
     7
370
    25
100
AcDbCircle
 10
-110.6694940979
 20
130.6169013121
 30
0.0
 40
90.00000000000013
100
AcDbArc
 50
227.0654350265
 51
231.6524203427
  0
ARC
  5
234
330
1F
100
AcDbEntity
  8
0
  6
Continuous
 62
     7
370
    25
100
AcDbCircle
 10
0.0
 20
0.0
 30
0.0
 40
183.7510000000002
100
AcDbArc
 50
158.62457131
 51
159.37542869
  0
ARC
  5
235
330
1F
100
AcDbEntity
  8
0
  6
Continuous
 62
     7
370
    25
100
AcDbCircle
 10
-169.6432282527
 20
-23.0149286388
 30
0.0
 40
90.00000000000014
100
AcDbArc
 50
86.3475796573
 51
90.9345649735
  0
ARC
  5
236
330
1F
100
AcDbEntity
  8
0
  6
Continuous
 62
     7
370
    25
100
AcDbCircle
 10
0.0
 20
0.0
 30
0.0
 40
177.0000000000002
100
AcDbArc
 50
157.1735884456
 51
157.8264115544
  0
ARC
  5
237
330
1F
100
AcDbEntity
  8
0
  6
Continuous
 62
     7
370
    25
100
AcDbCircle
 10
-103.6818649709
 20
136.2298891889
 30
0.0
 40
90.00000000000014
100
AcDbArc
 50
224.0654350265
 51
228.6524203427
  0
ARC
  5
238
330
1F
100
AcDbEntity
  8
0
  6
Continuous
 62
     7
370
    25
100
AcDbCircle
 10
0.0
 20
0.0
 30
0.0
 40
183.7510000000002
100
AcDbArc
 50
155.62457131
 51
156.37542869
  0
ARC
  5
239
330
1F
100
AcDbEntity
  8
0
  6
Continuous
 62
     7
370
    25
100
AcDbCircle
 10
-170.6152464024
 20
-14.1049469082
 30
0.0
 40
90.00000000000014
100
AcDbArc
 50
83.3475796573
 51
87.9345649735
  0
ARC
  5
23A
330
1F
100
AcDbEntity
  8
0
  6
Continuous
 62
     7
370
    25
100
AcDbCircle
 10
0.0
 20
0.0
 30
0.0
 40
177.0000000000002
100
AcDbArc
 50
154.1735884456
 51
154.8264115544
  0
ARC
  5
23B
330
1F
100
AcDbEntity
  8
0
  6
Continuous
 62
     7
370
    25
100
AcDbCircle
 10
-96.4100510588
 20
141.4694804087
 30
0.0
 40
90.00000000000013
100
AcDbArc
 50
221.0654350265
 51
225.6524203427
  0
ARC
  5
23C
330
1F
100
AcDbEntity
  8
0
  6
Continuous
 62
     7
370
    25
100
AcDbCircle
 10
0.0
 20
0.0
 30
0.0
 40
183.7510000000002
100
AcDbArc
 50
152.62457131
 51
153.37542869
  0
ARC
  5
23D
330
1F
100
AcDbEntity
  8
0
  6
Continuous
 62
     7
370
    25
100
AcDbCircle
 10
-171.1196200211
 20
-5.1563044986
 30
0.0
 40
90.00000000000014
100
AcDbArc
 50
80.3475796573
 51
84.9345649735
  0
ARC
  5
23E
330
1F
100
AcDbEntity
  8
0
  6
Continuous
 62
     7
370
    25
100
AcDbCircle
 10
0.0
 20
0.0
 30
0.0
 40
177.0000000000002
100
AcDbArc
 50
151.1735884456
 51
151.8264115544
  0
ARC
  5
23F
330
1F
100
AcDbEntity
  8
0
  6
Continuous
 62
     7
370
    25
100
AcDbCircle
 10
-88.8739838981
 20
146.3213136161
 30
0.0
 40
90.00000000000014
100
AcDbArc
 50
218.0654350265
 51
222.6524203427
  0
ARC
  5
240
330
1F
100
AcDbEntity
  8
0
  6
Continuous
 62
     7
370
    25
100
AcDbCircle
 10
0.0
 20
0.0
 30
0.0
 40
183.7510000000002
100
AcDbArc
 50
149.62457131
 51
150.37542869
  0
ARC
  5
241
330
1F
100
AcDbEntity
  8
0
  6
Continuous
 62
     7
370
    25
100
AcDbCircle
 10
-171.1549666557
 20
3.8064709832
 30
0.0
 40
90.00000000000014
100
AcDbArc
 50
77.3475796573
 51
81.9345649735
  0
ARC
  5
242
330
1F
100
AcDbEntity
  8
0
  6
Continuous
 62
     7
370
    25
100
AcDbCircle
 10
0.0
 20
0.0
 30
0.0
 40
177.0000000000002
100
AcDbArc
 50
148.1735884456
 51
148.8264115544
  0
ARC
  5
243
330
1F
100
AcDbEntity
  8
0
  6
Continuous
 62
     7
370
    25
100
AcDbCircle
 10
-81.0943193251
 20
150.7720902735
 30
0.0
 40
90.00000000000014
100
AcDbArc
 50
215.0654350265
 51
219.6524203427
  0
ARC
  5
244
330
1F
100
AcDbEntity
  8
0
  6
Continuous
 62
     7
370
    25
100
AcDbCircle
 10
0.0
 20
0.0
 30
0.0
 40
183.7510000000002
100
AcDbArc
 50
146.62457131
 51
147.37542869
  0
ARC
  5
245
330
1F
100
AcDbEntity
  8
0
  6
Continuous
 62
     7
370
    25
100
AcDbCircle
 10
-170.7211894235
 20
12.7588131927
 30
0.0
 40
90.00000000000013
100
AcDbArc
 50
74.3475796573
 51
78.9345649735
  0
ARC
  5
246
330
1F
100
AcDbEntity
  8
0
  6
Continuous
 62
     7
370
    25
100
AcDbCircle
 10
0.0
 20
0.0
 30
0.0
 40
177.0000000000002
100
AcDbArc
 50
145.1735884456
 51
145.8264115544
  0
ARC
  5
247
330
1F
100
AcDbEntity
  8
0
  6
Continuous
 62
     7
370
    25
100
AcDbCircle
 10
-73.0923808597
 20
154.8096111116
 30
0.0
 40
90.00000000000017
100
AcDbArc
 50
212.0654350265
 51
216.6524203427
  0
ARC
  5
248
330
1F
100
AcDbEntity
  8
0
  6
Continuous
 62
     7
370
    25
100
AcDbCircle
 10
0.0
 20
0.0
 30
0.0
 40
183.7510000000002
100
AcDbArc
 50
143.62457131
 51
144.37542869
  0
ARC
  5
249
330
1F
100
AcDbEntity
  8
0
  6
Continuous
 62
     7
370
    25
100
AcDbCircle
 10
-169.8194772777
 20
21.6761843821
 30
0.0
 40
90.00000000000014
100
AcDbArc
 50
71.3475796573
 51
75.9345649735
  0
ARC
  5
24A
330
1F
100
AcDbEntity
  8
0
  6
Continuous
 62
     7
370
    25
100
AcDbCircle
 10
0.0
 20
0.0
 30
0.0
 40
177.0000000000002
100
AcDbArc
 50
142.1735884456
 51
142.8264115544
  0
ARC
  5
24B
330
1F
100
AcDbEntity
  8
0
  6
Continuous
 62
     7
370
    25
100
AcDbCircle
 10
-64.8901012589
 20
158.4228095662
 30
0.0
 40
90.00000000000013
100
AcDbArc
 50
209.0654350265
 51
213.6524203427
  0
ARC
  5
24C
330
1F
100
AcDbEntity
  8
0
  6
Continuous
 62
     7
370
    25
100
AcDbCircle
 10
0.0
 20
0.0
 30
0.0
 40
183.7510000000002
100
AcDbArc
 50
140.62457131
 51
141.37542869
  0
ARC
  5
24D
330
1F
100
AcDbEntity
  8
0
  6
Continuous
 62
     7
370
    25
100
AcDbCircle
 10
-168.4523017488
 20
30.5341426567
 30
0.0
 40
90.00000000000016
100
AcDbArc
 50
68.3475796573
 51
72.9345649735
  0
ARC
  5
24E
330
1F
100
AcDbEntity
  8
0
  6
Continuous
 62
     7
370
    25
100
AcDbCircle
 10
0.0
 20
0.0
 30
0.0
 40
177.0000000000002
100
AcDbArc
 50
139.1735884456
 51
139.8264115544
  0
ARC
  5
24F
330
1F
100
AcDbEntity
  8
0
  6
Continuous
 62
     7
370
    25
100
AcDbCircle
 10
-56.509962401
 20
161.6017821117
 30
0.0
 40
90.00000000000016
100
AcDbArc
 50
206.0654350265
 51
210.6524203427
  0
ARC
  5
250
330
1F
100
AcDbEntity
  8
0
  6
Continuous
 62
     7
370
    25
100
AcDbCircle
 10
0.0
 20
0.0
 30
0.0
 40
183.7510000000002
100
AcDbArc
 50
137.62457131
 51
138.37542869
  0
ARC
  5
251
330
1F
100
AcDbEntity
  8
0
  6
Continuous
 62
     7
370
    25
100
AcDbCircle
 10
-166.6234101697
 20
39.3084089688
 30
0.0
 40
90.00000000000014
100
AcDbArc
 50
65.3475796573
 51
69.9345649735
  0
ARC
  5
252
330
1F
100
AcDbEntity
  8
0
  6
Continuous
 62
     7
370
    25
100
AcDbCircle
 10
0.0
 20
0.0
 30
0.0
 40
177.0000000000002
100
AcDbArc
 50
136.1735884456
 51
136.8264115544
  0
ARC
  5
253
330
1F
100
AcDbEntity
  8
0
  6
Continuous
 62
     7
370
    25
100
AcDbCircle
 10
-47.9749336641
 20
164.3378154053
 30
0.0
 40
90.00000000000016
100
AcDbArc
 50
203.0654350265
 51
207.6524203427
  0
ARC
  5
254
330
1F
100
AcDbEntity
  8
0
  6
Continuous
 62
     7
370
    25
100
AcDbCircle
 10
0.0
 20
0.0
 30
0.0
 40
183.7510000000002
100
AcDbArc
 50
134.62457131
 51
135.37542869
  0
ARC
  5
255
330
1F
100
AcDbEntity
  8
0
  6
Continuous
 62
     7
370
    25
100
AcDbCircle
 10
-164.3378154053
 20
47.9749336641
 30
0.0
 40
90.00000000000017
100
AcDbArc
 50
62.3475796573
 51
66.9345649735
  0
ARC
  5
256
330
1F
100
AcDbEntity
  8
0
  6
Continuous
 62
     7
370
    25
100
AcDbCircle
 10
0.0
 20
0.0
 30
0.0
 40
177.0000000000002
100
AcDbArc
 50
133.1735884456
 51
133.8264115544
  0
ARC
  5
257
330
1F
100
AcDbEntity
  8
0
  6
Continuous
 62
     7
370
    25
100
AcDbCircle
 10
-39.3084089688
 20
166.6234101697
 30
0.0
 40
90.00000000000013
100
AcDbArc
 50
200.0654350265
 51
204.6524203427
  0
ARC
  5
258
330
1F
100
AcDbEntity
  8
0
  6
Continuous
 62
     7
370
    25
100
AcDbCircle
 10
0.0
 20
0.0
 30
0.0
 40
183.7510000000002
100
AcDbArc
 50
131.62457131
 51
132.37542869
  0
ARC
  5
259
330
1F
100
AcDbEntity
  8
0
  6
Continuous
 62
     7
370
    25
100
AcDbCircle
 10
-161.6017821117
 20
56.509962401
 30
0.0
 40
90.00000000000013
100
AcDbArc
 50
59.3475796573
 51
63.9345649735
  0
ARC
  5
25A
330
1F
100
AcDbEntity
  8
0
  6
Continuous
 62
     7
370
    25
100
AcDbCircle
 10
0.0
 20
0.0
 30
0.0
 40
177.0000000000003
100
AcDbArc
 50
130.1735884456
 51
130.8264115544
  0
ARC
  5
25B
330
1F
100
AcDbEntity
  8
0
  6
Continuous
 62
     7
370
    25
100
AcDbCircle
 10
-30.5341426567
 20
168.4523017488
 30
0.0
 40
90.00000000000014
100
AcDbArc
 50
197.0654350265
 51
201.6524203427
  0
ARC
  5
25C
330
1F
100
AcDbEntity
  8
0
  6
Continuous
 62
     7
370
    25
100
AcDbCircle
 10
0.0
 20
0.0
 30
0.0
 40
183.7510000000002
100
AcDbArc
 50
128.62457131
 51
129.37542869
  0
ARC
  5
25D
330
1F
100
AcDbEntity
  8
0
  6
Continuous
 62
     7
370
    25
100
AcDbCircle
 10
-158.4228095662
 20
64.8901012589
 30
0.0
 40
90.00000000000014
100
AcDbArc
 50
56.3475796573
 51
60.9345649735
  0
ARC
  5
25E
330
1F
100
AcDbEntity
  8
0
  6
Continuous
 62
     7
370
    25
100
AcDbCircle
 10
0.0
 20
0.0
 30
0.0
 40
177.0000000000002
100
AcDbArc
 50
127.1735884456
 51
127.8264115544
  0
ARC
  5
25F
330
1F
100
AcDbEntity
  8
0
  6
Continuous
 62
     7
370
    25
100
AcDbCircle
 10
-21.6761843821
 20
169.8194772777
 30
0.0
 40
90.00000000000014
100
AcDbArc
 50
194.0654350265
 51
198.6524203427
  0
ARC
  5
260
330
1F
100
AcDbEntity
  8
0
  6
Continuous
 62
     7
370
    25
100
AcDbCircle
 10
0.0
 20
0.0
 30
0.0
 40
183.7510000000002
100
AcDbArc
 50
125.62457131
 51
126.37542869
  0
ARC
  5
261
330
1F
100
AcDbEntity
  8
0
  6
Continuous
 62
     7
370
    25
100
AcDbCircle
 10
-154.8096111116
 20
73.0923808597
 30
0.0
 40
90.00000000000014
100
AcDbArc
 50
53.3475796573
 51
57.9345649735
  0
ARC
  5
262
330
1F
100
AcDbEntity
  8
0
  6
Continuous
 62
     7
370
    25
100
AcDbCircle
 10
0.0
 20
0.0
 30
0.0
 40
177.0000000000002
100
AcDbArc
 50
124.1735884456
 51
124.8264115544
  0
ARC
  5
263
330
1F
100
AcDbEntity
  8
0
  6
Continuous
 62
     7
370
    25
100
AcDbCircle
 10
-12.7588131927
 20
170.7211894235
 30
0.0
 40
90.00000000000014
100
AcDbArc
 50
191.0654350265
 51
195.6524203427
  0
ARC
  5
264
330
1F
100
AcDbEntity
  8
0
  6
Continuous
 62
     7
370
    25
100
AcDbCircle
 10
0.0
 20
0.0
 30
0.0
 40
183.7510000000002
100
AcDbArc
 50
122.62457131
 51
123.37542869
  0
ARC
  5
265
330
1F
100
AcDbEntity
  8
0
  6
Continuous
 62
     7
370
    25
100
AcDbCircle
 10
-150.7720902735
 20
81.0943193251
 30
0.0
 40
90.00000000000016
100
AcDbArc
 50
50.3475796573
 51
54.9345649735
  0
ARC
  5
266
330
1F
100
AcDbEntity
  8
0
  6
Continuous
 62
     7
370
    25
100
AcDbCircle
 10
0.0
 20
0.0
 30
0.0
 40
177.0000000000003
100
AcDbArc
 50
121.1735884456
 51
121.8264115544
  0
ARC
  5
267
330
1F
100
AcDbEntity
  8
0
  6
Continuous
 62
     7
370
    25
100
AcDbCircle
 10
-3.8064709832
 20
171.1549666557
 30
0.0
 40
90.00000000000014
100
AcDbArc
 50
188.0654350265
 51
192.6524203427
  0
ARC
  5
268
330
1F
100
AcDbEntity
  8
0
  6
Continuous
 62
     7
370
    25
100
AcDbCircle
 10
0.0
 20
0.0
 30
0.0
 40
183.7510000000002
100
AcDbArc
 50
119.62457131
 51
120.37542869
  0
ARC
  5
269
330
1F
100
AcDbEntity
  8
0
  6
Continuous
 62
     7
370
    25
100
AcDbCircle
 10
-146.3213136161
 20
88.8739838981
 30
0.0
 40
90.00000000000017
100
AcDbArc
 50
47.3475796573
 51
51.9345649735
  0
ARC
  5
26A
330
1F
100
AcDbEntity
  8
0
  6
Continuous
 62
     7
370
    25
100
AcDbCircle
 10
0.0
 20
0.0
 30
0.0
 40
177.0000000000002
100
AcDbArc
 50
118.1735884456
 51
118.8264115544
  0
ARC
  5
26B
330
1F
100
AcDbEntity
  8
0
  6
Continuous
 62
     7
370
    25
100
AcDbCircle
 10
5.1563044986
 20
171.1196200211
 30
0.0
 40
90.00000000000014
100
AcDbArc
 50
185.0654350265
 51
189.6524203427
  0
ARC
  5
26C
330
1F
100
AcDbEntity
  8
0
  6
Continuous
 62
     7
370
    25
100
AcDbCircle
 10
0.0
 20
0.0
 30
0.0
 40
183.7510000000002
100
AcDbArc
 50
116.62457131
 51
117.37542869
  0
ARC
  5
26D
330
1F
100
AcDbEntity
  8
0
  6
Continuous
 62
     7
370
    25
100
AcDbCircle
 10
-141.4694804087
 20
96.4100510588
 30
0.0
 40
90.00000000000014
100
AcDbArc
 50
44.3475796573
 51
48.9345649735
  0
ARC
  5
26E
330
1F
100
AcDbEntity
  8
0
  6
Continuous
 62
     7
370
    25
100
AcDbCircle
 10
0.0
 20
0.0
 30
0.0
 40
177.0000000000003
100
AcDbArc
 50
115.1735884456
 51
115.8264115544
  0
ARC
  5
26F
330
1F
100
AcDbEntity
  8
0
  6
Continuous
 62
     7
370
    25
100
AcDbCircle
 10
14.1049469082
 20
170.6152464024
 30
0.0
 40
90.00000000000014
100
AcDbArc
 50
182.0654350265
 51
186.6524203427
  0
ARC
  5
270
330
1F
100
AcDbEntity
  8
0
  6
Continuous
 62
     7
370
    25
100
AcDbCircle
 10
0.0
 20
0.0
 30
0.0
 40
183.7510000000002
100
AcDbArc
 50
113.62457131
 51
114.37542869
  0
ARC
  5
271
330
1F
100
AcDbEntity
  8
0
  6
Continuous
 62
     7
370
    25
100
AcDbCircle
 10
-136.2298891889
 20
103.6818649709
 30
0.0
 40
90.00000000000013
100
AcDbArc
 50
41.3475796573
 51
45.9345649735
  0
ARC
  5
272
330
1F
100
AcDbEntity
  8
0
  6
Continuous
 62
     7
370
    25
100
AcDbCircle
 10
0.0
 20
0.0
 30
0.0
 40
177.0000000000002
100
AcDbArc
 50
112.1735884456
 51
112.8264115544
  0
ARC
  5
273
330
1F
100
AcDbEntity
  8
0
  6
Continuous
 62
     7
370
    25
100
AcDbCircle
 10
23.0149286388
 20
169.6432282527
 30
0.0
 40
90.00000000000016
100
AcDbArc
 50
179.0654350265
 51
183.6524203427
  0
ARC
  5
274
330
1F
100
AcDbEntity
  8
0
  6
Continuous
 62
     7
370
    25
100
AcDbCircle
 10
0.0
 20
0.0
 30
0.0
 40
183.7510000000002
100
AcDbArc
 50
110.62457131
 51
111.37542869
  0
ARC
  5
275
330
1F
100
AcDbEntity
  8
0
  6
Continuous
 62
     7
370
    25
100
AcDbCircle
 10
-130.6169013121
 20
110.6694940979
 30
0.0
 40
90.00000000000014
100
AcDbArc
 50
38.3475796573
 51
42.9345649735
  0
ARC
  5
276
330
1F
100
AcDbEntity
  8
0
  6
Continuous
 62
     7
370
    25
100
AcDbCircle
 10
0.0
 20
0.0
 30
0.0
 40
177.0000000000002
100
AcDbArc
 50
109.1735884456
 51
109.8264115544
  0
ARC
  5
277
330
1F
100
AcDbEntity
  8
0
  6
Continuous
 62
     7
370
    25
100
AcDbCircle
 10
31.8618280497
 20
168.2062298061
 30
0.0
 40
90.00000000000016
100
AcDbArc
 50
176.0654350265
 51
180.6524203427
  0
ARC
  5
278
330
1F
100
AcDbEntity
  8
0
  6
Continuous
 62
     7
370
    25
100
AcDbCircle
 10
0.0
 20
0.0
 30
0.0
 40
183.7510000000002
100
AcDbArc
 50
107.62457131
 51
108.37542869
  0
ARC
  5
279
330
1F
100
AcDbEntity
  8
0
  6
Continuous
 62
     7
370
    25
100
AcDbCircle
 10
-124.6459015878
 20
117.3537858342
 30
0.0
 40
90.00000000000016
100
AcDbArc
 50
35.3475796573
 51
39.9345649735
  0
ARC
  5
27A
330
1F
100
AcDbEntity
  8
0
  6
Continuous
 62
     7
370
    25
100
AcDbCircle
 10
0.0
 20
0.0
 30
0.0
 40
177.0000000000002
100
AcDbArc
 50
106.1735884456
 51
106.8264115544
  0
ARC
  5
27B
330
1F
100
AcDbEntity
  8
0
  6
Continuous
 62
     7
370
    25
100
AcDbCircle
 10
40.6213964046
 20
166.3081897754
 30
0.0
 40
90.00000000000013
100
AcDbArc
 50
173.0654350265
 51
177.6524203427
  0
ARC
  5
27C
330
1F
100
AcDbEntity
  8
0
  6
Continuous
 62
     7
370
    25
100
AcDbCircle
 10
0.0
 20
0.0
 30
0.0
 40
183.7510000000002
100
AcDbArc
 50
104.62457131
 51
105.37542869
  0
ARC
  5
27D
330
1F
100
AcDbEntity
  8
0
  6
Continuous
 62
     7
370
    25
100
AcDbCircle
 10
-118.3332561113
 20
123.7164190006
 30
0.0
 40
90.00000000000013
100
AcDbArc
 50
32.3475796573
 51
36.9345649735
  0
ARC
  5
27E
330
1F
100
AcDbEntity
  8
0
  6
Continuous
 62
     7
370
    25
100
AcDbCircle
 10
0.0
 20
0.0
 30
0.0
 40
177.0000000000002
100
AcDbArc
 50
103.1735884456
 51
103.8264115544
  0
ARC
  5
27F
330
1F
100
AcDbEntity
  8
0
  6
Continuous
 62
     7
370
    25
100
AcDbCircle
 10
49.2696243356
 20
163.9543105566
 30
0.0
 40
90.00000000000014
100
AcDbArc
 50
170.0654350265
 51
174.6524203427
  0
ARC
  5
280
330
1F
100
AcDbEntity
  8
0
  6
Continuous
 62
     7
370
    25
100
AcDbCircle
 10
0.0
 20
0.0
 30
0.0
 40
183.7510000000002
100
AcDbArc
 50
101.62457131
 51
102.37542869
  0
ARC
  5
281
330
1F
100
AcDbEntity
  8
0
  6
Continuous
 62
     7
370
    25
100
AcDbCircle
 10
-111.6962674051
 20
129.739954062
 30
0.0
 40
90.00000000000014
100
AcDbArc
 50
29.3475796573
 51
33.9345649735
  0
ARC
  5
282
330
1F
100
AcDbEntity
  8
0
  6
Continuous
 62
     7
370
    25
100
AcDbCircle
 10
0.0
 20
0.0
 30
0.0
 40
177.0000000000002
100
AcDbArc
 50
100.1735884456
 51
100.8264115544
  0
ARC
  5
283
330
1F
100
AcDbEntity
  8
0
  6
Continuous
 62
     7
370
    25
100
AcDbCircle
 10
57.7828076509
 20
161.1510439688
 30
0.0
 40
90.00000000000014
100
AcDbArc
 50
167.0654350265
 51
171.6524203427
  0
ARC
  5
284
330
1F
100
AcDbEntity
  8
0
  6
Continuous
 62
     7
370
    25
100
AcDbCircle
 10
0.0
 20
0.0
 30
0.0
 40
183.7510000000003
100
AcDbArc
 50
98.62457131
 51
99.37542869
  0
ARC
  5
285
330
1F
100
AcDbEntity
  8
0
  6
Continuous
 62
     7
370
    25
100
AcDbCircle
 10
-104.7531269938
 20
135.4078809274
 30
0.0
 40
90.00000000000018
100
AcDbArc
 50
26.3475796573
 51
30.9345649735
  0
ARC
  5
286
330
1F
100
AcDbEntity
  8
0
  6
Continuous
 62
     7
370
    25
100
AcDbCircle
 10
0.0
 20
0.0
 30
0.0
 40
177.0000000000002
100
AcDbArc
 50
97.1735884456
 51
97.8264115544
  0
ARC
  5
287
330
1F
100
AcDbEntity
  8
0
  6
Continuous
 62
     7
370
    25
100
AcDbCircle
 10
66.1376123069
 20
157.9060735709
 30
0.0
 40
90.00000000000014
100
AcDbArc
 50
164.0654350265
 51
168.6524203427
  0
ARC
  5
288
330
1F
100
AcDbEntity
  8
0
  6
Continuous
 62
     7
370
    25
100
AcDbCircle
 10
0.0
 20
0.0
 30
0.0
 40
183.7510000000002
100
AcDbArc
 50
95.62457131
 51
96.37542869
  0
ARC
  5
289
330
1F
100
AcDbEntity
  8
0
  6
Continuous
 62
     7
370
    25
100
AcDbCircle
 10
-97.5228655428
 20
140.7046642033
 30
0.0
 40
90.00000000000014
100
AcDbArc
 50
23.3475796573
 51
27.9345649735
  0
ARC
  5
28A
330
1F
100
AcDbEntity
  8
0
  6
Continuous
 62
     7
370
    25
100
AcDbCircle
 10
0.0
 20
0.0
 30
0.0
 40
177.0000000000002
100
AcDbArc
 50
94.1735884456
 51
94.8264115544
  0
ARC
  5
28B
330
1F
100
AcDbEntity
  8
0
  6
Continuous
 62
     7
370
    25
100
AcDbCircle
 10
74.3111383647
 20
154.2282936014
 30
0.0
 40
90.00000000000016
100
AcDbArc
 50
161.0654350265
 51
165.6524203427
  0
ARC
  5
28C
330
1F
100
AcDbEntity
  8
0
  6
Continuous
 62
     7
370
    25
100
AcDbCircle
 10
0.0
 20
0.0
 30
0.0
 40
183.7510000000002
100
AcDbArc
 50
92.62457131
 51
93.37542869
  0
ARC
  5
28D
330
1F
100
AcDbEntity
  8
0
  6
Continuous
 62
     7
370
    25
100
AcDbCircle
 10
-90.025300696
 20
145.6157857749
 30
0.0
 40
90.00000000000016
100
AcDbArc
 50
20.3475796573
 51
24.9345649735
  0
ARC
  5
28E
330
1F
100
AcDbEntity
  8
0
  6
Continuous
 62
     7
370
    25
100
AcDbCircle
 10
0.0
 20
0.0
 30
0.0
 40
177.0000000000002
100
AcDbArc
 50
91.1735884456
 51
91.8264115544
  0
ARC
  5
28F
330
1F
100
AcDbEntity
  8
0
  6
Continuous
 62
     7
370
    25
100
AcDbCircle
 10
82.2809827576
 20
150.1277845993
 30
0.0
 40
90.00000000000014
100
AcDbArc
 50
158.0654350265
 51
162.6524203427
  0
ARC
  5
290
330
1F
100
AcDbEntity
  8
0
  6
Continuous
 62
     7
370
    25
100
AcDbCircle
 10
0.0
 20
0.0
 30
0.0
 40
183.7510000000002
100
AcDbArc
 50
89.62457131
 51
90.37542869
  0
ARC
  5
291
330
1F
100
AcDbEntity
  8
0
  6
Continuous
 62
     7
370
    25
100
AcDbCircle
 10
-82.2809827576
 20
150.1277845993
 30
0.0
 40
90.00000000000014
100
AcDbArc
 50
17.3475796573
 51
21.9345649735
  0
ARC
  5
292
330
1F
100
AcDbEntity
  8
0
  6
Continuous
 62
     7
370
    25
100
AcDbCircle
 10
0.0
 20
0.0
 30
0.0
 40
177.0000000000002
100
AcDbArc
 50
88.1735884456
 51
88.8264115544
  0
CIRCLE
  5
293
330
1F
100
AcDbEntity
  8
0
  6
Continuous
 62
     7
370
    25
100
AcDbCircle
 10
162.6345596729
 20
-162.6345596729
 30
0.0
 40
2.5
  0
CIRCLE
  5
294
330
1F
100
AcDbEntity
  8
0
  6
Continuous
 62
     7
370
    25
100
AcDbCircle
 10
169.7409791418
 20
98.0
 30
0.0
 40
2.099999999999994
  0
CIRCLE
  5
295
330
1F
100
AcDbEntity
  8
0
  6
Continuous
 62
     7
370
    25
100
AcDbCircle
 10
63.4492553054
 20
221.5179270425
 30
0.0
 40
1.25
  0
CIRCLE
  5
296
330
1F
100
AcDbEntity
  8
0
  6
Continuous
 62
     7
370
    25
100
AcDbCircle
 10
201.5022270538
 20
111.7714296784
 30
0.0
 40
1.25
  0
CIRCLE
  5
297
330
1F
100
AcDbEntity
  8
0
  6
Continuous
 62
     7
370
    25
100
AcDbCircle
 10
186.4578380201
 20
135.3863901611
 30
0.0
 40
1.25
  0
CIRCLE
  5
298
330
1F
100
AcDbEntity
  8
0
  6
Continuous
 62
     7
370
    25
100
AcDbCircle
 10
135.3863901611
 20
186.4578380201
 30
0.0
 40
1.25
  0
CIRCLE
  5
299
330
1F
100
AcDbEntity
  8
0
  6
Continuous
 62
     7
370
    25
100
AcDbCircle
 10
111.7714296784
 20
201.5022270538
 30
0.0
 40
1.25
  0
CIRCLE
  5
29A
330
1F
100
AcDbEntity
  8
0
  6
Continuous
 62
     7
370
    25
100
AcDbCircle
 10
221.5179270425
 20
-63.4492553054
 30
0.0
 40
1.25
  0
CIRCLE
  5
29B
330
1F
100
AcDbEntity
  8
0
  6
Continuous
 62
     7
370
    25
100
AcDbCircle
 10
227.5782362327
 20
-36.1129671061
 30
0.0
 40
1.249999999999972
  0
CIRCLE
  5
29C
330
1F
100
AcDbEntity
  8
0
  6
Continuous
 62
     7
370
    25
100
AcDbCircle
 10
227.5782362327
 20
36.1129671061
 30
0.0
 40
1.249999999999972
  0
CIRCLE
  5
29D
330
1F
100
AcDbEntity
  8
0
  6
Continuous
 62
     7
370
    25
100
AcDbCircle
 10
221.5179270425
 20
63.4492553054
 30
0.0
 40
1.25
  0
CIRCLE
  5
29E
330
1F
100
AcDbEntity
  8
0
  6
Continuous
 62
     7
370
    25
100
AcDbCircle
 10
111.7714296784
 20
-201.5022270538
 30
0.0
 40
1.249999999999972
  0
CIRCLE
  5
29F
330
1F
100
AcDbEntity
  8
0
  6
Continuous
 62
     7
370
    25
100
AcDbCircle
 10
135.3863901611
 20
-186.4578380201
 30
0.0
 40
1.249999999999972
  0
CIRCLE
  5
2A0
330
1F
100
AcDbEntity
  8
0
  6
Continuous
 62
     7
370
    25
100
AcDbCircle
 10
186.4578380201
 20
-135.3863901612
 30
0.0
 40
1.249999999999972
  0
CIRCLE
  5
2A1
330
1F
100
AcDbEntity
  8
0
  6
Continuous
 62
     7
370
    25
100
AcDbCircle
 10
201.5022270538
 20
-111.7714296784
 30
0.0
 40
1.249999999999972
  0
CIRCLE
  5
2A2
330
1F
100
AcDbEntity
  8
0
  6
Continuous
 62
     7
370
    25
100
AcDbCircle
 10
-63.4492553054
 20
-221.5179270425
 30
0.0
 40
1.25
  0
CIRCLE
  5
2A3
330
1F
100
AcDbEntity
  8
0
  6
Continuous
 62
     7
370
    25
100
AcDbCircle
 10
-36.1129671061
 20
-227.5782362327
 30
0.0
 40
1.25
  0
CIRCLE
  5
2A4
330
1F
100
AcDbEntity
  8
0
  6
Continuous
 62
     7
370
    25
100
AcDbCircle
 10
36.1129671061
 20
-227.5782362327
 30
0.0
 40
1.25
  0
CIRCLE
  5
2A5
330
1F
100
AcDbEntity
  8
0
  6
Continuous
 62
     7
370
    25
100
AcDbCircle
 10
63.4492553054
 20
-221.5179270425
 30
0.0
 40
1.25
  0
CIRCLE
  5
2A6
330
1F
100
AcDbEntity
  8
0
  6
Continuous
 62
     7
370
    25
100
AcDbCircle
 10
-201.5022270538
 20
-111.7714296784
 30
0.0
 40
1.25
  0
CIRCLE
  5
2A7
330
1F
100
AcDbEntity
  8
0
  6
Continuous
 62
     7
370
    25
100
AcDbCircle
 10
-186.4578380201
 20
-135.3863901611
 30
0.0
 40
1.249999999999972
  0
CIRCLE
  5
2A8
330
1F
100
AcDbEntity
  8
0
  6
Continuous
 62
     7
370
    25
100
AcDbCircle
 10
-135.3863901612
 20
-186.4578380201
 30
0.0
 40
1.249999999999972
  0
CIRCLE
  5
2A9
330
1F
100
AcDbEntity
  8
0
  6
Continuous
 62
     7
370
    25
100
AcDbCircle
 10
-111.7714296784
 20
-201.5022270538
 30
0.0
 40
1.249999999999972
  0
CIRCLE
  5
2AA
330
1F
100
AcDbEntity
  8
0
  6
Continuous
 62
     7
370
    25
100
AcDbCircle
 10
-221.5179270425
 20
63.4492553054
 30
0.0
 40
1.25
  0
CIRCLE
  5
2AB
330
1F
100
AcDbEntity
  8
0
  6
Continuous
 62
     7
370
    25
100
AcDbCircle
 10
-227.5782362327
 20
36.1129671061
 30
0.0
 40
1.25
  0
CIRCLE
  5
2AC
330
1F
100
AcDbEntity
  8
0
  6
Continuous
 62
     7
370
    25
100
AcDbCircle
 10
-227.5782362327
 20
-36.1129671061
 30
0.0
 40
1.25
  0
CIRCLE
  5
2AD
330
1F
100
AcDbEntity
  8
0
  6
Continuous
 62
     7
370
    25
100
AcDbCircle
 10
-221.5179270425
 20
-63.4492553054
 30
0.0
 40
1.25
  0
CIRCLE
  5
2AE
330
1F
100
AcDbEntity
  8
0
  6
Continuous
 62
     7
370
    25
100
AcDbCircle
 10
-111.7714296784
 20
201.5022270538
 30
0.0
 40
1.249999999999972
  0
CIRCLE
  5
2AF
330
1F
100
AcDbEntity
  8
0
  6
Continuous
 62
     7
370
    25
100
AcDbCircle
 10
-135.3863901611
 20
186.4578380201
 30
0.0
 40
1.249999999999972
  0
CIRCLE
  5
2B0
330
1F
100
AcDbEntity
  8
0
  6
Continuous
 62
     7
370
    25
100
AcDbCircle
 10
-186.4578380201
 20
135.3863901612
 30
0.0
 40
1.249999999999972
  0
CIRCLE
  5
2B1
330
1F
100
AcDbEntity
  8
0
  6
Continuous
 62
     7
370
    25
100
AcDbCircle
 10
-201.5022270538
 20
111.7714296784
 30
0.0
 40
1.249999999999972
  0
MTEXT
  5
2B3
330
1F
100
AcDbEntity
  8
0
  6
Continuous
 62
     7
100
AcDbMText
 10
-250.0
 20
-251.0195663917
 30
0.0
 40
4.83362
 41
0.0
 71
     1
 72
     1
  1
SOLIDWORKS Educational Product.
  7
SLDTEXTSTYLE0
 73
     1
 44
1.0
  0
MTEXT
  5
2B4
330
1F
100
AcDbEntity
  8
0
  6
Continuous
 62
     7
100
AcDbMText
 10
-250.0
 20
-258.2699963917
 30
0.0
 40
4.83362
 41
0.0
 71
     1
 72
     1
  1
For Instructional Use Only.
  7
SLDTEXTSTYLE0
 73
     1
 44
1.0
  0
ENDSEC
  0
SECTION
  2
OBJECTS
  0
DICTIONARY
  5
C
330
0
100
AcDbDictionary
281
     1
  3
ACAD_GROUP
350
D
  3
ACAD_LAYOUT
350
1A
  3
ACAD_MLINESTYLE
350
17
  3
ACAD_PLOTSETTINGS
350
19
  3
ACAD_PLOTSTYLENAME
350
E
  3
ACAD_SCALELIST
350
47
  3
DWGPROPS
350
2B5
  0
DICTIONARY
  5
D
102
{ACAD_REACTORS
330
C
102
}
330
C
100
AcDbDictionary
281
     1
  0
DICTIONARY
  5
1A
102
{ACAD_REACTORS
330
C
102
}
330
C
100
AcDbDictionary
281
     1
  3
Layout1
350
1E
  3
Layout2
350
26
  3
Model
350
22
  0
DICTIONARY
  5
17
102
{ACAD_REACTORS
330
C
102
}
330
C
100
AcDbDictionary
281
     1
  3
Standard
350
18
  0
DICTIONARY
  5
19
102
{ACAD_REACTORS
330
C
102
}
330
C
100
AcDbDictionary
281
     1
  0
ACDBDICTIONARYWDFLT
  5
E
102
{ACAD_REACTORS
330
C
102
}
330
C
100
AcDbDictionary
281
     1
  3
Normal
350
F
100
AcDbDictionaryWithDefault
340
F
  0
DICTIONARY
  5
47
102
{ACAD_REACTORS
330
C
102
}
330
C
100
AcDbDictionary
281
     1
  3
A0
350
48
  3
A1
350
49
  3
A2
350
4A
  3
A3
350
4B
  3
A4
350
4C
  3
A5
350
4D
  3
A6
350
4E
  3
A7
350
4F
  3
A8
350
50
  3
A9
350
51
  3
B0
350
52
  3
B1
350
53
  3
B2
350
54
  3
B3
350
55
  3
B4
350
56
  3
B5
350
57
  3
B6
350
58
  0
XRECORD
  5
2B5
102
{ACAD_REACTORS
330
C
102
}
330
C
100
AcDbXrecord
280
     1
  1
DWGPROPS COOKIE
  2

  3

  4

  6

  7

  8
micha
  9

300
=
301
=
302
=
303
=
304
=
305
=
306
=
307
=
308
=
309
=
 40
0.0
 41
2460326.793711458
 42
2460326.793749514
  1

 90
        0
  0
LAYOUT
  5
1E
102
{ACAD_REACTORS
330
1A
102
}
330
1A
100
AcDbPlotSettings
  1

  2
none_device
  4

  6

 40
0.0
 41
0.0
 42
0.0
 43
0.0
 44
0.0
 45
0.0
 46
0.0
 47
0.0
 48
0.0
 49
0.0
140
0.0
141
0.0
142
1.0
143
1.0
 70
   688
 72
     1
 73
     0
 74
     5
  7

 75
    16
147
1.0
148
0.0
149
0.0
100
AcDbLayout
  1
Layout1
 70
     1
 71
     1
 10
0.0
 20
0.0
 11
420.0
 21
297.0
 12
0.0
 22
0.0
 32
0.0
 14
1.0000000000E+20
 24
1.0000000000E+20
 34
1.0000000000E+20
 15
-1.0000000000E+20
 25
-1.0000000000E+20
 35
-1.0000000000E+20
146
0.0
 13
0.0
 23
0.0
 33
0.0
 16
1.0
 26
0.0
 36
0.0
 17
0.0
 27
1.0
 37
0.0
 76
     0
330
1B
  0
LAYOUT
  5
26
102
{ACAD_REACTORS
330
1A
102
}
330
1A
100
AcDbPlotSettings
  1

  2
none_device
  4

  6

 40
0.0
 41
0.0
 42
0.0
 43
0.0
 44
0.0
 45
0.0
 46
0.0
 47
0.0
 48
0.0
 49
0.0
140
0.0
141
0.0
142
1.0
143
1.0
 70
   688
 72
     1
 73
     0
 74
     5
  7

 75
    16
147
1.0
148
0.0
149
0.0
100
AcDbLayout
  1
Layout2
 70
     1
 71
     2
 10
0.0
 20
0.0
 11
0.0
 21
0.0
 12
0.0
 22
0.0
 32
0.0
 14
0.0
 24
0.0
 34
0.0
 15
0.0
 25
0.0
 35
0.0
146
0.0
 13
0.0
 23
0.0
 33
0.0
 16
1.0
 26
0.0
 36
0.0
 17
0.0
 27
1.0
 37
0.0
 76
     0
330
23
  0
LAYOUT
  5
22
102
{ACAD_REACTORS
330
1A
102
}
330
1A
100
AcDbPlotSettings
  1

  2
none_device
  4
ANSI_A_(11.00_x_8.50_Inches)
  6

 40
6.35
 41
19.05
 42
6.35000508
 43
19.05000254
 44
279.4
 45
215.9
 46
133.34999746
 47
88.89999873
 48
0.0
 49
0.0
140
0.0
141
0.0
142
0.01683
143
1.0
 70
  1696
 72
     0
 73
     0
 74
     0
  7

 75
     0
147
0.0179189148
148
-1300.4909072572
149
0.0
100
AcDbLayout
  1
Model
 70
     1
 71
     0
 10
0.0
 20
0.0
 11
420.0
 21
297.0
 12
0.0
 22
0.0
 32
0.0
 14
-250.0
 24
-250.0
 34
0.0
 15
250.0
 25
250.0
 35
0.0
146
0.0
 13
0.0
 23
0.0
 33
0.0
 16
1.0
 26
0.0
 36
0.0
 17
0.0
 27
1.0
 37
0.0
 76
     0
330
1F
331
29
  0
MLINESTYLE
  5
18
102
{ACAD_REACTORS
330
17
102
}
330
17
100
AcDbMlineStyle
  2
Standard
 70
     0
  3

 62
   256
 51
90.0
 52
90.0
 71
     2
 49
0.5
 62
   256
  6
BYLAYER
 49
-0.5
 62
   256
  6
BYLAYER
  0
ACDBPLACEHOLDER
  5
F
102
{ACAD_REACTORS
330
E
102
}
330
E
  0
SCALE
  5
48
102
{ACAD_REACTORS
330
47
102
}
330
47
100
AcDbScale
 70
     0
300
1:1
140
1.0
141
1.0
290
     1
  0
SCALE
  5
49
102
{ACAD_REACTORS
330
47
102
}
330
47
100
AcDbScale
 70
     0
300
1:2
140
1.0
141
2.0
290
     0
  0
SCALE
  5
4A
102
{ACAD_REACTORS
330
47
102
}
330
47
100
AcDbScale
 70
     0
300
1:4
140
1.0
141
4.0
290
     0
  0
SCALE
  5
4B
102
{ACAD_REACTORS
330
47
102
}
330
47
100
AcDbScale
 70
     0
300
1:5
140
1.0
141
5.0
290
     0
  0
SCALE
  5
4C
102
{ACAD_REACTORS
330
47
102
}
330
47
100
AcDbScale
 70
     0
300
1:8
140
1.0
141
8.0
290
     0
  0
SCALE
  5
4D
102
{ACAD_REACTORS
330
47
102
}
330
47
100
AcDbScale
 70
     0
300
1:10
140
1.0
141
10.0
290
     0
  0
SCALE
  5
4E
102
{ACAD_REACTORS
330
47
102
}
330
47
100
AcDbScale
 70
     0
300
1:16
140
1.0
141
16.0
290
     0
  0
SCALE
  5
4F
102
{ACAD_REACTORS
330
47
102
}
330
47
100
AcDbScale
 70
     0
300
1:20
140
1.0
141
20.0
290
     0
  0
SCALE
  5
50
102
{ACAD_REACTORS
330
47
102
}
330
47
100
AcDbScale
 70
     0
300
1:30
140
1.0
141
30.0
290
     0
  0
SCALE
  5
51
102
{ACAD_REACTORS
330
47
102
}
330
47
100
AcDbScale
 70
     0
300
1:40
140
1.0
141
40.0
290
     0
  0
SCALE
  5
52
102
{ACAD_REACTORS
330
47
102
}
330
47
100
AcDbScale
 70
     0
300
1:50
140
1.0
141
50.0
290
     0
  0
SCALE
  5
53
102
{ACAD_REACTORS
330
47
102
}
330
47
100
AcDbScale
 70
     0
300
1:100
140
1.0
141
100.0
290
     0
  0
SCALE
  5
54
102
{ACAD_REACTORS
330
47
102
}
330
47
100
AcDbScale
 70
     0
300
2:1
140
2.0
141
1.0
290
     0
  0
SCALE
  5
55
102
{ACAD_REACTORS
330
47
102
}
330
47
100
AcDbScale
 70
     0
300
4:1
140
4.0
141
1.0
290
     0
  0
SCALE
  5
56
102
{ACAD_REACTORS
330
47
102
}
330
47
100
AcDbScale
 70
     0
300
8:1
140
8.0
141
1.0
290
     0
  0
SCALE
  5
57
102
{ACAD_REACTORS
330
47
102
}
330
47
100
AcDbScale
 70
     0
300
10:1
140
10.0
141
1.0
290
     0
  0
SCALE
  5
58
102
{ACAD_REACTORS
330
47
102
}
330
47
100
AcDbScale
 70
     0
300
100:1
140
100.0
141
1.0
290
     0
  0
ENDSEC
  0
EOF
